<?xml version="1.0" encoding="utf-8"?>
<!-- Generator: Adobe Illustrator 22.0.1, SVG Export Plug-In . SVG Version: 6.00 Build 0)  -->
<svg version="1.1" id="Layer_1" xmlns="http://www.w3.org/2000/svg" xmlns:xlink="http://www.w3.org/1999/xlink" x="0px" y="0px"
	 viewBox="0 0 193.1 192.5" style="enable-background:new 0 0 193.1 192.5;" xml:space="preserve">
<style type="text/css">
	.st0{fill:#21409A;}
</style>
<g>
	<path class="st0" d="M177.4,53.2H15.7C6.9,53.2,0,44.9,0,34.3V18.9C0,8.3,6.9,0,15.7,0h161.7c8.8,0,15.7,8.3,15.7,18.9v15.4
		C193.1,44.9,186.2,53.2,177.4,53.2z M15.7,12.1c-1.4,0-3.6,2.7-3.6,6.8v15.4c0,4.1,2.2,6.8,3.6,6.8h161.7c1.4,0,3.6-2.7,3.6-6.8
		V18.9c0-4.1-2.2-6.8-3.6-6.8H15.7z"/>
</g>
<g>
	<path class="st0" d="M177.4,122.8H15.7c-8.8,0-15.7-8.3-15.7-18.9V88.5c0-10.6,6.9-18.9,15.7-18.9h161.7c8.8,0,15.7,8.3,15.7,18.9
		v15.4C193.1,114.5,186.2,122.8,177.4,122.8z M15.7,81.7c-1.4,0-3.6,2.7-3.6,6.8v15.4c0,4.1,2.2,6.8,3.6,6.8h161.7
		c1.4,0,3.6-2.7,3.6-6.8V88.5c0-4.1-2.2-6.8-3.6-6.8H15.7z"/>
</g>
<g>
	<path class="st0" d="M177.4,186.4H15.7c-5.3,0-9.7-5.8-9.7-12.9v-15.4c0-7.1,4.3-12.9,9.7-12.9h161.7c5.3,0,9.7,5.8,9.7,12.9v15.4
		C187.1,180.6,182.7,186.4,177.4,186.4"/>
</g>
<g>
	<path class="st0" d="M177.4,192.5H15.7c-8.8,0-15.7-8.3-15.7-18.9v-15.4c0-10.6,6.9-18.9,15.7-18.9h161.7c8.8,0,15.7,8.3,15.7,18.9
		v15.4C193.1,184.1,186.2,192.5,177.4,192.5z M15.7,151.3c-1.4,0-3.6,2.7-3.6,6.8v15.4c0,4.1,2.2,6.8,3.6,6.8h161.7
		c1.4,0,3.6-2.7,3.6-6.8v-15.4c0-4.1-2.2-6.8-3.6-6.8H15.7z"/>
</g>
</svg>
