<?xml version="1.0" encoding="utf-8"?>
<!-- Generator: Adobe Illustrator 23.0.1, SVG Export Plug-In . SVG Version: 6.00 Build 0)  -->
<svg version="1.1" id="Layer_1" xmlns="http://www.w3.org/2000/svg" xmlns:xlink="http://www.w3.org/1999/xlink" x="0px" y="0px"
	 viewBox="0 0 574.44 574.44" style="enable-background:new 0 0 574.44 574.44;" xml:space="preserve">
<style type="text/css">
	.st0{fill:#FFFFFF;}
	.st1{fill:#0094D9;}
	.st2{fill:#224099;}
	.st3{fill:#1C93D1;}
	.st4{clip-path:url(#SVGID_2_);}
	.st5{fill:#ED3A7B;}
	.st6{fill:#CF1C5D;}
	.st7{clip-path:url(#SVGID_4_);fill:#F4DC37;}
	.st8{clip-path:url(#SVGID_4_);fill:#CD2027;}
	.st9{clip-path:url(#SVGID_6_);fill:#224099;}
	.st10{clip-path:url(#SVGID_6_);fill:#CD2027;}
	.st11{fill:#0058A1;}
	.st12{fill:#F8A01B;}
	.st13{fill:#009BD9;}
	.st14{fill:#263C82;}
	.st15{fill:#272D68;}
	.st16{fill:#EC1C24;}
	.st17{fill:#F89D1C;}
	.st18{fill:#F05623;}
	.st19{fill:#353535;}
	.st20{fill:#FCB912;}
	.st21{fill:#4C7ABC;}
	.st22{fill:#5F6368;}
	.st23{fill:#ED342F;}
	.st24{fill:#00AC4E;}
	.st25{fill:#F6921E;}
	.st26{fill:#176BB4;}
	.st27{fill:#15467B;}
	.st28{fill:#B57C2B;}
</style>
<g>
	<g>
		<g>
			<path class="st1" d="M73.05,463.14c-7.71,0-15.3-3.61-20.1-10.38C-28.07,338.33-14.92,183.33,84.21,84.2
				c99.14-99.13,254.14-112.27,368.56-31.26c11.09,7.85,13.72,23.19,5.86,34.28c-7.85,11.08-23.19,13.72-34.28,5.86
				c-94.8-67.11-223.23-56.23-305.35,25.89c-82.12,82.13-93.01,210.55-25.89,305.35c7.85,11.09,5.23,26.44-5.86,34.28
				C82.92,461.68,77.95,463.14,73.05,463.14z"/>
			<path class="st2" d="M287.5,574.44c-57.66,0-115.64-17.42-165.82-52.96c-11.09-7.85-13.72-23.19-5.86-34.28
				c7.85-11.08,23.19-13.72,34.28-5.86c94.81,67.12,223.23,56.23,305.35-25.89c82.12-82.13,93.01-210.55,25.89-305.35
				c-7.85-11.09-5.23-26.44,5.86-34.28c11.1-7.85,26.44-5.22,34.28,5.86c81.02,114.43,67.87,269.43-31.26,368.56
				C434.58,545.88,361.3,574.44,287.5,574.44z"/>
		</g>
	</g>
	<g>
		<path class="st2" d="M463.65,231.19c2.43,5.94,1,10.54-5.67,15.8c-12.94,10.2-19.02,13.57-59.37,29.75
			c-44.17,17.71-91.86,31.95-116.76,41.94l-29.1,11.67c-23.87,9.57-48.63,13.12-75.3,14.51c-20.5,1.07-51.9-1.94-51.9-1.94
			c-2.31-0.09-4.47-1.35-5.8-3.39l0,0c-2.55-3.93-1.11-9.17,2.98-10.81l18.21-7.3l-33.54-27.29c-1.94-1.58-1.6-4.7,0.62-5.59
			l14.17-2.39c0.64-0.25,1.34-0.28,2.01-0.06l61.67,17.32l200.41-80.37c16.05-6.44,31.79-5.56,49.11-2.5
			c5.24,0.93,13.43,1.31,20.17,3.59C459.04,225.3,461.94,227,463.65,231.19z"/>
		<path class="st2" d="M332.11,260.06l-63.65,18.09c-6.72,1.91-13.75,1.74-19.58-0.47l-134.01-50.85c-2.9-1.73-1.62-5.66,2.2-6.75
			l36.19-4.47c1.22-0.35,2.49-0.32,3.55,0.08l176.06,37.62C336.91,254.16,336.38,258.84,332.11,260.06z"/>
		<path class="st1" d="M408.74,427.72H180.33c-11.32,0-20.5-9.18-20.5-20.5c0-11.32,9.18-20.5,20.5-20.5h228.42
			c11.32,0,20.5,9.18,20.5,20.5C429.24,418.55,420.06,427.72,408.74,427.72z"/>
	</g>
</g>
</svg>
