<?xml version="1.0" encoding="utf-8"?>
<!-- Generator: Adobe Illustrator 23.0.1, SVG Export Plug-In . SVG Version: 6.00 Build 0)  -->
<svg version="1.1" id="Layer_1" xmlns="http://www.w3.org/2000/svg" xmlns:xlink="http://www.w3.org/1999/xlink" x="0px" y="0px"
	 viewBox="0 0 341.81 341.82" style="enable-background:new 0 0 341.81 341.82;" xml:space="preserve">
<style type="text/css">
	.st0{fill:#21409A;}
	.st1{fill:#0095DA;}
	.st2{fill:#FFFFFF;}
	.st3{fill:none;stroke:#FFFFFF;stroke-width:2;stroke-linecap:round;stroke-linejoin:round;stroke-miterlimit:10;}
	.st4{fill:#1F4396;}
	.st5{fill:#1F4497;}
	.st6{fill:#214099;}
</style>
<g>
	<g>
		<path class="st1" d="M43.01,275.36c-4.42,0-8.76-2.06-11.5-5.94C-16.7,201.33-8.88,109.1,50.11,50.11
			c58.98-58.99,151.21-66.81,219.3-18.6c6.35,4.49,7.85,13.28,3.35,19.62c-4.49,6.33-13.29,7.85-19.62,3.35
			C196.29,14.25,119.27,20.77,70.02,70.02c-49.25,49.26-55.78,126.27-15.53,183.13c4.5,6.35,2.99,15.13-3.35,19.62
			C48.66,274.52,45.82,275.36,43.01,275.36z"/>
		<path class="st0" d="M171.08,341.82c-34.31,0-68.8-10.37-98.67-31.51c-6.35-4.49-7.85-13.28-3.35-19.62
			c4.48-6.34,13.28-7.85,19.62-3.35c56.86,40.26,133.87,33.73,183.12-15.53s55.78-126.27,15.53-183.13
			c-4.5-6.35-2.99-15.13,3.35-19.62c6.34-4.48,15.14-2.99,19.62,3.35c48.21,68.09,40.39,160.32-18.6,219.3
			C258.6,324.83,214.99,341.82,171.08,341.82z"/>
	</g>
</g>
<g>
	<path class="st1" d="M141.68,129.64c-2.81,0-5.09-2.28-5.09-5.09V76.46c0-2.81,2.28-5.09,5.09-5.09s5.09,2.28,5.09,5.09v48.09
		C146.76,127.37,144.49,129.64,141.68,129.64z"/>
	<path class="st1" d="M141.68,104.24c-0.55,0-1.1-0.09-1.63-0.27l-33.37-11.34c-2.06-0.7-3.45-2.64-3.45-4.81s1.39-4.11,3.45-4.81
		l33.37-11.34c1.56-0.52,3.26-0.27,4.6,0.68c1.33,0.95,2.12,2.49,2.12,4.13v22.69c0,1.64-0.79,3.18-2.12,4.13
		C143.76,103.91,142.72,104.24,141.68,104.24z M124.1,87.81l12.49,4.25v-8.49L124.1,87.81z"/>
</g>
<g>
	<path class="st0" d="M253.2,201.95c-0.03,0-0.07,0-0.11,0l-17.22-0.28c-3.42-0.05-6.24-2.7-6.52-6.11l-5.08-62.65
		c-0.29-3.66,2.44-6.87,6.1-7.17c3.61-0.12,6.87,2.43,7.17,6.1l4.59,56.63l11.18,0.18c3.67,0.05,6.6,3.08,6.54,6.75
		C259.8,199.05,256.82,201.95,253.2,201.95z"/>
	<g>
		<path class="st0" d="M257.11,230.84h-23.28c-3.67,0-6.65-2.97-6.65-6.65s2.97-6.65,6.65-6.65h16.63v-32.37l-11.86-49.36H115.49
			c-3.01,0-5.65-2.02-6.42-4.93l-0.92-3.48h-5.51v90.15h16.93c3.67,0,6.65,2.97,6.65,6.65s-2.97,6.65-6.65,6.65H95.99
			c-3.67,0-6.65-2.97-6.65-6.65V120.76c0-3.67,2.97-6.65,6.65-6.65h17.26c3.01,0,5.65,2.02,6.42,4.93l0.92,3.48h123.25
			c3.07,0,5.74,2.1,6.46,5.1l13.26,55.22c0.12,0.5,0.18,1.03,0.18,1.55v39.81C263.75,227.87,260.78,230.84,257.11,230.84z"/>
		<path class="st0" d="M198.42,230.84H150.5c-3.67,0-6.65-2.97-6.65-6.65s2.97-6.65,6.65-6.65h47.92c3.67,0,6.65,2.97,6.65,6.65
			S202.09,230.84,198.42,230.84z"/>
		<path class="st0" d="M133.56,251.54c-11.39,0-20.65-9.26-20.65-20.65c0-11.39,9.26-20.65,20.65-20.65
			c11.38,0,20.64,9.26,20.64,20.65C154.2,242.28,144.95,251.54,133.56,251.54z M133.56,223.53c-4.06,0-7.36,3.3-7.36,7.36
			s3.3,7.36,7.36,7.36c4.05,0,7.35-3.3,7.35-7.36S137.61,223.53,133.56,223.53z"/>
		<path class="st0" d="M216.91,251.54c-11.39,0-20.65-9.26-20.65-20.65c0-11.39,9.26-20.65,20.65-20.65
			c11.38,0,20.64,9.26,20.64,20.65C237.55,242.28,228.29,251.54,216.91,251.54z M216.91,223.53c-4.06,0-7.36,3.3-7.36,7.36
			s3.3,7.36,7.36,7.36c4.05,0,7.35-3.3,7.35-7.36S220.96,223.53,216.91,223.53z"/>
		<path class="st0" d="M213.82,198.21H95.99c-3.67,0-6.65-2.97-6.65-6.65v-36.34c0-3.67,2.97-6.65,6.65-6.65h117.84
			c3.67,0,6.65,2.97,6.65,6.65v36.34C220.47,195.24,217.5,198.21,213.82,198.21z M102.63,184.92h104.55v-23.05H102.63V184.92z"/>
		<path class="st0" d="M135.17,198.21c-3.67,0-6.65-2.97-6.65-6.65v-36.34c0-3.67,2.97-6.65,6.65-6.65s6.65,2.97,6.65,6.65v36.34
			C141.82,195.24,138.85,198.21,135.17,198.21z"/>
		<path class="st0" d="M175.19,198.21c-3.67,0-6.65-2.97-6.65-6.65v-36.34c0-3.67,2.97-6.65,6.65-6.65s6.65,2.97,6.65,6.65v36.34
			C181.83,195.24,178.86,198.21,175.19,198.21z"/>
	</g>
</g>
</svg>
