<?xml version="1.0" encoding="utf-8"?>
<!-- Generator: Adobe Illustrator 23.0.1, SVG Export Plug-In . SVG Version: 6.00 Build 0)  -->
<svg version="1.1" id="Layer_1" xmlns="http://www.w3.org/2000/svg" xmlns:xlink="http://www.w3.org/1999/xlink" x="0px" y="0px"
	 viewBox="0 0 299.99 299.99" style="enable-background:new 0 0 299.99 299.99;" xml:space="preserve">
<style type="text/css">
	.st0{fill:#21409A;}
	.st1{fill:#0095DA;}
	.st2{fill:#FFFFFF;}
	.st3{fill:none;stroke:#FFFFFF;stroke-width:2;stroke-linecap:round;stroke-linejoin:round;stroke-miterlimit:10;}
	.st4{fill:#1F4396;}
	.st5{fill:#1F4497;}
	.st6{fill:#214099;}
</style>
<g>
	<g>
		<g>
			<g>
				<g>
					<path class="st1" d="M35.64,240.57c-3.06,0-6.08-1.44-7.99-4.12c-42.3-59.76-35.44-140.7,16.32-192.47
						C95.74-7.79,176.68-14.66,236.44,27.65c4.41,3.12,5.45,9.23,2.33,13.64c-3.12,4.41-9.23,5.45-13.64,2.33
						C173.2,6.83,102.82,12.8,57.8,57.8C12.79,102.81,6.83,173.18,43.62,225.14c3.12,4.41,2.08,10.51-2.33,13.64
						C39.57,239.99,37.6,240.57,35.64,240.57z"/>
					<path class="st0" d="M150.14,299.99c-30.11,0-60.39-9.09-86.59-27.65c-4.41-3.12-5.45-9.23-2.33-13.64
						c3.13-4.41,9.22-5.45,13.64-2.33c51.96,36.8,122.33,30.82,167.34-14.19c45-45.01,50.97-115.39,14.19-167.34
						c-3.12-4.41-2.08-10.51,2.33-13.64c4.41-3.12,10.5-2.07,13.64,2.33c42.3,59.76,35.44,140.71-16.32,192.47
						C226.95,285.08,188.68,299.99,150.14,299.99z"/>
				</g>
			</g>
		</g>
	</g>
	<g>
		<path class="st0" d="M155.33,209.19c-31.01,0-56.23-25.22-56.23-56.22c0-31.01,25.22-56.23,56.23-56.23s56.23,25.22,56.23,56.23
			C211.56,183.96,186.33,209.19,155.33,209.19z M155.33,108.47c-24.54,0-44.5,19.96-44.5,44.5c0,24.53,19.96,44.49,44.5,44.49
			s44.5-19.96,44.5-44.49C199.82,128.43,179.86,108.47,155.33,108.47z"/>
		<path class="st0" d="M155.33,191.23c-21.11,0-38.28-17.16-38.28-38.27c0-3.24,2.63-5.87,5.87-5.87s5.87,2.63,5.87,5.87
			c0,14.64,11.91,26.54,26.55,26.54c3.24,0,5.87,2.63,5.87,5.87C161.19,188.61,158.56,191.23,155.33,191.23z"/>
		<path class="st0" d="M181.64,177.74c-1.18,0-2.38-0.36-3.41-1.1c-2.64-1.89-3.23-5.56-1.34-8.19c3.26-4.53,4.98-9.88,4.98-15.48
			c0-14.64-11.9-26.55-26.54-26.55c-3.73,0-7.32,0.75-10.67,2.23c-2.96,1.28-6.42-0.04-7.74-3c-1.31-2.96,0.04-6.43,3-7.74
			c4.86-2.14,10.05-3.22,15.41-3.22c21.11,0,38.27,17.17,38.27,38.28c0,8.07-2.48,15.79-7.18,22.33
			C185.27,176.89,183.47,177.74,181.64,177.74z"/>
	</g>
	<g>
		<path class="st0" d="M79.08,219.15c-2.81,0-5.09-2.28-5.09-5.09V87.79c0-2.81,2.28-5.09,5.09-5.09c2.81,0,5.09,2.28,5.09,5.09
			v126.27C84.17,216.87,81.89,219.15,79.08,219.15z"/>
		<path class="st0" d="M79.08,221.69c-5.19,0-9.39-4.2-9.39-9.39v-32.12c0-5.19,4.2-9.39,9.39-9.39s9.39,4.2,9.39,9.39v32.12
			C88.47,217.49,84.27,221.69,79.08,221.69z"/>
		<path class="st0" d="M79.08,135.22c-11.68,0-18.11-6.81-18.11-19.17V87.79c0-2.81,2.28-5.09,5.09-5.09c2.81,0,5.09,2.28,5.09,5.09
			v28.26c0,7.6,2.67,8.99,7.94,8.99s7.93-1.39,7.93-8.99V87.79c0-2.81,2.28-5.09,5.09-5.09s5.09,2.28,5.09,5.09v28.26
			C97.19,128.41,90.75,135.22,79.08,135.22z"/>
		<path class="st0" d="M79.08,131.81c-11.68,0-18.11-6.81-18.11-19.17c0-2.81,2.28-5.09,5.09-5.09c2.81,0,5.09,2.28,5.09,5.09
			c0,7.6,2.67,8.99,7.94,8.99s7.93-1.39,7.93-8.99c0-2.81,2.28-5.09,5.09-5.09s5.09,2.28,5.09,5.09
			C97.19,125,90.75,131.81,79.08,131.81z"/>
	</g>
	<g>
		<path class="st5" d="M232.72,219.96c-2.81,0-5.09-2.28-5.09-5.09V88.96c0-2.82,1.72-5.36,4.38-6.49c2.77-1.16,5.94-0.59,8.08,1.49
			l3.36,3.25c4.75,4.63,7.37,10.68,7.37,17.03v36.17c0,10.42-4.58,16.89-13.02,18.66v55.79
			C237.81,217.69,235.53,219.96,232.72,219.96z M237.81,96.14v52.29c1.89-1.13,2.84-3.45,2.84-8v-36.17
			C240.65,101.35,239.66,98.54,237.81,96.14z"/>
		<path class="st5" d="M232.72,220.94c-4.32,0-7.82-3.5-7.82-7.82V181c0-4.32,3.5-7.82,7.82-7.82s7.82,3.5,7.82,7.82v32.12
			C240.55,217.44,237.05,220.94,232.72,220.94z"/>
		<path class="st5" d="M232.72,155.16c-2.81,0-5.09-2.28-5.09-5.09s2.28-5.09,5.09-5.09c5.26,0,7.93-1.39,7.93-8.99
			c0-2.81,2.28-5.09,5.09-5.09s5.09,2.28,5.09,5.09C250.83,148.35,244.4,155.16,232.72,155.16z"/>
	</g>
</g>
</svg>
