<?xml version="1.0" encoding="utf-8"?>
<!-- Generator: Adobe Illustrator 22.0.1, SVG Export Plug-In . SVG Version: 6.00 Build 0)  -->
<svg version="1.1" id="Layer_1" xmlns="http://www.w3.org/2000/svg" xmlns:xlink="http://www.w3.org/1999/xlink" x="0px" y="0px"
	 viewBox="0 0 27 23" style="enable-background:new 0 0 27 23;" xml:space="preserve">
<style type="text/css">
	.st0{fill:#1E94D2;}
	.st1{fill:#FFFFFF;}
	.st2{fill:#214497;}
</style>
<g>
	<g>
		<path class="st0" d="M6.2,15.3h14.7v-10H6.2L6.2,15.3z M21.5,16.6H5.5c-0.3,0-0.6-0.3-0.6-0.6V4.7c0-0.3,0.3-0.6,0.6-0.6h15.9
			c0.3,0,0.6,0.3,0.6,0.6V16C22.1,16.3,21.8,16.6,21.5,16.6z"/>
		<path class="st0" d="M4.7,17.7l17.6,0l0-1.1H4.7V17.7z M22.9,18.9l-18.8,0c-0.3,0-0.6-0.3-0.6-0.6l0-2.3c0-0.3,0.3-0.6,0.6-0.6
			l18.8,0c0.3,0,0.6,0.3,0.6,0.6l0,2.3C23.5,18.6,23.3,18.9,22.9,18.9z"/>
		<circle class="st1" cx="13.3" cy="10.3" r="3.5"/>
		<path class="st2" d="M13.3,7.4c-1.6,0-2.9,1.3-2.9,2.9s1.3,2.9,2.9,2.9c1.6,0,2.9-1.3,2.9-2.9S14.9,7.4,13.3,7.4z M13.3,14.5
			c-2.3,0-4.2-1.9-4.2-4.2c0-2.3,1.9-4.2,4.2-4.2c2.3,0,4.2,1.9,4.2,4.2S15.6,14.5,13.3,14.5z"/>
		<path class="st2" d="M12.6,12c-0.2,0-0.4-0.1-0.5-0.2l-1.1-1.3c-0.2-0.3-0.2-0.7,0.1-0.9s0.7-0.2,0.9,0.1l0.7,0.8l1.8-1.4
			c0.3-0.2,0.7-0.2,0.9,0.1c0.2,0.3,0.2,0.7-0.1,0.9L13,11.9C12.9,12,12.7,12,12.6,12z"/>
	</g>
</g>
</svg>
