<?xml version="1.0" encoding="utf-8"?>
<!-- Generator: Adobe Illustrator 23.0.1, SVG Export Plug-In . SVG Version: 6.00 Build 0)  -->
<svg version="1.1" id="Layer_1" xmlns="http://www.w3.org/2000/svg" xmlns:xlink="http://www.w3.org/1999/xlink" x="0px" y="0px"
	 viewBox="0 0 884.63 884.63" style="enable-background:new 0 0 884.63 884.63;" xml:space="preserve">
<style type="text/css">
	.st0{fill:#FFFFFF;}
	.st1{fill:#FFFFFF;}
	.st2{fill:#FFFFFF;}
	.st3{fill:#FFFFFF;}
</style>
<g>
	<g>
		<g>
			<path class="st0" d="M446.07,712.43c-3.35,0-6.69-1.05-9.52-3.15l-86.03-63.89c-66.31-49.25-105.9-127.97-105.9-210.57V298.7
				c0-23.75,15.99-44.77,38.88-51.11l158.3-43.86c2.79-0.77,5.74-0.77,8.53,0l158.29,43.86c22.89,6.34,38.88,27.36,38.88,51.11
				v136.12c0,82.6-39.59,161.32-105.9,210.57l-86.01,63.89C452.76,711.38,449.42,712.43,446.07,712.43z M446.07,235.67
				l-154.04,42.67c-9.12,2.53-15.48,10.9-15.48,20.36v136.12c0,72.55,34.77,141.69,93.01,184.95l76.51,56.82l76.5-56.82
				c58.24-43.26,93.01-112.4,93.01-184.95V298.7c0-9.46-6.37-17.83-15.48-20.36L446.07,235.67z"/>
		</g>
		<g>
			<g>
				<path class="st1" d="M500.09,576.97H392.04c-20.58,0-37.32-16.74-37.32-37.32V410.46c0-20.56,16.73-37.29,37.3-37.29h108.1
					c20.57,0,37.3,16.73,37.3,37.29v129.18C537.41,560.22,520.67,576.97,500.09,576.97z M392.02,397.11
					c-7.36,0-13.36,5.99-13.36,13.35v129.18c0,7.38,6,13.38,13.38,13.38h108.05c7.38,0,13.38-6,13.38-13.38V410.46
					c0-7.36-5.99-13.35-13.36-13.35H392.02z"/>
			</g>
			<path class="st1" d="M476.31,309.65h-60.47c-6.61,0-11.97-5.36-11.97-11.97c0-6.61,5.36-11.97,11.97-11.97h60.47
				c6.61,0,11.97,5.36,11.97,11.97C488.28,304.29,482.92,309.65,476.31,309.65z"/>
			<g>
				<path class="st1" d="M409.38,593.93c-8.81,0-15.96-7.15-15.96-15.96v-8.57c0-8.81,7.15-15.96,15.96-15.96
					c8.81,0,15.96,7.15,15.96,15.96v8.57C425.34,586.78,418.19,593.93,409.38,593.93z"/>
				<path class="st1" d="M482.75,593.93c-8.81,0-15.96-7.15-15.96-15.96v-8.57c0-8.81,7.15-15.96,15.96-15.96
					c8.81,0,15.96,7.15,15.96,15.96v8.57C498.71,586.78,491.56,593.93,482.75,593.93z"/>
			</g>
			<g>
				<path class="st1" d="M426.14,397.11c-6.61,0-11.97-5.36-11.97-11.97v-82.86c0-6.61,5.36-11.97,11.97-11.97
					s11.97,5.36,11.97,11.97v82.86C438.11,391.75,432.75,397.11,426.14,397.11z"/>
				<path class="st1" d="M465.99,397.11c-6.61,0-11.97-5.36-11.97-11.97v-82.86c0-6.61,5.36-11.97,11.97-11.97
					c6.61,0,11.97,5.36,11.97,11.97v82.86C477.97,391.75,472.61,397.11,465.99,397.11z"/>
			</g>
			<g>
				<g>
					<path class="st1" d="M430.28,547.24c-4.41,0-7.98-3.57-7.98-7.98V413.42c0-4.41,3.57-7.98,7.98-7.98
						c4.41,0,7.98,3.57,7.98,7.98v125.84C438.26,543.67,434.68,547.24,430.28,547.24z"/>
					<path class="st1" d="M461.86,547.24c-4.41,0-7.98-3.57-7.98-7.98V413.42c0-4.41,3.57-7.98,7.98-7.98s7.98,3.57,7.98,7.98
						v125.84C469.84,543.67,466.27,547.24,461.86,547.24z"/>
				</g>
				<g>
					<path class="st1" d="M399.2,547.24c-4.41,0-7.98-3.57-7.98-7.98V413.41c0-4.41,3.57-7.98,7.98-7.98s7.98,3.57,7.98,7.98v125.84
						C407.18,543.66,403.6,547.24,399.2,547.24z"/>
					<path class="st1" d="M492.94,547.24c-4.41,0-7.98-3.57-7.98-7.98V413.41c0-4.41,3.57-7.98,7.98-7.98s7.98,3.57,7.98,7.98
						v125.84C500.92,543.66,497.34,547.24,492.94,547.24z"/>
				</g>
			</g>
		</g>
	</g>
</g>
</svg>
