<?xml version="1.0" encoding="utf-8"?>
<!-- Generator: Adobe Illustrator 23.0.1, SVG Export Plug-In . SVG Version: 6.00 Build 0)  -->
<svg version="1.1" id="Layer_1" xmlns="http://www.w3.org/2000/svg" xmlns:xlink="http://www.w3.org/1999/xlink" x="0px" y="0px"
	 viewBox="0 0 867.13 867.13" style="enable-background:new 0 0 867.13 867.13;" xml:space="preserve">
<style type="text/css">
	.st0{fill:#21409A;}
	.st1{fill:#0095DA;}
	.st2{fill:#FFFFFF;}
	.st3{fill:none;stroke:#FFFFFF;stroke-width:2;stroke-linecap:round;stroke-linejoin:round;stroke-miterlimit:10;}
	.st4{fill:#1F4396;}
	.st5{fill:#1F4497;}
	.st6{fill:#214099;}
</style>
<g>
	<g>
		<path class="st1" d="M99.1,693.34c-7.36,0-14.6-3.45-19.17-9.91c-122.3-172.71-102.45-406.68,47.18-556.32
			C276.73-22.52,510.72-42.37,683.43,79.93c10.58,7.49,13.09,22.13,5.59,32.71c-7.48,10.57-22.12,13.09-32.71,5.59
			C502.31,9.21,293.7,26.91,160.29,160.3C26.89,293.72,9.19,502.32,118.23,656.31c7.49,10.57,4.99,25.22-5.59,32.71
			C108.52,691.94,103.79,693.34,99.1,693.34z"/>
		<path class="st0" d="M434,867.13c-87.04,0-174.55-26.29-250.3-79.93c-10.58-7.49-13.09-22.13-5.59-32.71
			c7.48-10.57,22.13-13.09,32.71-5.59c154.02,109.04,362.62,91.33,496.02-42.07c133.41-133.41,151.1-342.02,42.06-496.02
			c-7.49-10.57-4.99-25.22,5.59-32.71c10.6-7.49,25.22-4.98,32.71,5.59c122.29,172.72,102.45,406.69-47.18,556.32
			C656.02,824.02,545.41,867.13,434,867.13z"/>
	</g>
</g>
<g>
	<g>
		<g>
			<path class="st1" d="M354.98,302.63c-40.78,0-73.96-33.18-73.96-73.97s33.18-73.96,73.96-73.96s73.97,33.18,73.97,73.96
				S395.77,302.63,354.98,302.63z M354.98,178.17c-27.84,0-50.49,22.65-50.49,50.49s22.65,50.5,50.49,50.5
				c27.84,0,50.5-22.66,50.5-50.5S382.83,178.17,354.98,178.17z"/>
			<path class="st1" d="M381.18,240.04h-38.32l0.18-43.27c0.02-4.31,3.51-7.79,7.82-7.79c0.01,0,0.02,0,0.03,0
				c4.32,0.02,7.81,3.54,7.79,7.85l-0.11,27.56h22.62c4.32,0,7.82,3.5,7.82,7.82S385.5,240.04,381.18,240.04z"/>
		</g>
	</g>
	<g>
		<polyline class="st2" points="348.8,606.01 348.8,457.28 662.6,457.28 662.6,605.9 		"/>
		<path class="st0" d="M348.8,617.74c-6.48,0-11.73-5.26-11.73-11.73V457.28c0-6.48,5.26-11.73,11.73-11.73h313.8
			c6.48,0,11.73,5.26,11.73,11.73V605.9c0,6.48-5.26,11.73-11.73,11.73c-6.48,0-11.73-5.26-11.73-11.73V469.01H360.54v137
			C360.54,612.49,355.28,617.74,348.8,617.74z"/>
	</g>
	<g>
		<g>
			<path class="st2" d="M565.44,422.7H442v-76.29c0-3.2,2.59-5.79,5.79-5.79h111.85c3.2,0,5.79,2.59,5.79,5.79V422.7z"/>
			<path class="st0" d="M565.44,434.43H442.01c-6.48,0-11.73-5.26-11.73-11.73v-36.77c0-31.46,25.59-57.05,57.05-57.05h32.81
				c31.46,0,57.05,25.59,57.05,57.05v36.77C577.18,429.18,571.92,434.43,565.44,434.43z M453.74,410.97h99.97v-25.03
				c0-18.52-15.06-33.58-33.58-33.58h-32.81c-18.52,0-33.58,15.06-33.58,33.58V410.97z"/>
		</g>
		<g>
			<ellipse class="st2" cx="503.72" cy="275.07" rx="30.05" ry="30.76"/>
			<path class="st0" d="M503.72,317.56c-23.04,0-41.78-19.07-41.78-42.5s18.74-42.5,41.78-42.5c23.04,0,41.78,19.07,41.78,42.5
				S526.76,317.56,503.72,317.56z M503.72,256.04c-10.1,0-18.31,8.53-18.31,19.03s8.21,19.03,18.31,19.03s18.31-8.53,18.31-19.03
				S513.82,256.04,503.72,256.04z"/>
		</g>
	</g>
	<g>
		<path class="st1" d="M308.35,525.56H204.72c-1.25,0-2.27-1.02-2.27-2.27v-82.32c0-1.25,1.02-2.27,2.27-2.27h103.64
			c1.25,0,2.27,1.02,2.27,2.27v82.32C310.62,524.55,309.61,525.56,308.35,525.56z"/>
		<path class="st1" d="M277.51,460.95h-38.97c-6.48,0-11.73-5.26-11.73-11.73v-25c0-11.64,9.47-21.11,21.11-21.11h20.21
			c11.64,0,21.11,9.47,21.11,21.11v25C289.24,455.69,283.99,460.95,277.51,460.95z M250.27,437.48h15.51v-10.92h-15.51V437.48z"/>
	</g>
	<g>
		<path class="st0" d="M661.61,507.74H358.4c-6.48,0-11.73-5.26-11.73-11.73c0-6.48,5.26-11.73,11.73-11.73h303.21
			c6.48,0,11.73,5.26,11.73,11.73C673.34,502.49,668.09,507.74,661.61,507.74z"/>
	</g>
	<g>
		<polyline class="st2" points="348.8,610.78 180.05,610.78 180.05,558.71 302.8,558.71 		"/>
		<path class="st0" d="M348.8,622.51H180.05c-6.48,0-11.73-5.26-11.73-11.73v-52.06c0-6.48,5.26-11.73,11.73-11.73H302.8
			c6.48,0,11.73,5.26,11.73,11.73s-5.26,11.73-11.73,11.73H191.78v28.59H348.8c6.48,0,11.73,5.26,11.73,11.73
			C360.54,617.25,355.28,622.51,348.8,622.51z"/>
	</g>
</g>
</svg>
