<?xml version="1.0" encoding="utf-8"?>
<!-- Generator: Adobe Illustrator 23.0.1, SVG Export Plug-In . SVG Version: 6.00 Build 0)  -->
<svg version="1.1" id="Layer_1" xmlns="http://www.w3.org/2000/svg" xmlns:xlink="http://www.w3.org/1999/xlink" x="0px" y="0px"
	 viewBox="0 0 289.6 289.6" style="enable-background:new 0 0 289.6 289.6;" xml:space="preserve">
<style type="text/css">
	.st0{fill:#A7A9AC;}
	.st1{fill:#0095DA;}
	.st2{fill:#21409A;}
</style>
<g>
	<g>
		<path class="st1" d="M34.4,232.2c-3,0-5.9-1.4-7.7-4C-14.2,170.6-7.5,92.4,42.4,42.5c50-50,128.1-56.6,185.8-15.8
			c4.3,3,5.3,8.9,2.3,13.2c-3,4.3-8.9,5.3-13.2,2.3C167.2,6.6,99.3,12.4,55.8,55.8C12.4,99.3,6.6,167.2,42.1,217.3
			c3,4.3,2,10.1-2.3,13.2C38.2,231.7,36.3,232.2,34.4,232.2"/>
		<path class="st2" d="M144.9,289.6c-29.1,0-58.3-8.8-83.6-26.7c-4.3-3-5.3-8.9-2.3-13.2c3-4.3,8.9-5.3,13.2-2.3
			c50.2,35.5,118.1,29.8,161.5-13.7c43.4-43.4,49.2-111.4,13.7-161.5c-3-4.3-2-10.1,2.2-13.2c4.3-3,10.1-2,13.2,2.2
			c40.8,57.7,34.2,135.8-15.8,185.8C219.1,275.2,182.1,289.6,144.9,289.6"/>
	</g>
	<g>
		<g>
			<path class="st2" d="M78.8,214.1c-4.2,0-7.6-3.4-7.6-7.6v-47.8c0-4.2,3.4-7.6,7.6-7.6h127.1c4.2,0,7.6,3.4,7.6,7.6v47.7
				c0,4.2-3.4,7.6-7.6,7.6c-4.2,0-7.6-3.4-7.6-7.6v-40.2h-112v40.2C86.4,210.7,83,214.1,78.8,214.1z"/>
		</g>
		<g>
			<g>
				<path class="st2" d="M166.6,144.7h-50c-4.2,0-7.6-3.4-7.6-7.6v-8.2c0-17.9,14.6-32.5,32.5-32.5s32.5,14.6,32.5,32.5v8.2
					C174.1,141.4,170.7,144.7,166.6,144.7z M124.1,129.6H159v-0.7c0-9.6-7.8-17.4-17.4-17.4s-17.4,7.8-17.4,17.4V129.6z"/>
			</g>
			<g>
				<path class="st2" d="M141.6,97.4c-10.9,0-19.7-9-19.7-20s8.8-20,19.7-20c10.9,0,19.7,9,19.7,20S152.4,97.4,141.6,97.4z
					 M141.6,72.5c-2.5,0-4.6,2.2-4.6,4.9s2.1,4.9,4.6,4.9c2.5,0,4.6-2.2,4.6-4.9S144.1,72.5,141.6,72.5z"/>
			</g>
		</g>
		<g>
			<g>
				<path class="st1" d="M169.3,229.5h-55.6c-0.3,0-0.5-0.2-0.5-0.5v-38.5c0-0.3,0.2-0.5,0.5-0.5h55.6c0.3,0,0.5,0.2,0.5,0.5V229
					C169.9,229.3,169.6,229.5,169.3,229.5z"/>
			</g>
			<g>
				<path class="st1" d="M150,197.3h-15.8c-1.7,0-3.2-1.4-3.2-3.2V184c0-3.8,3.1-7,7-7h8.2c3.8,0,7,3.1,7,7v10.1
					C153.2,195.9,151.8,197.3,150,197.3z M137.4,191h9.4V184c0-0.3-0.3-0.6-0.6-0.6h-8.2c-0.3,0-0.6,0.3-0.6,0.6V191z"/>
			</g>
		</g>
	</g>
</g>
</svg>
