<?xml version="1.0" encoding="utf-8"?>
<!-- Generator: Adobe Illustrator 23.0.1, SVG Export Plug-In . SVG Version: 6.00 Build 0)  -->
<svg version="1.1" id="Layer_1" xmlns="http://www.w3.org/2000/svg" xmlns:xlink="http://www.w3.org/1999/xlink" x="0px" y="0px"
	 viewBox="0 0 288.96 288.96" style="enable-background:new 0 0 288.96 288.96;" xml:space="preserve">
<style type="text/css">
	.st0{fill:#FFFFFF;}
	.st1{fill:#FFFFFF;}
	.st2{fill:#FFFFFF;}
	.st3{fill:#FFFFFF;}
	.st4{fill:#283F94;}
</style>
<g>
	<path class="st1" d="M217.91,184.59H74.66c-3.75,0-6.78-3.04-6.78-6.78v-101c0-3.75,3.04-6.78,6.78-6.78h143.25
		c3.75,0,6.78,3.04,6.78,6.78v101C224.69,181.55,221.66,184.59,217.91,184.59z M81.44,171.02h129.69V83.59H81.44V171.02z"/>
	<path class="st1" d="M230.93,205.6H61.64c-3.75,0-6.78-3.04-6.78-6.78V177.8c0-3.75,3.04-6.78,6.78-6.78h169.29
		c3.75,0,6.78,3.04,6.78,6.78v21.01C237.71,202.56,234.67,205.6,230.93,205.6z M68.42,192.03h155.72v-7.45H68.42V192.03z"/>
	<g>
		<g>
			<circle class="st4" cx="144.48" cy="127.3" r="31.89"/>
			<path class="st2" d="M144.48,164.84c-20.7,0-37.54-16.84-37.54-37.54s16.84-37.54,37.54-37.54c20.71,0,37.55,16.84,37.55,37.54
				S165.18,164.84,144.48,164.84z M144.48,101.06c-14.47,0-26.24,11.77-26.24,26.24s11.77,26.24,26.24,26.24
				c14.47,0,26.25-11.77,26.25-26.24S158.95,101.06,144.48,101.06z"/>
		</g>
		<path class="st2" d="M138.26,142.78c-1.6,0-3.18-0.68-4.3-1.98l-9.69-11.32c-2.02-2.37-1.75-5.94,0.63-7.97
			c2.35-2.01,5.94-1.75,7.97,0.63l6.16,7.2l16.34-12.86c2.46-1.94,6.02-1.52,7.93,0.94c1.94,2.45,1.51,6-0.94,7.93l-20.6,16.22
			C140.72,142.38,139.49,142.78,138.26,142.78z"/>
	</g>
</g>
</svg>
