<?xml version="1.0" encoding="utf-8"?>
<!-- Generator: Adobe Illustrator 23.0.1, SVG Export Plug-In . SVG Version: 6.00 Build 0)  -->
<svg version="1.1" id="Layer_1" xmlns="http://www.w3.org/2000/svg" xmlns:xlink="http://www.w3.org/1999/xlink" x="0px" y="0px"
	 viewBox="0 0 880.71 880.71" style="enable-background:new 0 0 880.71 880.71;" xml:space="preserve">
<style type="text/css">
	.st0{fill:#0095DA;}
	.st1{fill:#21409A;}
	.st2{fill:#FFFFFF;}
	.st3{fill:#1F4396;}
</style>
<g>
	<g>
		<path class="st0" d="M100.65,704.2c-7.47,0-14.83-3.5-19.47-10.06C-43.03,518.71-22.88,281.07,129.1,129.1
			C281.08-22.88,518.72-43.03,694.14,81.18c10.75,7.6,13.29,22.48,5.68,33.22c-7.6,10.75-22.47,13.3-33.22,5.68
			C510.19,9.34,298.32,27.3,162.81,162.8C27.3,298.3,9.33,510.18,120.08,666.6c7.61,10.74,5.07,25.62-5.68,33.22
			C110.22,702.78,105.41,704.2,100.65,704.2z"/>
		<path class="st1" d="M440.8,880.71c-88.4,0-177.28-26.7-254.23-81.18c-10.75-7.6-13.29-22.48-5.68-33.22
			c7.6-10.74,22.47-13.3,33.22-5.68c156.43,110.75,368.3,92.77,503.79-42.73s153.46-347.37,42.73-503.79
			c-7.61-10.74-5.07-25.62,5.68-33.22c10.76-7.61,25.62-5.06,33.22,5.68c124.21,175.43,104.05,413.07-47.92,565.04
			C666.29,836.93,553.95,880.71,440.8,880.71z"/>
	</g>
</g>
<g>
	<g>
		<g>
			<path class="st1" d="M701.24,600.34H319.87c-9.95,0-18.05-8.1-18.05-18.05V326.98c0-9.95,8.1-18.05,18.05-18.05h381.37
				c9.95,0,18.05,8.1,18.05,18.05v255.31C719.3,592.24,711.2,600.34,701.24,600.34z M333.6,568.56h353.92V340.7H333.6V568.56z"/>
			<path class="st1" d="M502.78,484.36c-12.72,0-25.45-4.37-35.83-13.11L307.47,336.97c-6.71-5.65-7.57-15.68-1.92-22.39
				c5.66-6.72,15.69-7.57,22.39-1.92l159.48,134.28c9.05,7.61,21.68,7.6,30.72,0l159.48-134.28c6.7-5.66,16.74-4.8,22.39,1.92
				c5.65,6.71,4.79,16.74-1.92,22.39L538.61,471.25C528.23,479.99,515.5,484.36,502.78,484.36z"/>
		</g>
	</g>
	<g>
		<g>
			<circle class="st2" cx="280.36" cy="470.29" r="77.92"/>
			<path class="st0" d="M280.36,560.12c-49.54,0-89.84-40.3-89.84-89.84c0-49.53,40.3-89.84,89.84-89.84s89.84,40.3,89.84,89.84
				C370.19,519.82,329.9,560.12,280.36,560.12z M280.36,404.28c-36.4,0-66,29.61-66,66s29.61,66.01,66,66.01s66-29.61,66-66.01
				S316.75,404.28,280.36,404.28z"/>
		</g>
	</g>
	<path class="st0" d="M284.51,427.72l8.92,23.25h25.93c3.97,0,5.77,4.96,2.72,7.51l-20.32,16.93l7.28,25.48
		c1.03,3.59-2.75,6.66-6.06,4.92l-22.48-11.82l-22.89,12.03c-3.24,1.7-6.98-1.22-6.1-4.78l6.55-26.47l-19.3-16.33
		c-3.02-2.55-1.21-7.49,2.74-7.49h26.54l8.57-23.19C278.03,424.21,283.07,424.17,284.51,427.72z"/>
	<g>
		<path class="st0" d="M102.96,458.96c-6.58,0-11.92-5.33-11.92-11.92c0-64.54,38.41-122.49,97.87-147.63
			c6.07-2.58,13.05,0.28,15.62,6.33c2.56,6.06-0.27,13.05-6.34,15.62c-50.61,21.41-83.31,70.74-83.31,125.68
			C114.88,453.63,109.54,458.96,102.96,458.96z"/>
		<path class="st0" d="M155.82,452.95c-0.26,0-0.51-0.01-0.77-0.02c-6.57-0.42-11.55-6.09-11.13-12.66
			c2.3-35.82,25.15-70.67,58.2-88.78c5.76-3.16,13.02-1.06,16.18,4.72c3.17,5.77,1.05,13.01-4.72,16.18
			c-26.08,14.29-44.08,41.53-45.87,69.4C167.31,448.11,162.06,452.95,155.82,452.95z"/>
	</g>
</g>
</svg>
