<?xml version="1.0" encoding="utf-8"?>
<!-- Generator: Adobe Illustrator 23.0.1, SVG Export Plug-In . SVG Version: 6.00 Build 0)  -->
<svg version="1.1" id="Layer_1" xmlns="http://www.w3.org/2000/svg" xmlns:xlink="http://www.w3.org/1999/xlink" x="0px" y="0px"
	 viewBox="0 0 884.62 884.63" style="enable-background:new 0 0 884.62 884.63;" xml:space="preserve">
<style type="text/css">
	.st0{fill:#0095DA;}
	.st1{fill:#21409A;}
	.st2{fill:#53B7E8;}
	.st3{fill:#FFFFFF;}
</style>
<g>
	<path class="st0" d="M101.1,707.33c-7.5,0-14.89-3.51-19.56-10.11c-124.76-176.21-104.51-414.9,48.14-567.55
		C282.33-22.97,521.02-43.23,697.22,81.54c10.79,7.64,13.35,22.58,5.7,33.37s-22.58,13.35-33.37,5.7
		C512.44,9.38,299.63,27.44,163.53,163.53C27.43,299.63,9.38,512.45,120.61,669.56c7.64,10.79,5.09,25.73-5.7,33.37
		C110.71,705.91,105.87,707.33,101.1,707.33z"/>
	<path class="st1" d="M442.76,884.63c-88.79,0-178.07-26.82-255.35-81.54c-10.79-7.64-13.35-22.58-5.7-33.37
		c7.64-10.78,22.57-13.36,33.37-5.7C372.19,875.25,585,857.19,721.09,721.1c136.1-136.11,154.15-348.92,42.92-506.03
		c-7.64-10.79-5.09-25.73,5.7-33.37c10.8-7.65,25.74-5.08,33.37,5.7c124.76,176.21,104.51,414.9-48.14,567.55
		C669.25,840.66,556.41,884.63,442.76,884.63z"/>
</g>
<g>
	<g>
		<path class="st0" d="M446.06,712.43c-3.34,0-6.69-1.05-9.52-3.15l-86.02-63.89c-66.32-49.26-105.91-127.97-105.91-210.57V298.7
			c0-23.75,15.99-44.77,38.88-51.11l158.3-43.86c2.79-0.77,5.74-0.77,8.53,0l158.29,43.86c22.89,6.34,38.88,27.36,38.88,51.11
			v136.12c0,82.6-39.59,161.32-105.9,210.57l-86.02,63.89C452.76,711.38,449.41,712.43,446.06,712.43z M446.06,235.67l-154.04,42.67
			c-9.12,2.53-15.48,10.9-15.48,20.36v136.12c0,72.55,34.77,141.69,93.02,184.95l76.5,56.82l76.5-56.82
			c58.24-43.26,93.01-112.4,93.01-184.95V298.7c0-9.46-6.37-17.83-15.48-20.36L446.06,235.67z"/>
	</g>
</g>
<g>
	<g>
		<path class="st1" d="M310.4,378.72c-1.87,4.59-0.77,8.14,4.38,12.2c9.99,7.88,14.69,10.48,45.83,22.97
			c34.1,13.67,70.91,24.66,90.14,32.37l22.46,9.01c18.42,7.39,37.54,10.13,58.13,11.2c15.82,0.82,40.07-1.5,40.07-1.5
			c1.78-0.07,3.45-1.05,4.47-2.62h0c1.97-3.03,0.85-7.08-2.3-8.34l-14.06-5.64l25.89-21.07c1.5-1.22,1.23-3.63-0.48-4.31L574,421.16
			c-0.49-0.2-1.04-0.21-1.55-0.05l-47.61,13.37l-154.72-62.04c-12.39-4.97-24.54-4.3-37.91-1.93c-4.04,0.71-10.36,1.01-15.57,2.77
			C313.97,374.17,311.73,375.48,310.4,378.72z"/>
		<path class="st1" d="M411.95,401.01l49.14,13.97c5.19,1.48,10.61,1.35,15.11-0.36l103.45-39.26c2.24-1.34,1.25-4.37-1.7-5.21
			l-27.94-3.45c-0.94-0.27-1.92-0.25-2.74,0.06l-135.92,29.04C408.25,396.45,408.66,400.07,411.95,401.01z"/>
		<path class="st0" d="M529.13,534.57H352.8c-11.02,0-19.95-8.93-19.95-19.95c0-11.02,8.93-19.95,19.95-19.95h176.33
			c11.02,0,19.95,8.93,19.95,19.95C549.08,525.64,540.15,534.57,529.13,534.57z"/>
	</g>
</g>
</svg>
