<?xml version="1.0" encoding="utf-8"?>
<!-- Generator: Adobe Illustrator 23.0.1, SVG Export Plug-In . SVG Version: 6.00 Build 0)  -->
<svg version="1.1" id="Layer_1" xmlns="http://www.w3.org/2000/svg" xmlns:xlink="http://www.w3.org/1999/xlink" x="0px" y="0px"
	 viewBox="0 0 908.86 908.86" style="enable-background:new 0 0 908.86 908.86;" xml:space="preserve">
<style type="text/css">
	.st0{fill:#FFFFFF;}
	.st1{fill:#0094D9;}
	.st2{fill:#224099;}
	.st3{fill:#1C93D1;}
	.st4{clip-path:url(#SVGID_2_);}
	.st5{fill:#ED3A7B;}
	.st6{fill:#CF1C5D;}
	.st7{clip-path:url(#SVGID_4_);fill:#F4DC37;}
	.st8{clip-path:url(#SVGID_4_);fill:#CD2027;}
	.st9{clip-path:url(#SVGID_6_);fill:#224099;}
	.st10{clip-path:url(#SVGID_6_);fill:#CD2027;}
	.st11{font-family:'Baloo';}
	.st12{font-size:126.5579px;}
	.st13{fill:#0058A1;}
	.st14{fill:#F8A01B;}
	.st15{fill:#009BD9;}
	.st16{fill:#263C82;}
	.st17{fill:#272D68;}
	.st18{fill:#EC1C24;}
	.st19{fill:#F89D1C;}
	.st20{fill:#F05623;}
	.st21{fill:#353535;}
	.st22{fill:#FCB912;}
	.st23{fill:#4C7ABC;}
	.st24{fill:#5F6368;}
	.st25{fill:#ED342F;}
	.st26{fill:#00AC4E;}
	.st27{fill:#F6921E;}
	.st28{fill:#176BB4;}
	.st29{fill:#15467B;}
	.st30{fill:#B57C2B;}
</style>

<path class="st2" d="M277.02,492.76c-11.32,0-20.5-9.18-20.5-20.5V305.31c0-11.32,9.18-20.5,20.5-20.5s20.5,9.18,20.5,20.5v4.01
	c0,3.51,2.86,6.37,6.37,6.37h365.1c11.32,0,20.5,9.18,20.5,20.5v85.38c0,11.32-9.18,20.5-20.5,20.5c-11.32,0-20.5-9.18-20.5-20.5
	v-64.88h-344.6c-2.16,0-4.29-0.14-6.37-0.42v116.01C297.52,483.59,288.34,492.76,277.02,492.76z"/>
<path class="st2" d="M641.3,624.31H379.28c-11.32,0-20.5-9.18-20.5-20.5s9.18-20.5,20.5-20.5H641.3c3.97,0,7.2-3.23,7.2-7.2V507.1
	c0-11.32,9.18-20.5,20.5-20.5c11.32,0,20.5,9.18,20.5,20.5v69.02C689.49,602.69,667.87,624.31,641.3,624.31z"/>
<path class="st2" d="M668.99,356.68H307.9c-28.33,0-51.38-23.04-51.38-51.37s23.05-51.38,51.38-51.38h332.06
	c27.31,0,49.53,22.22,49.53,49.53v32.72C689.49,347.5,680.32,356.68,668.99,356.68z M307.9,294.92c-5.72,0-10.38,4.66-10.38,10.38
	s4.66,10.38,10.38,10.38H648.5v-12.23c0-4.71-3.83-8.53-8.53-8.53H307.9z"/>
<path class="st2" d="M692.96,513.12h-87.93c-11.32,0-20.5-9.18-20.5-20.5v-55.58c0-11.32,9.18-20.5,20.5-20.5h87.93
	c11.32,0,20.5,9.18,20.5,20.5v55.58C713.45,503.94,704.28,513.12,692.96,513.12z M625.52,472.12h46.94v-14.59h-46.94V472.12z"/>
<path class="st1" d="M278.49,689.55c-62.17,0-112.74-50.58-112.74-112.74s50.57-112.74,112.74-112.74
	c62.16,0,112.74,50.58,112.74,112.74S340.66,689.55,278.49,689.55z M278.49,496.86c-44.08,0-79.94,35.86-79.94,79.94
	s35.87,79.94,79.94,79.94s79.94-35.86,79.94-79.94S322.57,496.86,278.49,496.86z"/>
<text transform="matrix(1 0 0 1 243.0883 615.389)" class="st1 st11 st12">$</text>
</svg>
