<?xml version="1.0" encoding="utf-8"?>
<!-- Generator: Adobe Illustrator 23.0.1, SVG Export Plug-In . SVG Version: 6.00 Build 0)  -->
<svg version="1.1" id="Layer_1" xmlns="http://www.w3.org/2000/svg" xmlns:xlink="http://www.w3.org/1999/xlink" x="0px" y="0px"
	 viewBox="0 0 909.32 909.32" style="enable-background:new 0 0 909.32 909.32;" xml:space="preserve">
<style type="text/css">
	.st1{fill:#FFFFFF;}
	.st2{fill:#FFFFFF;}
	.st3{fill:none;stroke:#FFFFFF;stroke-width:2;stroke-linecap:round;stroke-linejoin:round;stroke-miterlimit:10;}
	.st4{fill:none;stroke:#FFFFFF;stroke-width:2;stroke-linecap:round;stroke-linejoin:round;stroke-miterlimit:10;}
	.st5{fill:#FFFFFF;}
</style>
<g>
	<path class="st1" d="M178,499.54c-3.64,0-7.3-1.2-10.34-3.67c-7.03-5.72-8.1-16.05-2.39-23.08l196.18-241.41
		c5.72-7.03,16.06-8.09,23.08-2.39c7.03,5.72,8.1,16.05,2.39,23.08L190.74,493.48C187.49,497.47,182.76,499.54,178,499.54z"/>
	<path class="st1" d="M241.95,485.97c-3.64,0-7.3-1.2-10.34-3.67l-63.76-51.81c-7.03-5.72-8.1-16.05-2.39-23.08
		c5.72-7.03,16.06-8.09,23.08-2.39l63.76,51.81c7.03,5.72,8.1,16.05,2.39,23.08C251.45,483.9,246.72,485.97,241.95,485.97z"/>
	<path class="st1" d="M389.03,270.2c-3.75,0-7.41-1.29-10.35-3.68l-29.7-24.14c-7.03-5.71-8.09-16.05-2.38-23.07l67-82.45
		c5.88-7.23,14.21-11.74,23.48-12.7c9.25-0.95,18.34,1.75,25.57,7.63l1.03,0.84c14.92,12.13,17.2,34.13,5.09,49.06l-67.01,82.46
		c-2.74,3.38-6.72,5.53-11.05,5.97C390.15,270.17,389.59,270.2,389.03,270.2z M382.41,227.27l4.24,3.44L443.31,161
		c0.71-0.88,0.58-2.18-0.3-2.9l-1.03-0.84c-0.88-0.72-2.19-0.59-2.9,0.29L382.41,227.27z"/>
</g>
<g>
	<path class="st1" d="M230.8,680.1c-8.99,0-17.84-3.1-24.87-8.81l0,0l-14.27-11.6c-8.29-6.74-13.55-16.71-14.41-27.35
		c-0.87-10.77,2.6-21.16,9.78-29.24c29.46-33.16,101.68-114.86,136-157.09c20.21-24.86,67.87-88.91,109.93-145.42
		c23.23-31.21,45.17-60.69,58.23-77.82c10.49-13.75,25.62-23.13,42.62-26.43c0.45-0.09,0.9-0.16,1.36-0.2l30.78-3.34
		c4.36-0.47,8.72,0.82,12.12,3.58l4.89,3.97c3.4,2.76,5.56,6.77,5.98,11.13l3.11,31.68c0.08,0.74,0.1,1.49,0.07,2.24
		c-0.62,15.94-6.7,31.35-17.12,43.4c-15.24,17.61-43.42,48.87-73.26,81.97c-44.25,49.08-94.41,104.72-113.51,128.22
		c-34.41,42.34-99.55,129.68-125.96,165.26c-6.44,8.68-15.89,14.21-26.62,15.56C234.02,680,232.41,680.1,230.8,680.1z
		 M226.61,645.82c1.89,1.53,3.89,1.55,4.93,1.42c1.01-0.13,2.93-0.63,4.36-2.56c26.54-35.76,92.03-123.56,126.84-166.4
		c19.63-24.16,70.08-80.12,114.6-129.5c29.72-32.97,57.8-64.11,72.82-81.47c5.34-6.18,8.55-14.02,9.09-22.19l-1.81-18.42
		l-18.01,1.95c-8.84,1.87-16.7,6.83-22.17,14c-12.95,16.97-34.83,46.38-58,77.51c-42.25,56.77-90.14,121.12-110.78,146.52
		c-33.48,41.2-100.16,116.8-136.93,158.19c-1.59,1.79-1.69,3.77-1.61,4.79c0.08,1.03,0.5,3,2.4,4.54L226.61,645.82z"/>
	<path class="st1" d="M410.71,459.28c-3.75,0-7.41-1.29-10.35-3.67l-37.83-30.74c-3.38-2.74-5.53-6.72-5.97-11.05
		c-0.45-4.33,0.84-8.66,3.58-12.03l17.04-20.96c5.72-7.03,16.06-8.09,23.08-2.39l37.83,30.74c7.03,5.72,8.1,16.05,2.39,23.08
		l-17.03,20.96c-2.74,3.38-6.72,5.53-11.05,5.97C411.84,459.25,411.27,459.28,410.71,459.28z"/>
	<path class="st1" d="M345.86,539.07c-3.64,0-7.3-1.2-10.34-3.67l-37.83-30.74c-7.03-5.72-8.1-16.05-2.39-23.08l17.03-20.96
		c2.74-3.38,6.72-5.53,11.05-5.97c4.3-0.46,8.66,0.84,12.03,3.58l37.83,30.74c3.38,2.74,5.53,6.72,5.97,11.05
		c0.45,4.33-0.84,8.66-3.58,12.03l-17.04,20.96C355.35,537,350.62,539.07,345.86,539.07z"/>
</g>
<g>
	<path class="st1" d="M406.3,818.68c-3.64,0-7.3-1.2-10.34-3.67c-7.03-5.72-8.1-16.05-2.39-23.08l196.18-241.41
		c5.72-7.03,16.06-8.09,23.08-2.39c7.03,5.72,8.1,16.05,2.39,23.08L419.04,812.62C415.8,816.61,411.07,818.68,406.3,818.68z"/>
	<path class="st1" d="M470.25,805.12c-3.64,0-7.3-1.2-10.34-3.67l-63.75-51.81c-7.03-5.72-8.1-16.05-2.39-23.08
		c5.72-7.03,16.06-8.09,23.08-2.39l63.75,51.81c7.03,5.72,8.1,16.05,2.39,23.08C479.74,803.05,475.01,805.12,470.25,805.12z"/>
	<path class="st1" d="M617.33,589.34c-3.64,0-7.3-1.2-10.34-3.67l-29.7-24.14c-3.38-2.74-5.53-6.72-5.97-11.05
		c-0.45-4.33,0.84-8.66,3.58-12.03L641.91,456c5.87-7.23,14.21-11.74,23.48-12.7c9.29-0.97,18.36,1.75,25.58,7.62l1.03,0.84
		c14.93,12.13,17.21,34.14,5.08,49.06l-67,82.45C626.82,587.27,622.09,589.34,617.33,589.34z M610.71,546.41l4.24,3.44l56.66-69.72
		c0.72-0.89,0.58-2.18-0.3-2.9l-1.03-0.84c-0.44-0.36-0.94-0.49-1.52-0.46c-0.56,0.06-1.03,0.31-1.39,0.75L610.71,546.41z"/>
</g>
<g>
	<path class="st1" d="M363.04,726.06c-8.99,0-17.84-3.1-24.87-8.81l0,0l-14.27-11.6c-8.29-6.74-13.54-16.7-14.41-27.34
		c-0.87-10.77,2.6-21.16,9.78-29.24c29.41-33.12,101.56-114.71,136-157.1c20.2-24.86,67.86-88.9,109.91-145.39
		c23.24-31.23,45.19-60.72,58.25-77.85c10.48-13.74,25.62-23.13,42.62-26.43c0.45-0.09,0.9-0.16,1.35-0.2l30.77-3.34
		c4.38-0.46,8.73,0.81,12.12,3.58l4.89,3.98c3.4,2.76,5.55,6.77,5.98,11.13l3.11,31.68c0.08,0.74,0.1,1.49,0.07,2.24
		c-0.62,15.94-6.7,31.35-17.12,43.4c-15.24,17.62-43.45,48.9-73.31,82.02c-44.23,49.06-94.37,104.67-113.46,128.17
		c-34.37,42.3-99.54,129.66-125.96,165.26c-6.44,8.68-15.89,14.21-26.62,15.56C366.27,725.96,364.65,726.06,363.04,726.06z
		 M358.86,691.79c1.89,1.54,3.9,1.55,4.93,1.42c1.01-0.13,2.93-0.63,4.36-2.56c26.55-35.78,92.06-123.6,126.84-166.4
		c19.62-24.15,70.06-80.09,114.56-129.45c29.74-32.99,57.84-64.16,72.86-81.52c5.35-6.18,8.56-14.02,9.1-22.19l-1.81-18.42l-18,1.96
		c-8.85,1.87-16.7,6.82-22.17,14c-12.95,16.97-34.84,46.39-58.02,77.54c-42.24,56.76-90.12,121.09-110.76,146.49
		c-34.85,42.89-107.37,124.92-136.94,158.19c-1.59,1.79-1.69,3.77-1.61,4.79c0.08,1.03,0.51,3,2.4,4.53L358.86,691.79z"/>
	<path class="st1" d="M542.95,505.24c-3.75,0-7.41-1.29-10.35-3.67l-37.83-30.74c-7.03-5.72-8.1-16.05-2.39-23.08l17.03-20.96
		c2.74-3.38,6.72-5.53,11.05-5.97c4.32-0.46,8.66,0.84,12.03,3.58l37.83,30.74c7.03,5.72,8.1,16.05,2.39,23.08l-17.03,20.96
		c-2.74,3.38-6.72,5.53-11.05,5.97C544.08,505.21,543.51,505.24,542.95,505.24z"/>
	<path class="st1" d="M478.11,585.04c-3.75,0-7.41-1.29-10.35-3.67l-37.83-30.74c-3.38-2.74-5.53-6.72-5.97-11.05
		c-0.45-4.33,0.84-8.66,3.58-12.03l17.04-20.96c5.72-7.03,16.06-8.09,23.08-2.39l37.83,30.74c7.03,5.72,8.1,16.05,2.39,23.08
		l-17.03,20.96c-2.74,3.38-6.72,5.53-11.05,5.97C479.24,585.01,478.67,585.04,478.11,585.04z"/>
</g>
</svg>
