<?xml version="1.0" encoding="utf-8"?>
<!-- Generator: Adobe Illustrator 23.0.1, SVG Export Plug-In . SVG Version: 6.00 Build 0)  -->
<svg version="1.1" id="Layer_1" xmlns="http://www.w3.org/2000/svg" xmlns:xlink="http://www.w3.org/1999/xlink" x="0px" y="0px"
	 viewBox="0 0 909.32 909.32" style="enable-background:new 0 0 909.32 909.32;" xml:space="preserve">
<style type="text/css">
	.st0{fill:#0094D9;}
	.st1{fill:#224099;}
	.st2{fill:#FFFFFF;}
	.st3{fill:none;stroke:#224099;stroke-width:2;stroke-linecap:round;stroke-linejoin:round;stroke-miterlimit:10;}
	.st4{fill:none;stroke:#FFFFFF;stroke-width:2;stroke-linecap:round;stroke-linejoin:round;stroke-miterlimit:10;}
	.st5{fill:#1E4497;}
</style>
<g>
	<g>
		<path class="st0" d="M103.92,727.08c-7.71,0-15.31-3.61-20.1-10.39C-44.43,535.56-23.62,290.21,133.3,133.3
			C290.2-23.62,535.57-44.43,716.69,83.82c11.09,7.85,13.72,23.21,5.86,34.3c-7.85,11.1-23.21,13.72-34.3,5.86
			C526.76,9.65,308,28.2,168.09,168.1C28.19,308,9.64,526.75,123.98,688.25c7.85,11.09,5.23,26.45-5.86,34.3
			C113.8,725.61,108.84,727.08,103.92,727.08z"/>
		<path class="st1" d="M455.12,909.32c-91.27,0-183.04-27.57-262.48-83.81c-11.09-7.85-13.72-23.21-5.86-34.3
			c7.85-11.1,23.21-13.72,34.3-5.86c161.5,114.34,380.25,95.79,520.16-44.11c139.9-139.9,158.45-358.66,44.11-520.16
			c-7.85-11.09-5.23-26.45,5.86-34.3c11.09-7.87,26.45-5.23,34.3,5.86c128.25,181.13,107.44,426.48-49.48,583.39
			C687.94,864.12,571.94,909.32,455.12,909.32z"/>
	</g>
</g>
<g>
	<path class="st0" d="M549.18,701.01c-53.87,0-115.42-0.47-152.5-0.75c-19.11-0.14-31.75-0.23-33.58-0.2v-0.13
		c-10.77,0.84-41,0.15-41.32,0.13c-10.31-0.54-18.5-4.92-21.91-11.73c-3.04-6.08-1.09-13.71,0.34-17.73
		c2.07-5.84,7.49-16.51,20.46-22.37c3.54-1.6,6.92-2.14,9.87-2.18c0.35-10.06,0.09-28.56-0.56-36.51
		c-0.83-10.18-9.65-67.75-10.74-72.54c-0.62-2.73-3-6.58-4.75-9.4c-0.72-1.17-1.38-2.23-1.92-3.18c-2.29-4-9.91-22.54-13.37-31.06
		c-4.56-8.29-6.62-12.32-7.61-14.58l-0.25-0.33c-3.04-4.03-10.16-13.47-17.48-31.75c-9.04-22.59-10.09-41.37-10.44-47.53l-0.05-0.83
		c-0.26-4.1,0.97-8.09,2.84-14.13c1.82-5.89,4.08-13.22,4.91-20.96c0.84-7.83-3.94-14.84-7.17-19.12
		c-10.89,6.75-23.7,4.73-33.55-1.22c-14.52-1.4-30.35-14.35-34.7-23.84c-2.75-5.99-3.68-12.13-3.99-15.74
		c-4.75-4.88-3.84-11.89-3.36-15.52c0.07-0.57,0.16-1.11,0.18-1.57c0-3.7,1.59-12.83,16.15-14.86c2.48-1.17,9.19-4.71,26.2-14.21
		c-0.01-7.18,3.85-16.93,6.75-21.29c3.85-5.78,11.53-8.85,17.55-10.44c0.87-0.55,1.95-1.25,3.31-2.14
		c13.68-8.89,32.63-12.1,46.12-13.22c17.66-1.56,34.77,13.45,38.01,16.45c0.77,0.71,1.44,1.53,2.01,2.41
		c1.44,2.24,3.74,4.99,4.91,5.9c8.21,3.07,18.72,12.82,23.97,20.37c0.61,0.88,62.39,90.18,66.34,97.64
		c5.27,7.81,82.18,94.78,99.82,114.15c15.34,16.84,38.73,41.61,38.73,41.61c12.74,15.04,52.1,66.3,46.36,119.67
		c0.82,6.24,2.56,13.15,4.13,16.69c16.53-1.39,24.96-9.69,32.38-31.08c4.67-13.45,0.69-37.29-4.27-45.13
		c-2.42-3.83-10.61-9.33-17.19-13.75c-7.77-5.21-15.1-10.14-19.76-15.92c-3.78-4.67-6.59-13.66-3.84-22.34
		c1.86-5.87,6.83-13.66,19.95-17.39c21.21-6.04,47.4-2.55,62.74,3.26c15.98,6.04,37.19,25.23,44.49,40.24
		c11.2,23.02,13.59,63.92-7.66,99.32c-22.39,37.32-56.49,56.88-101.35,58.13C614.6,700.82,583.44,701.01,549.18,701.01z
		 M369.25,675.48c5.38,0,13.87,0.06,27.62,0.17c60.51,0.46,186.42,1.43,236.8,0.02c36.42-1.02,62.9-16.13,80.94-46.19
		c17.65-29.42,13.64-61.51,6.64-75.9c-4.14-8.5-20.25-23.9-31.07-27.99c-11.76-4.45-32.33-6.87-47.29-2.61
		c-1.64,0.47-2.62,0.97-3.1,1.3c2.7,2.85,8.54,6.77,13.73,10.26c9.38,6.3,19.07,12.81,24.26,21.01
		c9.08,14.33,13.89,45.75,6.73,66.36c-7.56,21.79-21.07,46.92-58.74,47.81c-18.62,0.49-23.96-24.93-25.63-40.09
		c-0.11-0.95-0.1-1.91,0.02-2.86c4.34-34.97-17.87-75.52-40.09-101.8l0,0c-0.02,0-23.27-24.64-38.59-41.44
		c-0.96-1.06-98.39-109.79-103.38-119.21c-3.58-6.36-55.87-82.27-64.79-95.11c-3.23-4.65-9.99-10.37-12.36-11.36
		c-7.14-2.37-13.1-9.86-16.07-14.21c-5.03-4.29-13.47-9.45-18.21-9.08c-15.09,1.26-27.43,4.57-34.75,9.34
		c-4.25,2.76-9.07,5.89-13.71,6.42c-0.24,0.1-0.47,0.2-0.68,0.3c-0.89,1.96-1.95,5.22-2.05,6.54c0.92,11.43-4.61,17.07-9.41,19.69
		l-3.06,1.7c-16.73,9.35-24.38,13.46-28.43,15.33c0.27,0.61,0.53,1.27,0.8,1.97c0.52,1.38,0.78,2.84,0.78,4.32
		c0.02,1.22,0.4,5.34,1.91,8.62c1.85,3.32,10.93,9.64,14.74,9.62c3.2-0.4,6.35,0.5,8.89,2.44c0.07,0.06,6.65,5.03,10.32,1.5
		c3.46-3.29,8.49-4.77,14.19-4.2c6.5,0.67,12.13,3.79,15.44,8.57l0.92,1.21c4.1,5.34,14.99,19.52,13.03,37.91
		c-1.09,10.11-3.85,19.07-5.86,25.6c-0.68,2.19-1.5,4.86-1.75,6.07l0.01,0.26c0.29,5.17,1.18,20.92,8.72,39.77
		c6.1,15.23,11.83,22.83,14.27,26.07c1.31,1.73,2.56,3.38,3.3,5.64c0.88,1.88,4.12,7.96,6.81,12.85c0.24,0.42,0.44,0.86,0.62,1.31
		c4.88,12.02,10.95,26.46,12.24,28.83c0.4,0.69,0.91,1.51,1.46,2.4c2.65,4.29,6.28,10.16,7.81,16.89
		c1.57,6.9,10.44,65.75,11.27,76.01c0.4,4.9,3.68,48.16-3.56,56.41l-0.82,0.97c-1.85,2.21-5.71,6.81-12.56,6.81
		c-1.85,0-3.34-0.38-4.53-0.68c-0.65-0.17-1.88-0.47-2.28-0.4c-2.66,1.2-4.47,3.06-5.68,4.88c8.32,0.19,33.6,0.15,36.4-0.02l0,0.08
		C362.88,675.52,365.16,675.48,369.25,675.48z M639.61,524.41c-0.08,0.06-0.14,0.11-0.17,0.15
		C639.54,524.53,639.6,524.48,639.61,524.41z M287.93,397.83L287.93,397.83L287.93,397.83z M287.94,396.77l0,0.07
		C287.95,396.82,287.94,396.8,287.94,396.77z M207.16,284.37c0.01,0.01,0.02,0.01,0.03,0.02
		C207.18,284.39,207.17,284.38,207.16,284.37z M234.27,255.25c-0.03,0.02-0.06,0.04-0.1,0.05L234.27,255.25z M256.69,251.06
		L256.69,251.06L256.69,251.06z M348.88,234.56c0,0,0.01,0,0.02,0.01C348.89,234.57,348.88,234.57,348.88,234.56z"/>
	<g>
		<path class="st1" d="M393.86,610.75c-4.68-8.94-8.25-26.41-17.33-35.76c-9.08-9.35-25.03-26.96-25.86-36.59
			c-0.83-9.63-0.83-20.91-1.93-25.03c-1.1-4.13-1.93-7.7-1.65-14.85c0.28-7.15,1.93-26.41,1.93-26.41s-16.44-5.02-20.08-6.88
			c-4.94-2.52-11.98-29.25-10.45-29.43c3.04,1.28,17.24-16.97,22.28-21.18c7.81-6.53,27.82-8.12,27.78-7.15l12.93-28.61
			c15.66,8.48,20.87,25.51,20.91,46.77c7.65,9.95,8.22,22.46,6.6,35.76c0,0,5.23,9.66,7.98,12.47c5.57,5.7,27.23,16.69,27.23,16.69
			l24.21,7.15c35.29,7.18,58.5,31.81,70.7,72.35c15.85,27.91,23.56,55.57,23.9,87.2c0,0-0.2,21.3,18.02,9.91
			c14.3-8.94,16.77-27.89-7.43-55.29c-13.06-14.79-18.18-36.07-16.9-54.27c1.35-19.11,8.47-17.87,15.64-15.38
			c5.9,2.05,7.22,8.62,7.46,19.68c0.51,23.58,7.15,30.05,15.81,40.34c11.51,13.67,29.71,44.31,16.23,69.6
			c-6.44,12.08-24.02,26.02-33.61,26.04c-53.37,0.13-147.55,0.31-197.89-0.06c-3.28-2.69-4.35-16.08,3.35-18.28
			c7.7-2.2,12.62-4.09,12.73-10.31C396.55,660.95,394.76,612.47,393.86,610.75z"/>
		<path class="st1" d="M465.87,702.12c-36.81,0-65.43-0.07-85.57-0.22c-0.94-0.01-1.84-0.34-2.57-0.93
			c-3.62-2.96-4.66-10.16-3.57-15.4c1.06-5.13,4.12-8.77,8.4-9.99c8.36-2.38,9.71-3.64,9.76-6.44c0.14-8.67-1.51-51.58-2.33-56.96
			c-1.58-3.14-3.01-7.03-4.51-11.15c-3.01-8.23-6.43-17.57-11.88-23.19c-17.21-17.74-26.3-30.89-27-39.09
			c-0.32-3.75-0.52-7.75-0.7-11.48c-0.26-5.27-0.53-10.72-1.1-12.84c-1.19-4.46-2.07-8.48-1.79-16.07
			c0.21-5.44,1.18-17.46,1.66-23.31c-5.12-1.6-14.65-4.67-17.59-6.17c-6.96-3.55-13.46-29.85-12.8-33.51
			c0.32-1.78,1.94-3.43,3.74-3.64c0.12-0.02,0.24-0.02,0.37-0.03c2.3-1.44,8.23-8.01,11.5-11.63c3.36-3.72,6.26-6.93,8.26-8.6
			c6.53-5.46,20.49-8.21,27.86-8.31l11.75-26c0.47-1.04,1.35-1.83,2.43-2.19c1.08-0.36,2.26-0.26,3.26,0.28
			c15.19,8.23,22.73,24.27,23.04,49.01c8.09,11.42,7.98,25.18,6.74,36.3c2.1,3.78,5.22,8.93,6.68,10.43
			c4.18,4.28,20.3,12.93,26.15,15.9l23.52,6.88c35.71,7.25,60.5,32.39,73.33,74.66c16.18,28.61,23.87,56.84,24.2,88.78
			c-0.01,2.27,0.77,7.54,3.11,8.84c1.64,0.91,4.78,0.04,8.63-2.37c4.98-3.11,7.89-7.35,8.66-12.58c0.99-6.77-1.16-18.6-16.98-36.52
			c-12.73-14.42-19.43-35.83-17.92-57.27c0.7-10.02,3.03-16.01,7.32-18.83c4.88-3.22,10.65-1.21,13.75-0.13
			c9.03,3.14,10,13.31,10.22,23.46c0.45,20.82,5.61,26.9,13.41,36.09l1.43,1.7c15.89,18.86,29.8,49.61,16.72,74.17
			c-6.76,12.67-25.26,28.19-37.22,28.21C534.91,702.07,497.39,702.12,465.87,702.12z M382.54,693.71
			c37.75,0.26,103.56,0.28,195.67,0.04c7.24-0.02,23.7-12.05,30-23.87c14.69-27.57-12.59-61.27-15.75-65.02l-1.41-1.67
			c-8.29-9.77-14.84-17.5-15.36-41.22c-0.26-11.96-1.99-14.95-4.71-15.89c-2.62-0.91-5.23-1.63-6.54-0.77
			c-0.88,0.58-2.98,2.96-3.66,12.56c-1.34,19.01,4.75,38.65,15.89,51.26c14.37,16.28,20.74,30.79,18.95,43.13
			c-1.11,7.62-5.41,13.97-12.42,18.36c-6.76,4.23-12.47,5.09-16.99,2.57c-7.2-4.04-7.31-14.78-7.3-15.99
			c-0.32-30.56-7.75-57.64-23.36-85.13c-0.15-0.27-0.28-0.55-0.36-0.85c-12.02-39.97-34.13-62.71-67.59-69.51l-24.55-7.24
			c-2.97-1.43-23.13-11.74-29.01-17.76c-3-3.07-7.73-11.68-8.65-13.38c-0.41-0.75-0.57-1.61-0.47-2.45
			c1.83-15.08,0.05-25.18-5.78-32.77c-0.55-0.72-0.85-1.59-0.85-2.49c-0.04-20.2-4.83-33.32-15-40.79l-10.99,24.32
			c-0.8,1.78-2.78,2.74-4.67,2.3c-0.18-0.04-0.35-0.09-0.52-0.16c-3.5-0.21-18.11,1.79-23.7,6.46c-1.56,1.3-4.55,4.61-7.43,7.81
			c-6.32,7-10.28,11.19-13.33,13.14c1.17,6.3,5.91,20.94,8.37,23c2.21,1.11,12.99,4.58,19.21,6.48c1.85,0.56,3.05,2.34,2.89,4.27
			c-0.02,0.19-1.64,19.25-1.91,26.22c-0.24,6.47,0.44,9.6,1.52,13.64c0.79,2.96,1.04,8.07,1.36,14.55
			c0.18,3.64,0.37,7.54,0.68,11.19c0.51,5.91,9.75,18.65,24.72,34.08c6.67,6.87,10.4,17.07,13.7,26.08
			c1.49,4.07,2.9,7.91,4.32,10.64l0,0c1.89,3.6,3.03,59.9,3.02,60.43c-0.16,9.75-8.78,12.21-15.7,14.19
			c-0.41,0.12-1.67,0.48-2.41,2.94C381.6,689.05,382,692.1,382.54,693.71z"/>
	</g>
</g>
</svg>
