<?xml version="1.0" encoding="utf-8"?>
<!-- Generator: Adobe Illustrator 23.1.0, SVG Export Plug-In . SVG Version: 6.00 Build 0)  -->
<svg version="1.1" id="Layer_1" xmlns="http://www.w3.org/2000/svg" xmlns:xlink="http://www.w3.org/1999/xlink" x="0px" y="0px"
	 viewBox="0 0 500 500" style="enable-background:new 0 0 500 500;" xml:space="preserve">
<style type="text/css">
	.st0{fill:#0094D9;}
	.st1{fill:#224099;}
</style>
<g>
	<g>
		<path class="st0" d="M57.8,398.9c-4.2,0-8.4-2-11-5.7c-70.2-99.1-58.8-233.4,27.1-319.3C159.7-11.9,294-23.3,393.1,46.9
			c6.1,4.3,7.5,12.7,3.2,18.8s-12.7,7.5-18.8,3.2C289.2,6.3,169.5,16.4,92.9,93C16.3,169.5,6.1,289.3,68.7,377.7
			c4.3,6.1,2.8,14.5-3.2,18.8C63.1,398.1,60.5,398.9,57.8,398.9z"/>
		<path class="st1" d="M250,498.7c-49.9,0-100.2-15.1-143.7-45.9c-6.1-4.3-7.5-12.7-3.2-18.8c4.3-6.1,12.7-7.5,18.8-3.2
			c88.4,62.6,208.1,52.4,284.7-24.1c76.6-76.6,86.7-196.3,24.1-284.6c-4.3-6.1-2.8-14.5,3.2-18.8c6.1-4.3,14.5-2.8,18.8,3.2
			c70.2,99.1,58.8,233.4-27.1,319.3C377.4,474,313.9,498.7,250,498.7z"/>
	</g>
</g>
</svg>
