<?xml version="1.0" encoding="utf-8"?>
<!-- Generator: Adobe Illustrator 22.0.1, SVG Export Plug-In . SVG Version: 6.00 Build 0)  -->
<svg version="1.1" id="Layer_1" xmlns="http://www.w3.org/2000/svg" xmlns:xlink="http://www.w3.org/1999/xlink" x="0px" y="0px"
	 viewBox="0 0 27 23" style="enable-background:new 0 0 27 23;" xml:space="preserve">
<style type="text/css">
	.st0{fill:#1E94D2;}
	.st1{fill:#214497;}
</style>
<g>
	<g>
		<path class="st0" d="M6.6,19.2c-0.3,0-0.5-0.2-0.5-0.5V6.4c0-0.3,0.2-0.5,0.5-0.5C6.8,5.9,7,6.1,7,6.4l0,12.4
			C7.1,19,6.8,19.2,6.6,19.2z"/>
		<path class="st0" d="M20.5,19.2c-0.3,0-0.5-0.2-0.5-0.5V6.4c0-0.3,0.2-0.5,0.5-0.5S21,6.1,21,6.4v12.4C21,19,20.8,19.2,20.5,19.2z
			"/>
		<path class="st0" d="M21.6,9.1h-1.9c-0.3,0-0.5-0.2-0.5-0.5s0.2-0.5,0.5-0.5h1.9c0.3,0,0.5,0.2,0.5,0.5
			C22.1,8.8,21.9,9.1,21.6,9.1z"/>
		<path class="st0" d="M7.5,9.1h-2c-0.3,0-0.5-0.2-0.5-0.5s0.2-0.5,0.5-0.5h2C7.8,8.1,8,8.3,8,8.6S7.8,9.1,7.5,9.1z"/>
		<path class="st1" d="M7.9,20.4c-0.3,0-0.6-0.3-0.6-0.6v-0.2c0-0.3,0.3-0.6,0.6-0.6c0.3,0,0.6,0.3,0.6,0.6v0.2
			C8.5,20.1,8.3,20.4,7.9,20.4z"/>
		<path class="st1" d="M19.1,20.4c-0.3,0-0.6-0.3-0.6-0.6v-0.2c0-0.3,0.3-0.6,0.6-0.6c0.3,0,0.6,0.3,0.6,0.6v0.2
			C19.7,20.1,19.4,20.4,19.1,20.4z"/>
		<path class="st1" d="M5,6.8c-0.3,0-0.5,0.2-0.5,0.5v10.6c0,0.3,0.2,0.5,0.5,0.5l17,0c0.3,0,0.5-0.2,0.5-0.5l0-10.6
			c0-0.3-0.2-0.5-0.5-0.5L5,6.8z M22,19.4l-17,0c-0.8,0-1.5-0.7-1.5-1.5V7.3c0-0.8,0.7-1.5,1.5-1.5l17.1,0c0.8,0,1.5,0.7,1.5,1.5
			v10.6C23.5,18.7,22.8,19.4,22,19.4z"/>
		<path class="st1" d="M17.5,3.6l-8.1,0C9.2,3.6,9,3.4,9,3.1s0.2-0.5,0.5-0.5l8.1,0c0.3,0,0.5,0.2,0.5,0.5S17.8,3.6,17.5,3.6z"/>
		<path class="st1" d="M10.6,6.1c-0.3,0-0.5-0.2-0.5-0.5v-2c0-0.3,0.2-0.5,0.5-0.5s0.5,0.2,0.5,0.5v2C11.1,5.9,10.9,6.1,10.6,6.1z"
			/>
		<path class="st1" d="M16.4,6.1c-0.3,0-0.5-0.2-0.5-0.5v-2c0-0.3,0.2-0.5,0.5-0.5c0.3,0,0.5,0.2,0.5,0.5v2
			C16.9,5.9,16.7,6.1,16.4,6.1z"/>
		<path class="st1" d="M12.6,7.5h1.8V6.9h-1.8V7.5z M14.9,8.5h-2.7c-0.3,0-0.5-0.2-0.5-0.5V6.4c0-0.3,0.2-0.5,0.5-0.5h2.7
			c0.3,0,0.5,0.2,0.5,0.5V8C15.3,8.3,15.1,8.5,14.9,8.5z"/>
		<path class="st1" d="M13.3,13.3l-2.6,0v-0.6l0.9-0.9c0.2-0.2,0.4-0.4,0.5-0.5c0.1-0.1,0.1-0.2,0.2-0.2c0-0.1,0-0.1,0-0.2
			c0-0.1,0-0.2-0.1-0.2c-0.1-0.1-0.1-0.1-0.2-0.1c-0.1,0-0.2,0-0.3,0.1c-0.1,0.1-0.2,0.2-0.4,0.3l-0.5-0.6c0.2-0.2,0.3-0.3,0.5-0.3
			c0.1-0.1,0.3-0.1,0.4-0.2c0.1,0,0.3-0.1,0.5-0.1c0.2,0,0.4,0,0.6,0.1c0.2,0.1,0.3,0.2,0.4,0.3c0.1,0.1,0.1,0.3,0.1,0.5
			c0,0.1,0,0.3-0.1,0.4c0,0.1-0.1,0.2-0.2,0.3s-0.2,0.2-0.3,0.4c-0.1,0.1-0.4,0.4-0.8,0.7v0h1.3V13.3z"/>
		<path class="st1" d="M14.6,11.6c0,0.4,0,0.7,0.1,0.8c0.1,0.1,0.1,0.2,0.2,0.2c0.1,0,0.2-0.1,0.2-0.2c0.1-0.2,0.1-0.4,0.1-0.8
			s0-0.7-0.1-0.8s-0.1-0.2-0.2-0.2c-0.1,0-0.2,0.1-0.2,0.2C14.6,10.9,14.6,11.2,14.6,11.6z M16.2,11.6c0,0.6-0.1,1.1-0.3,1.3
			c-0.2,0.3-0.5,0.4-1,0.4c-0.4,0-0.7-0.1-1-0.4c-0.2-0.3-0.3-0.7-0.3-1.3c0-0.6,0.1-1.1,0.3-1.4c0.2-0.3,0.5-0.4,1-0.4
			c0.4,0,0.7,0.1,1,0.4C16.1,10.6,16.2,11,16.2,11.6z"/>
		<path class="st1" d="M13.4,16.7h-0.7l-0.5-0.9l-0.2,0.1v0.7h-0.6v-2.2h0.6v1c0-0.1,0.1-0.2,0.2-0.3l0.5-0.7h0.7l-0.7,1L13.4,16.7z
			"/>
		<path class="st1" d="M14.6,15.4h1v1.2c-0.3,0.1-0.6,0.1-0.9,0.1c-0.4,0-0.6-0.1-0.8-0.3c-0.2-0.2-0.3-0.5-0.3-0.9
			c0-0.4,0.1-0.6,0.3-0.8c0.2-0.2,0.5-0.3,0.9-0.3c0.1,0,0.3,0,0.4,0c0.1,0,0.2,0.1,0.3,0.1L15.3,15c-0.2-0.1-0.3-0.1-0.5-0.1
			c-0.2,0-0.3,0.1-0.4,0.2c-0.1,0.1-0.1,0.3-0.1,0.5s0,0.4,0.1,0.5c0.1,0.1,0.2,0.2,0.4,0.2c0.1,0,0.2,0,0.2,0v-0.4h-0.4V15.4z"/>
	</g>
</g>
</svg>
