<?xml version="1.0" encoding="utf-8"?>
<!-- Generator: Adobe Illustrator 22.0.1, SVG Export Plug-In . SVG Version: 6.00 Build 0)  -->
<svg version="1.1" id="Layer_1" xmlns="http://www.w3.org/2000/svg" xmlns:xlink="http://www.w3.org/1999/xlink" x="0px" y="0px"
	 viewBox="0 0 27 23" style="enable-background:new 0 0 27 23;" xml:space="preserve">
<style type="text/css">
	.st0{fill:#1E94D2;}
	.st1{fill:#214497;}
</style>
<g>
	<g>
		<path class="st0" d="M9.9,4.5H8.2C8,4.5,7.7,4.2,7.7,4c0-0.3,0.2-0.5,0.5-0.5l1.7,0c0.3,0,0.5,0.2,0.5,0.5
			C10.4,4.2,10.2,4.5,9.9,4.5z"/>
		<path class="st0" d="M10.4,6.3h-1c-0.3,0-0.5-0.2-0.5-0.5s0.2-0.5,0.5-0.5h1c0.3,0,0.5,0.2,0.5,0.5C10.9,6.1,10.7,6.3,10.4,6.3z"
			/>
		<path class="st0" d="M10.7,7.6h-1c-0.3,0-0.5-0.2-0.5-0.5c0-0.3,0.2-0.5,0.5-0.5l1,0c0.3,0,0.5,0.2,0.5,0.5
			C11.2,7.4,11,7.6,10.7,7.6z"/>
		<path class="st1" d="M8.7,10.8c-0.3,0-0.6,0.1-0.8,0.4c-0.2,0.2-0.2,0.4-0.2,0.6l1,5.7c0.1,0.4,0.5,0.7,1,0.7h6.9
			c0.5,0,1-0.4,1-0.9v-5.7c0-0.5-0.4-0.9-1-0.9L8.7,10.8z M16.7,19.5H9.8c-1.1,0-2.1-0.8-2.3-1.8l-1-5.7c-0.1-0.6,0.1-1.2,0.5-1.7
			C7.4,9.7,8,9.4,8.7,9.4l8,0c1.3,0,2.3,1,2.3,2.2v5.7C19,18.5,18,19.5,16.7,19.5z"/>
		<path class="st1" d="M8.8,9.3h2.4L9.7,4.3C9.6,3.9,9.5,3.5,9.5,3.1V2.5C9.5,2.2,9.4,2,9.1,2H7.5C7.3,2,7.1,2.2,7.1,2.5v0.8
			c0,0.2,0,0.4,0.1,0.6L8.8,9.3z M12,10.7H8.3c-0.3,0-0.5-0.2-0.6-0.5l-1.7-6C5.9,3.9,5.8,3.6,5.8,3.2V2.5c0-1,0.8-1.8,1.7-1.8h1.6
			c0.9,0,1.7,0.8,1.7,1.8v0.7c0,0.3,0,0.5,0.1,0.8l1.7,5.9c0.1,0.2,0,0.4-0.1,0.6S12.2,10.7,12,10.7z"/>
		<path class="st1" d="M16.2,14.6h-6.1c-0.4,0-0.7-0.3-0.7-0.7c0-0.4,0.3-0.7,0.7-0.7h6.1c0.4,0,0.7,0.3,0.7,0.7
			C16.8,14.3,16.5,14.6,16.2,14.6z"/>
		<path class="st1" d="M19,17.9h0.3c0.3,0,0.5-0.2,0.5-0.4l0-0.5c0-0.5-0.4-1-0.8-1.2V17.9z M19.3,19.2h-1c-0.4,0-0.7-0.3-0.7-0.7
			V15c0-0.4,0.3-0.7,0.7-0.7h0.1c0.1,0,0.2,0,0.2,0c1.4,0.1,2.4,1.2,2.5,2.6l0,0.5C21.2,18.4,20.3,19.2,19.3,19.2z"/>
		<path class="st1" d="M17.5,22.4H9.1c-0.4,0-0.7-0.3-0.7-0.7c0-0.4,0.3-0.7,0.7-0.7h8.4c0.4,0,0.7,0.3,0.7,0.7
			C18.2,22.1,17.9,22.4,17.5,22.4z"/>
		<path class="st1" d="M11.2,22.4c-0.4,0-0.7-0.3-0.7-0.7v-2.4c0-0.4,0.3-0.7,0.7-0.7c0.4,0,0.7,0.3,0.7,0.7v2.4
			C11.9,22.1,11.6,22.4,11.2,22.4z"/>
		<path class="st1" d="M15.4,22.4c-0.4,0-0.7-0.3-0.7-0.7v-2.4c0-0.4,0.3-0.7,0.7-0.7c0.4,0,0.7,0.3,0.7,0.7v2.4
			C16,22.1,15.7,22.4,15.4,22.4z"/>
	</g>
</g>
</svg>
