<?xml version="1.0" encoding="utf-8"?>
<!-- Generator: Adobe Illustrator 23.0.1, SVG Export Plug-In . SVG Version: 6.00 Build 0)  -->
<svg version="1.1" id="Layer_1" xmlns="http://www.w3.org/2000/svg" xmlns:xlink="http://www.w3.org/1999/xlink" x="0px" y="0px"
	 viewBox="0 0 289.6 289.6" style="enable-background:new 0 0 289.6 289.6;" xml:space="preserve">
<style type="text/css">
	.st0{fill:#FFFFFF;}
	.st1{fill:#FFFFFF;}
	.st2{fill:#FFFFFF;}
</style>
<g>
	<g>
		<g>
			<path class="st2" d="M78.8,214.1c-4.2,0-7.6-3.4-7.6-7.6v-47.8c0-4.2,3.4-7.6,7.6-7.6h127.1c4.2,0,7.6,3.4,7.6,7.6v47.7
				c0,4.2-3.4,7.6-7.6,7.6c-4.2,0-7.6-3.4-7.6-7.6v-40.2h-112v40.2C86.4,210.7,83,214.1,78.8,214.1z"/>
		</g>
		<g>
			<g>
				<path class="st2" d="M166.6,144.7h-50c-4.2,0-7.6-3.4-7.6-7.6v-8.2c0-17.9,14.6-32.5,32.5-32.5s32.5,14.6,32.5,32.5v8.2
					C174.1,141.4,170.7,144.7,166.6,144.7z M124.1,129.6H159v-0.7c0-9.6-7.8-17.4-17.4-17.4s-17.4,7.8-17.4,17.4V129.6z"/>
			</g>
			<g>
				<path class="st2" d="M141.6,97.4c-10.9,0-19.7-9-19.7-20s8.8-20,19.7-20c10.9,0,19.7,9,19.7,20S152.4,97.4,141.6,97.4z
					 M141.6,72.5c-2.5,0-4.6,2.2-4.6,4.9s2.1,4.9,4.6,4.9c2.5,0,4.6-2.2,4.6-4.9S144.1,72.5,141.6,72.5z"/>
			</g>
		</g>
		<g>
			<g>
				<path class="st1" d="M169.3,229.5h-55.6c-0.3,0-0.5-0.2-0.5-0.5v-38.5c0-0.3,0.2-0.5,0.5-0.5h55.6c0.3,0,0.5,0.2,0.5,0.5V229
					C169.9,229.3,169.6,229.5,169.3,229.5z"/>
			</g>
			<g>
				<path class="st1" d="M150,197.3h-15.8c-1.7,0-3.2-1.4-3.2-3.2V184c0-3.8,3.1-7,7-7h8.2c3.8,0,7,3.1,7,7v10.1
					C153.2,195.9,151.8,197.3,150,197.3z M137.4,191h9.4V184c0-0.3-0.3-0.6-0.6-0.6h-8.2c-0.3,0-0.6,0.3-0.6,0.6V191z"/>
			</g>
		</g>
	</g>
</g>
</svg>
