<?xml version="1.0" encoding="utf-8"?>
<!-- Generator: Adobe Illustrator 22.0.1, SVG Export Plug-In . SVG Version: 6.00 Build 0)  -->
<svg version="1.1" id="Layer_1" xmlns="http://www.w3.org/2000/svg" xmlns:xlink="http://www.w3.org/1999/xlink" x="0px" y="0px"
	 viewBox="0 0 27 23" style="enable-background:new 0 0 27 23;" xml:space="preserve">
<style type="text/css">
	.st0{fill:#1D93D1;}
	.st1{fill:#214497;}
</style>
<g>
	<g>
		<path class="st0" d="M4.1,9.9H1.8c-0.2,0-0.3,0.1-0.3,0.3v3.4c0,0.2,0.1,0.3,0.3,0.3h0.4c0.2,0,0.3-0.1,0.3-0.3v-1.2h1.2
			c0.2,0,0.3-0.1,0.3-0.3v-0.4c0-0.2-0.1-0.3-0.3-0.3H2.4v-0.6h1.7c0.2,0,0.3-0.1,0.3-0.3v-0.4C4.4,10.1,4.2,9.9,4.1,9.9z"/>
		<path class="st0" d="M7.1,13H5.5l0-2.8c0-0.2-0.1-0.3-0.3-0.3H4.8c-0.2,0-0.3,0.1-0.3,0.3l0,3.4c0,0.2,0.1,0.3,0.3,0.3h2.2
			c0.2,0,0.3-0.1,0.3-0.3v-0.4C7.4,13.1,7.2,13,7.1,13z"/>
		<path class="st0" d="M10,10.1C9.9,10,9.8,9.9,9.7,9.9H9.3c-0.1,0-0.2,0-0.2,0.1l-0.8,1.1l-0.8-1.1C7.4,10,7.3,9.9,7.2,9.9H6.8
			c-0.1,0-0.2,0.1-0.3,0.2c-0.1,0.1,0,0.2,0,0.3l1.2,1.7v1.6c0,0.2,0.1,0.3,0.3,0.3h0.4c0.2,0,0.3-0.1,0.3-0.3v-1.6l1.2-1.7
			C10,10.3,10,10.2,10,10.1z"/>
		<path class="st0" d="M19.2,16C19.2,16,19.2,15.9,19.2,16c-0.9,0.3-1.9,0.5-2.9,0.5c-2.1,0-4-0.8-5.4-2.2c0,0-0.1,0-0.1,0.1
			c1.2,1.8,3.1,3,5.3,3.3c0.1,0,0.3,0.1,0.4,0C17.7,17.2,18.6,16.6,19.2,16z"/>
		<path class="st1" d="M25,11.2c0.2-0.8,0.4-1.8,0.5-3.6c0-1,0-1.9,0-2.3c0-0.1-0.1-0.1-0.1-0.1l-5.4,3.1c-0.1,0-0.1,0.1,0,0.2
			l1.6,0.5c0.1,0,0.1,0.1,0.1,0.1c0.1,0.5,0.2,1,0.2,1.5c0,1.8-0.6,3.5-1.7,4.8c-0.2,0.3-0.4,0.5-0.6,0.7c-0.6,0.6-1.4,1.2-2.2,1.5
			c0,0,0,0.1,0,0.1C21.2,17.7,24.1,15,25,11.2z"/>
		<path class="st1" d="M11.7,13c-0.6,0-1.1-0.5-1.1-1.1c0-0.6,0.5-1.1,1.1-1.1c0.6,0,1.1,0.5,1.1,1.1C12.7,12.5,12.3,13,11.7,13z
			 M11.7,9.9c-1.1,0-2,0.9-2,2c0,1.1,0.9,2,2,2s2-0.9,2-2C13.7,10.8,12.8,9.9,11.7,9.9z"/>
		<path class="st1" d="M16.9,9.9h-0.4c-0.2,0-0.3,0.1-0.3,0.3v1.9L14.6,10c-0.1-0.1-0.1-0.1-0.2-0.1h-0.3c-0.2,0-0.3,0.1-0.3,0.3
			v3.4c0,0.2,0.1,0.3,0.3,0.3h0.4c0.2,0,0.3-0.1,0.3-0.3v-1.9l1.6,2.1c0.1,0.1,0.1,0.1,0.2,0.1h0.3c0.2,0,0.3-0.1,0.3-0.3v-3.4
			C17.2,10.1,17.1,9.9,16.9,9.9z"/>
		<path class="st1" d="M20.1,10.9c0.1,0,0.2-0.1,0.2-0.3v-0.4c0-0.2-0.1-0.3-0.3-0.3h-2.2c-0.2,0-0.3,0.1-0.3,0.3v3.4
			c0,0.2,0.1,0.3,0.3,0.3H20c0.2,0,0.3-0.1,0.3-0.2l0-0.4c0-0.2-0.1-0.3-0.3-0.3h-1.5v-0.6H20c0.2,0,0.3-0.1,0.3-0.3l0-0.4
			c0-0.2-0.1-0.3-0.3-0.3h-1.5v-0.6C18.5,10.9,20.1,10.9,20.1,10.9z"/>
	</g>
</g>
</svg>
