<?xml version="1.0" encoding="utf-8"?>
<!-- Generator: Adobe Illustrator 22.0.1, SVG Export Plug-In . SVG Version: 6.00 Build 0)  -->
<svg version="1.1" id="Layer_1" xmlns="http://www.w3.org/2000/svg" xmlns:xlink="http://www.w3.org/1999/xlink" x="0px" y="0px"
	 viewBox="0 0 27 23" style="enable-background:new 0 0 27 23;" xml:space="preserve">
<style type="text/css">
	.st0{fill:#214497;}
	.st1{fill:#1E94D2;}
</style>
<g>
	<g>
		<path class="st0" d="M8.5,7.1c0.4-0.4,1.6,0.3,1.9,0.7l1.4,1.5l6.6,0.2c0.2,0,0.3,0.1,0.3,0.3c0,0.2-0.1,0.3-0.2,0.4l-4.4,1.6
			l2.2,2.8l2.9,0.1c0.1,0,0.1,0,0.1,0.1s0,0.1-0.1,0.1L17,15.6c0,0.1,0,0.1-0.1,0.2l0.1,0.1c0.1,0.1,0.1,0.4,0,0.5
			c-0.1,0.1-0.4,0.1-0.5,0l-0.1-0.1c-0.1,0-0.1,0-0.2,0.1l-0.9,2.1c0,0.1-0.1,0.1-0.1,0.1c0,0,0,0-0.1,0c0,0,0-0.1,0-0.1l0.1-2.8
			L12.7,13l-1.9,4.3c-0.1,0.1-0.2,0.2-0.4,0.2c-0.1,0-0.1-0.1-0.2-0.1c-0.1-0.1-0.1-0.1-0.1-0.2l0.2-6.6L9,9.1
			C8.7,8.7,8.1,7.4,8.5,7.1z"/>
		<path class="st1" d="M12.3,5.2c0.2,0,0.3-0.1,0.4-0.2l1.6-1.7c0.1-0.1,0.2-0.3,0.2-0.5c0-0.2-0.1-0.3-0.2-0.4l-1.9-1.4
			c-0.3-0.2-0.6-0.1-0.8,0.1S11.4,1.8,11.7,2L13,3l-1.2,1.2c-0.2,0.2-0.2,0.6,0,0.8C12,5.1,12.1,5.2,12.3,5.2z"/>
		<path class="st1" d="M4.5,18.6c0.3,0,0.5-0.2,0.6-0.5l0.4-1.6L7,17.1c0.3,0.1,0.6,0,0.8-0.3c0.1-0.3,0-0.6-0.3-0.8l-2.2-0.8
			c-0.2-0.1-0.3-0.1-0.5,0s-0.3,0.2-0.3,0.4l-0.5,2.3c-0.1,0.3,0.1,0.6,0.4,0.7C4.4,18.6,4.4,18.6,4.5,18.6z"/>
		<path class="st1" d="M20.4,18.9C20.5,18.9,20.5,18.9,20.4,18.9l2.4-0.3c0.3,0,0.6-0.3,0.5-0.7s-0.3-0.6-0.7-0.5L21,17.6l0-1.7
			c0-0.3-0.3-0.6-0.6-0.6h0c-0.3,0-0.6,0.3-0.6,0.6l0,2.3c0,0.2,0.1,0.3,0.2,0.4C20.2,18.8,20.3,18.9,20.4,18.9z"/>
		<path class="st1" d="M13.5,22c2.1,0,4.1-0.6,5.8-1.9c0.3-0.2,0.3-0.6,0.1-0.8c-0.2-0.3-0.6-0.3-0.8-0.1c-1.5,1.1-3.2,1.6-5.1,1.6
			c-3.4,0-6.5-2-7.9-5c-0.1-0.3-0.5-0.4-0.8-0.3c-0.3,0.1-0.4,0.5-0.3,0.8C6.1,19.8,9.6,22,13.5,22z"/>
		<path class="st1" d="M4.4,14.4c0,0,0.1,0,0.1,0C4.8,14.3,5,14,4.9,13.7c-0.1-0.5-0.1-1-0.1-1.5c0-4.8,3.9-8.7,8.7-8.7
			c0.1,0,0.2,0,0.2,0c0.3,0,0.6-0.3,0.6-0.6c0-0.3-0.3-0.6-0.6-0.6c-0.1,0-0.2,0-0.3,0c-5.4,0-9.8,4.4-9.8,9.8
			c0,0.6,0.1,1.1,0.1,1.7C3.8,14.2,4.1,14.4,4.4,14.4z"/>
		<path class="st1" d="M20.5,18.8c0.2,0,0.3-0.1,0.4-0.2c1.5-1.8,2.4-4.1,2.4-6.4c0-4.4-2.9-8.3-7.1-9.5c-0.3-0.1-0.6,0.1-0.7,0.4
			c-0.1,0.3,0.1,0.6,0.4,0.7c3.7,1,6.3,4.5,6.3,8.3c0,2.1-0.7,4.1-2.1,5.6c-0.2,0.2-0.2,0.6,0.1,0.8C20.2,18.8,20.3,18.8,20.5,18.8z
			"/>
	</g>
</g>
</svg>
