<?xml version="1.0" encoding="utf-8"?>
<!-- Generator: Adobe Illustrator 22.0.1, SVG Export Plug-In . SVG Version: 6.00 Build 0)  -->
<svg version="1.1" id="Layer_1" xmlns="http://www.w3.org/2000/svg" xmlns:xlink="http://www.w3.org/1999/xlink" x="0px" y="0px"
	 viewBox="0 0 27 23" style="enable-background:new 0 0 27 23;" xml:space="preserve">
<style type="text/css">
	.st0{fill:#214497;}
	.st1{fill:#1E94D2;}
</style>
<g>
	<g>
		<path class="st0" d="M21.6,13h-5c-0.3,0-0.6-0.3-0.6-0.6s0.3-0.6,0.6-0.6h5c0.3,0,0.6,0.3,0.6,0.6S21.9,13,21.6,13z"/>
		<path class="st0" d="M20,15.1c-0.1,0-0.3-0.1-0.4-0.2c-0.2-0.2-0.2-0.6,0-0.8l1.8-1.8l-1.8-1.7c-0.2-0.2-0.2-0.6,0-0.8
			c0.2-0.2,0.6-0.2,0.8,0l2.2,2.1c0.1,0.1,0.2,0.2,0.2,0.4s-0.1,0.3-0.2,0.4l-2.2,2.2C20.3,15.1,20.2,15.1,20,15.1z"/>
		<path class="st0" d="M22.5,15.1c-0.1,0-0.3-0.1-0.4-0.2c-0.2-0.2-0.2-0.6,0-0.8l1.8-1.8l-1.8-1.7c-0.2-0.2-0.2-0.6,0-0.8
			c0.2-0.2,0.6-0.2,0.8,0l2.2,2.1c0.1,0.1,0.2,0.3,0.2,0.4c0,0.2-0.1,0.3-0.2,0.4l-2.2,2.2C22.8,15.1,22.7,15.1,22.5,15.1z"/>
		<path class="st0" d="M12.5,5.3c-0.4,0-0.7,0.3-0.7,0.7c0,0.4,0.3,0.7,0.7,0.7c0.4,0,0.7-0.3,0.7-0.7C13.2,5.6,12.9,5.3,12.5,5.3z
			 M12.5,7.9c-1,0-1.9-0.8-1.9-1.9s0.8-1.9,1.9-1.9S14.4,5,14.4,6C14.4,7,13.5,7.9,12.5,7.9z"/>
		<path class="st0" d="M12.5,8.8c-0.5,0-1,0.4-1,1v2.7c0,0.3,0.1,0.7,0.4,0.9c0.1,0.1,0.2,0.2,0.2,0.4v3.9l1.1,0L13,17.7
			c-0.2-0.1-0.3-0.3-0.3-0.5v-3.4c0-0.2,0.1-0.3,0.2-0.4l0.1-0.1c0.3-0.3,0.4-0.6,0.4-1l0-2.4C13.4,9.3,13,8.8,12.5,8.8z M13.8,18.8
			H12c-0.6,0-1.1-0.5-1.1-1.1V14c-0.3-0.4-0.5-1-0.5-1.5V9.8c0-1.2,0.9-2.1,2.1-2.1s2.1,0.9,2.1,2.1v2.4c0,0.7-0.3,1.3-0.8,1.8v2.8
			l0.1,0.1c0.4,0.2,0.7,0.6,0.7,1V18C14.6,18.5,14.2,18.8,13.8,18.8z"/>
		<path class="st1" d="M7.8,5.3C7.4,5.3,7.1,5.6,7.1,6c0,0.4,0.3,0.7,0.7,0.7S8.6,6.4,8.6,6C8.6,5.6,8.2,5.3,7.8,5.3z M7.8,7.9
			C6.8,7.9,6,7,6,6s0.8-1.9,1.9-1.9c1,0,1.9,0.8,1.9,1.9C9.7,7,8.9,7.9,7.8,7.9z"/>
		<path class="st1" d="M3.9,5.3C3.5,5.3,3.1,5.6,3.1,6c0,0.4,0.3,0.7,0.7,0.7c0.4,0,0.7-0.3,0.7-0.7C4.6,5.6,4.3,5.3,3.9,5.3z
			 M3.9,7.9C2.8,7.9,2,7,2,6s0.8-1.9,1.9-1.9S5.7,5,5.7,6C5.7,7,4.9,7.9,3.9,7.9z"/>
		<path class="st1" d="M8.6,13.7L8.6,13.7z M5.3,17c0.2,0.1,0.4,0.2,0.5,0.4v-3.1H5.3V17z M6.9,17.7c0,0,0,0,0.1,0h0.7
			c-0.1-0.1-0.1-0.2-0.1-0.4v-0.2v-3.3c0-0.3,0.2-0.5,0.4-0.5l0.4-0.1c0.3-0.3,0.4-0.6,0.4-0.9V9.8c0-0.5-0.6-1-1.2-1
			c-0.6,0-1,0.3-1.2,0.7C6.3,9.8,6.1,10,5.8,10c-0.2,0-0.5-0.2-0.5-0.4C5.2,9.2,4.7,8.8,4.1,8.8c-0.5,0-1,0.3-1.2,0.7
			c-0.1,0.8-0.1,2.5,0,3.2C3,13,3.1,13.2,3.3,13.4c0.1,0.1,0.2,0.3,0.2,0.4l0,3.9c0,0,0,0,0.1,0h0.7c-0.1-0.1-0.1-0.2-0.1-0.4v-0.2
			v-3.3c0-0.3,0.3-0.6,0.6-0.6h1.6c0.3,0,0.6,0.3,0.6,0.6L6.9,17.7C6.9,17.7,6.9,17.7,6.9,17.7z M4.9,18.1L4.9,18.1z M8.5,18.8H7
			c-0.5,0-0.9-0.3-1.1-0.6c-0.1,0.4-0.4,0.6-0.8,0.6H3.6c-0.7,0-1.2-0.5-1.2-1.1V14c-0.3-0.3-0.5-0.7-0.6-1.1c0,0,0-0.1,0-0.1
			c0-0.1-0.1-2.5,0-3.5c0,0,0-0.1,0-0.1c0.3-0.9,1.2-1.5,2.2-1.5c0.7,0,1.3,0.3,1.7,0.7c0.4-0.4,1-0.7,1.7-0.7
			c1.3,0,2.3,0.9,2.3,2.1v2.4c0,0.7-0.3,1.4-0.9,1.9c-0.1,0-0.1,0.1-0.2,0.1l-0.1,0V17c0.4,0.2,0.7,0.5,0.7,0.9V18
			C9.4,18.5,9,18.8,8.5,18.8z"/>
	</g>
</g>
</svg>
