<?xml version="1.0" encoding="utf-8"?>
<!-- Generator: Adobe Illustrator 22.0.1, SVG Export Plug-In . SVG Version: 6.00 Build 0)  -->
<svg version="1.1" id="Layer_1" xmlns="http://www.w3.org/2000/svg" xmlns:xlink="http://www.w3.org/1999/xlink" x="0px" y="0px"
	 viewBox="0 0 27 23" style="enable-background:new 0 0 27 23;" xml:space="preserve">
<style type="text/css">
	.st0{fill:#1D93D1;}
	.st1{fill:#214497;}
</style>
<g>
	<g>
		<path class="st0" d="M18.5,10.7c-0.3,0-0.5-0.2-0.5-0.5V9.6c0-0.3,0.2-0.5,0.5-0.5c0.3,0,0.5,0.2,0.5,0.5v0.6
			C19,10.5,18.8,10.7,18.5,10.7z M18.5,13.2c-0.3,0-0.5-0.2-0.5-0.5v-0.6c0-0.3,0.2-0.5,0.5-0.5c0.3,0,0.5,0.2,0.5,0.5v0.6
			C19,13,18.8,13.2,18.5,13.2z M18.5,15.7c-0.3,0-0.5-0.2-0.5-0.5v-0.6c0-0.3,0.2-0.5,0.5-0.5c0.3,0,0.5,0.2,0.5,0.5v0.6
			C19,15.5,18.8,15.7,18.5,15.7z M18.5,18.2c-0.3,0-0.5-0.2-0.5-0.5v-0.6c0-0.3,0.2-0.5,0.5-0.5c0.3,0,0.5,0.2,0.5,0.5v0.6
			C19,18,18.8,18.2,18.5,18.2z"/>
		<path class="st1" d="M15.7,11.3c-0.2-0.3-1,0-1.3,0.1l-1.1,0.7l-4.2-0.9c-0.1,0-0.2,0-0.2,0.1c0,0.1,0,0.2,0.1,0.3l2.5,1.7
			l-1.8,1.4l-1.8-0.4c0,0-0.1,0-0.1,0c0,0,0,0.1,0,0.1L9,15.3c0,0,0,0.1,0,0.1l-0.1,0c-0.1,0.1-0.1,0.2-0.1,0.3
			c0.1,0.1,0.2,0.1,0.3,0.1l0.1,0c0,0,0.1,0,0.1,0.1l0.2,1.4c0,0,0,0.1,0.1,0.1c0,0,0,0,0,0s0,0,0,0l0.4-1.8l2.1-1.1l0.5,3
			c0,0.1,0.1,0.2,0.2,0.2c0,0,0.1,0,0.1,0c0,0,0.1-0.1,0.1-0.1l0.9-4.2l1.1-0.7C15.3,12.3,15.9,11.6,15.7,11.3z"/>
		<path class="st1" d="M7.9,14.3L7.9,14.3z M12.3,14.1l0.5,3.2c0,0,0,0,0.1,0c0,0,0.1,0,0.1,0l0.9-4.2l1.2-0.8
			c0.3-0.2,0.7-0.8,0.6-0.9c0,0-0.2-0.1-0.5,0c-0.3,0-0.5,0.1-0.6,0.2l-1.2,0.8l-4.2-0.9c0,0-0.1,0-0.1,0c0,0,0,0.1,0,0.1l2.7,1.8
			l-2.1,1.6l-1.4-0.3l0.9,0.6v0.1c0,0,0,0.1,0,0.1l0,0.1L9,15.5c0,0,0,0,0,0c0,0,0,0,0,0c0,0,0,0,0,0c0,0,0,0,0,0l0.2-0.1l0.1,0.1
			c0,0,0,0,0.1,0l0.1,0l0.2,1l0.3-1.4L12.3,14.1z M12.8,17.7L12.8,17.7c-0.2,0-0.3-0.1-0.4-0.3L12,14.6l-1.8,1l-0.3,1.7
			c0,0.1-0.1,0.1-0.1,0.2c0,0-0.1,0-0.1,0c-0.1,0-0.2-0.1-0.2-0.2L9.2,16c-0.1,0-0.2,0-0.2,0c-0.1,0-0.2-0.1-0.2-0.2
			c-0.1-0.1-0.1-0.2-0.1-0.3c0-0.1,0.1-0.1,0.1-0.2l-1.1-0.7c-0.1-0.1-0.1-0.2-0.1-0.3c0-0.1,0.2-0.2,0.3-0.1l1.7,0.4l1.6-1.2
			l-2.3-1.6c-0.1-0.1-0.2-0.3-0.1-0.5c0.1-0.2,0.2-0.3,0.4-0.2l4.1,0.9l1.1-0.7c0.2-0.1,0.5-0.2,0.8-0.3c0.4-0.1,0.7,0,0.8,0.2
			c0.3,0.4-0.4,1.2-0.7,1.4l-1.1,0.7l-0.9,4.1c0,0.1-0.1,0.2-0.2,0.2C13,17.6,12.9,17.7,12.8,17.7z"/>
		<path class="st0" d="M5.9,8.9c-0.4,0-0.7,0.4-0.7,0.9v8.4c0,0.5,0.3,0.9,0.7,0.9l15.2,0c0.4,0,0.7-0.4,0.7-0.9V17
			c-1.2-0.3-2.1-1.5-2.1-3c0-1.4,0.9-2.7,2.1-3V9.8c0-0.5-0.3-0.9-0.7-0.9L5.9,8.9z M21.1,20.4l-15.2,0c-1.1,0-2-1-2-2.2V9.8
			c0-1.2,0.9-2.2,2-2.2h15.2c1.1,0,2,1,2,2.2v1.8c0,0.4-0.3,0.6-0.6,0.6c-0.8,0-1.5,0.8-1.5,1.8c0,1,0.7,1.8,1.5,1.8
			c0.4,0,0.6,0.3,0.6,0.6v1.8C23.1,19.4,22.2,20.4,21.1,20.4z"/>
		<path class="st0" d="M6.2,8.9C6,8.9,5.7,8.8,5.6,8.5C5.5,8.2,5.7,7.9,6,7.7l11.9-5c0,0,0,0,0,0c0.4-0.2,0.9-0.1,1.4,0.1
			c0.5,0.3,0.9,0.7,1.1,1.3l1,3.3c0.1,0.3-0.1,0.7-0.4,0.8c-0.3,0.1-0.7-0.1-0.8-0.4l-1-3.3C19,4.3,18.9,4.1,18.7,4
			c-0.1,0-0.2-0.1-0.4,0l-11.8,5C6.4,8.9,6.3,8.9,6.2,8.9z"/>
		<path class="st0" d="M11.7,8.9c-0.2,0-0.5-0.1-0.6-0.4c-0.1-0.3,0-0.7,0.3-0.8l8.2-3.4c0.3-0.1,0.7,0,0.8,0.3
			c0.1,0.3,0,0.7-0.3,0.8l-8.2,3.4C11.8,8.9,11.7,8.9,11.7,8.9z"/>
	</g>
</g>
</svg>
