<svg id="Layer_1" data-name="Layer 1" xmlns="http://www.w3.org/2000/svg" viewBox="0 0 67.501 157.0322">
<defs>
  <style>
.cls-1{fill:#d5d4da;}.cls-2{fill:#a4a3a9;}
</style>
</defs>
<title>F1-Icon-126-10kg</title>
<path class="cls-1" d="M.5416,139.54v8.8051a4.3146,4.3146,0,0,0,4.314,4.314h56.979a4.1674,4.1674,0,0,0,4.167-4.167v-39.768Z"/>
<path class="cls-2" d="M14.8213,157.0322a2,2,0,0,1-2-2v-1.7686a2,2,0,0,1,4,0v1.7686A2,2,0,0,1,14.8213,157.0322Z"/>
<path class="cls-2" d="M52.6733,157.0322a2,2,0,0,1-2-2v-1.7686a2,2,0,0,1,4,0v1.7686A2,2,0,0,1,52.6733,157.0322Z"/>
<path class="cls-2" d="M62.8242,153.5977H4.6772A4.682,4.682,0,0,1,0,148.9209V64.917a4.679,4.679,0,0,1,4.6743-4.6729H62.8271A4.6789,4.6789,0,0,1,67.501,64.917v84.0039A4.6819,4.6819,0,0,1,62.8242,153.5977ZM4.6743,63.2441A1.6751,1.6751,0,0,0,3,64.917v84.0039a1.6788,1.6788,0,0,0,1.6772,1.6768h58.147a1.6784,1.6784,0,0,0,1.6768-1.6768V64.917a1.675,1.675,0,0,0-1.6738-1.6729Z"/>
<path class="cls-2" d="M15.4585,62.7461a1,1,0,0,1-1-1V14.4639a1,1,0,1,1,2,0V61.7461A1,1,0,0,1,15.4585,62.7461Z"/>
<path class="cls-2" d="M46.1348,62.7461a1,1,0,0,1-1-1V14.4639a1,1,0,0,1,2,0V61.7461A1,1,0,0,1,46.1348,62.7461Z"/>
<path class="cls-2" d="M19.4717,62.7461a1,1,0,0,1-1-1V14.4639a1,1,0,1,1,2,0V61.7461A1,1,0,0,1,19.4717,62.7461Z"/>
<path class="cls-2" d="M50.01,62.7461a1,1,0,0,1-1-1V14.4639a1,1,0,1,1,2,0V61.7461A1,1,0,0,1,50.01,62.7461Z"/>
<path class="cls-2" d="M51.2871,14.791H44.9722a1.25,1.25,0,0,1-1.25-1.25V7.8379H21.4272V13.541a1.25,1.25,0,0,1-1.25,1.25H14.1689a1.25,1.25,0,0,1-1.25-1.25V5.3828C12.9189,2.2637,15.5068,0,19.0723,0h27.313c3.5645,0,6.1519,2.2637,6.1519,5.3828V13.541A1.25,1.25,0,0,1,51.2871,14.791Zm-5.0649-2.5h3.8149V5.3828c0-1.6973-1.5015-2.8828-3.6519-2.8828H19.0723c-2.1509,0-3.6533,1.1855-3.6533,2.8828V12.291h3.5083V7.502A2.2946,2.2946,0,0,1,21.376,5.3379H43.772a2.2953,2.2953,0,0,1,2.45,2.1641Z"/>
<path class="cls-2" d="M42.3535,62.7529H39.0786a1,1,0,0,1-1-1V58.1836h-10.86v3.5693a1,1,0,0,1-1,1H23.1025a1,1,0,0,1-1-1V56.3916a3.5527,3.5527,0,0,1,3.543-3.7158h14.165a3.5527,3.5527,0,0,1,3.543,3.7158v5.3613A1,1,0,0,1,42.3535,62.7529Zm-2.2749-2h1.2749V56.3916a1.5565,1.5565,0,0,0-1.543-1.7158H25.6455a1.5565,1.5565,0,0,0-1.543,1.7158v4.3613h1.1162V57.7842a1.613,1.613,0,0,1,1.6221-1.6006H38.4556a1.6136,1.6136,0,0,1,1.623,1.6006Z"/>
<path class="cls-2" d="M58.2041,92.4795H8.187a1.5,1.5,0,0,1-1.5-1.5V69.1973a1.5,1.5,0,0,1,1.5-1.5H58.2041a1.5,1.5,0,0,1,1.5,1.5V90.9795A1.5,1.5,0,0,1,58.2041,92.4795Zm-48.5171-3H56.7041V70.6973H9.687Z"/>
<path class="cls-2" d="M58.2041,145.5459H8.187a1.5,1.5,0,0,1-1.5-1.5V97.8906a1.5,1.5,0,0,1,1.5-1.5H58.2041a1.5,1.5,0,0,1,1.5,1.5v46.1553A1.5,1.5,0,0,1,58.2041,145.5459Zm-48.5171-3H56.7041V99.3906H9.687Z"/>
<path class="cls-2" d="M48.6563,76.8184h-32.28a1,1,0,1,1,0-2h32.28a1,1,0,0,1,0,2Z"/>
<path class="cls-2" d="M48.0435,81.9014h-4.166a.9007.9007,0,0,1-.86-1.166l1.6-5.1826a.9.9,0,0,1,.86-.6348h.9668a.9.9,0,0,1,.86.6348l1.5991,5.1826a.9007.9007,0,0,1-.86,1.166Zm-2.9463-1.8008h1.7266l-.8628-2.7969Z"/>
</svg>