<?xml version="1.0" encoding="utf-8"?>
<!-- Generator: Adobe Illustrator 23.0.1, SVG Export Plug-In . SVG Version: 6.00 Build 0)  -->
<svg version="1.1" id="Layer_1" xmlns="http://www.w3.org/2000/svg" xmlns:xlink="http://www.w3.org/1999/xlink" x="0px" y="0px"
	 viewBox="0 0 255.55 255.56" style="enable-background:new 0 0 255.55 255.56;" xml:space="preserve">
<style type="text/css">
	.st0{fill:#FFFFFF;}
	.st1{fill:#FFFFFF;}
	.st2{fill:#FFFFFF;}
	.st3{fill:#FFFFFF;}
</style>
<g>
	<g>
		<path class="st0" d="M78.76,188.26c-3.84,0-6.96-3.12-6.96-6.96V85.19c0-3.84,3.12-6.96,6.96-6.96c3.84,0,6.96,3.12,6.96,6.96
			v96.12C85.71,185.15,82.6,188.26,78.76,188.26z"/>
		<path class="st0" d="M187.01,188.26c-3.84,0-6.96-3.12-6.96-6.96V85.19c0-3.84,3.12-6.96,6.96-6.96s6.96,3.12,6.96,6.96v96.12
			C193.97,185.15,190.85,188.26,187.01,188.26z"/>
		<g>
			<path class="st0" d="M185.82,109.43h-5.23c-3.84,0-6.96-3.12-6.96-6.96c0-3.84,3.12-6.96,6.96-6.96h5.23
				c3.84,0,6.96,3.12,6.96,6.96C192.78,106.32,189.66,109.43,185.82,109.43z"/>
			<path class="st0" d="M86.25,109.43h-7.71c-3.84,0-6.96-3.12-6.96-6.96c0-3.84,3.12-6.96,6.96-6.96h7.71
				c3.84,0,6.96,3.12,6.96,6.96C93.21,106.32,90.09,109.43,86.25,109.43z"/>
			<g>
				<path class="st1" d="M89.1,195.8c-3.84,0-6.96-3.12-6.96-6.96v-6.13c0-3.84,3.12-6.96,6.96-6.96c3.84,0,6.96,3.12,6.96,6.96
					v6.13C96.06,192.68,92.94,195.8,89.1,195.8z"/>
				<path class="st1" d="M175.71,195.8c-3.84,0-6.96-3.12-6.96-6.96v-6.13c0-3.84,3.12-6.96,6.96-6.96c3.84,0,6.96,3.12,6.96,6.96
					v6.13C182.67,192.68,179.55,195.8,175.71,195.8z"/>
			</g>
			<g>
				<path class="st1" d="M195.09,189.67H69.73c-9.96,0-18.07-8.11-18.07-18.07V96.28c0-9.95,8.09-18.05,18.05-18.05h125.41
					c9.95,0,18.04,8.09,18.04,18.05v75.32C213.16,181.56,205.06,189.67,195.09,189.67z M69.71,92.15c-2.28,0-4.14,1.85-4.14,4.14
					v75.32c0,2.29,1.87,4.16,4.16,4.16h125.36c2.29,0,4.16-1.87,4.16-4.16V96.28c0-2.28-1.85-4.14-4.13-4.14H69.71z"/>
			</g>
			<path class="st1" d="M163.64,67h-62.44c-3.84,0-6.96-3.12-6.96-6.96s3.12-6.96,6.96-6.96h62.44c3.84,0,6.96,3.12,6.96,6.96
				S167.48,67,163.64,67z"/>
			<g>
				<path class="st1" d="M109.94,86.72c-3.84,0-6.96-3.12-6.96-6.96V64.14c0-3.84,3.12-6.96,6.96-6.96c3.84,0,6.96,3.12,6.96,6.96
					v15.62C116.9,83.6,113.78,86.72,109.94,86.72z"/>
				<path class="st1" d="M154.89,86.72c-3.84,0-6.96-3.12-6.96-6.96V64.14c0-3.84,3.12-6.96,6.96-6.96s6.96,3.12,6.96,6.96v15.62
					C161.84,83.6,158.73,86.72,154.89,86.72z"/>
			</g>
			<path class="st1" d="M143.06,109.43h-21.27c-3.84,0-6.96-3.12-6.96-6.96c0-3.84,3.12-6.96,6.96-6.96h21.27
				c3.84,0,6.96,3.12,6.96,6.96C150.02,106.32,146.9,109.43,143.06,109.43z"/>
		</g>
	</g>
	<g>
		<g>
			<path class="st1" d="M127.51,145.49h-7.53v-14.25c0-1.73,0.04-3.31,0.11-4.75c-0.46,0.55-1.04,1.13-1.73,1.73l-3.12,2.53
				l-3.85-4.63l9.43-7.54h6.68V145.49z"/>
			<path class="st1" d="M153.53,132.07c0,4.76-0.82,8.25-2.44,10.46c-1.63,2.22-4.12,3.32-7.47,3.32c-3.28,0-5.75-1.16-7.42-3.47
				c-1.67-2.32-2.5-5.75-2.5-10.32c0-4.79,0.82-8.29,2.45-10.53c1.62-2.23,4.12-3.35,7.47-3.35c3.26,0,5.73,1.17,7.41,3.49
				C152.7,124.01,153.53,127.47,153.53,132.07z M141.09,132.07c0,3.04,0.19,5.13,0.58,6.27c0.39,1.14,1.04,1.71,1.96,1.71
				c0.93,0,1.57-0.58,1.96-1.77c0.38-1.17,0.58-3.25,0.58-6.22c0-2.98-0.19-5.07-0.58-6.26c-0.39-1.2-1.04-1.8-1.95-1.8
				c-0.92,0-1.57,0.58-1.96,1.73C141.28,126.89,141.09,129,141.09,132.07z"/>
			<path class="st1" d="M131.69,166.52h-5.41l-3.51-6.65l-1.41,0.83v5.82h-4.82v-17.39h4.82v7.55c0.24-0.47,0.73-1.21,1.46-2.22
				l3.72-5.33h5.24l-5.59,7.79L131.69,166.52z"/>
			<path class="st1" d="M140.73,156.34h7.66v9.37c-2.08,0.7-4.36,1.05-6.86,1.05c-2.73,0-4.84-0.78-6.34-2.33
				c-1.49-1.55-2.24-3.77-2.24-6.65c0-2.8,0.82-4.99,2.45-6.55c1.63-1.57,3.92-2.34,6.86-2.34c1.12,0,2.17,0.1,3.16,0.3
				c0.99,0.21,1.86,0.47,2.6,0.78l-1.52,3.69c-1.28-0.62-2.68-0.93-4.21-0.93c-1.4,0-2.48,0.45-3.24,1.33
				c-0.77,0.89-1.15,2.17-1.15,3.83c0,1.62,0.35,2.86,1.04,3.72c0.7,0.86,1.69,1.28,2.99,1.28c0.72,0,1.37-0.06,1.97-0.2v-2.72
				h-3.16V156.34z"/>
		</g>
	</g>
</g>
</svg>
