<svg id="Layer_1" data-name="Layer 1" xmlns="http://www.w3.org/2000/svg" viewBox="0 0 148.7322 107.8789"><defs><style>.cls-1{fill:#53b7e8;}.cls-2{fill:#21409a;}.cls-3{fill:#fff;}</style></defs><title>F1-Icon-127-20kg</title><path class="cls-1" d="M128.3188,102.5864H5.1967A3.6976,3.6976,0,0,1,1.5,98.8884l130.5171-49.067v49.067a3.6984,3.6984,0,0,1-3.698,3.698"/><path class="cls-2" d="M15.0171,102.8428a1.5,1.5,0,0,1-1.5-1.5V16.3447a1.5,1.5,0,1,1,3,0v84.998A1.5,1.5,0,0,1,15.0171,102.8428Z"/><path class="cls-2" d="M21.1558,102.8428a1.5,1.5,0,0,1-1.5-1.5V16.3447a1.5,1.5,0,1,1,3,0v84.998A1.5,1.5,0,0,1,21.1558,102.8428Z"/><path class="cls-2" d="M128.84,104.0859H4.6772A4.682,4.682,0,0,1,0,99.4092V19.52a4.679,4.679,0,0,1,4.6733-4.6738h124.17a4.6791,4.6791,0,0,1,4.6738,4.6738v79.89A4.6819,4.6819,0,0,1,128.84,104.0859ZM4.6733,17.8457A1.6754,1.6754,0,0,0,3,19.52v79.89a1.6788,1.6788,0,0,0,1.6772,1.6768H128.84a1.6784,1.6784,0,0,0,1.6768-1.6768V19.52a1.6759,1.6759,0,0,0-1.6738-1.6738Z"/><path class="cls-2" d="M90.1411,16.6465a1.5,1.5,0,0,1-1.5-1.5V9.38c0-3.4629-1.45-5.0078-4.7026-5.0078H49.5791c-3.2524,0-4.7026,1.5449-4.7026,5.0078v5.7666a1.5,1.5,0,1,1-3,0V9.38c0-5.0889,2.8076-8.0078,7.7026-8.0078H83.9385c4.895,0,7.7026,2.9189,7.7026,8.0078v5.7666A1.5,1.5,0,0,1,90.1411,16.6465Z"/><path class="cls-2" d="M85.6675,17.6885a1.5,1.5,0,0,1-1.5-1.5V9.6494a2.2484,2.2484,0,0,0-.272-1.3057l-34.3579.0078c.0146-.0342-.188.2158-.188,1.2979v6.5391a1.5,1.5,0,1,1-3,0V9.6494c0-3.8789,2.2295-4.2979,3.188-4.2979H83.8545c1.6016,0,3.313,1.1289,3.313,4.2979v6.5391A1.5,1.5,0,0,1,85.6675,17.6885Z"/><rect class="cls-3" x="56.8284" y="1.5004" width="21.01" height="6.152"/><path class="cls-2" d="M77.8384,9.1523h-21.01a1.5,1.5,0,0,1-1.5-1.5V1.5a1.5,1.5,0,0,1,1.5-1.5h21.01a1.5,1.5,0,0,1,1.5,1.5V7.6523A1.5,1.5,0,0,1,77.8384,9.1523Zm-19.51-3h18.01V3h-18.01Z"/><path class="cls-2" d="M20.3486,36.085H15.7769c-2.6831,0-4.7852-2.5928-4.7852-5.9023V28.3193a1.5,1.5,0,0,1,3,0v1.8633c0,1.71.9409,2.9023,1.7852,2.9023h4.5718c.8442,0,1.7852-1.1924,1.7852-2.9023V28.3193a1.5,1.5,0,0,1,3,0v1.8633C25.1338,33.4922,23.0317,36.085,20.3486,36.085Z"/><path class="cls-2" d="M112.9722,102.8428a1.5,1.5,0,0,1-1.5-1.5V16.3447a1.5,1.5,0,0,1,3,0v84.998A1.5,1.5,0,0,1,112.9722,102.8428Z"/><path class="cls-2" d="M119.1108,102.8428a1.5,1.5,0,0,1-1.5-1.5V16.3447a1.5,1.5,0,0,1,3,0v84.998A1.5,1.5,0,0,1,119.1108,102.8428Z"/><path class="cls-2" d="M118.3486,36.085h-4.6631c-2.6743,0-4.85-2.6475-4.85-5.9023V28.3193a1.5,1.5,0,0,1,3,0v1.8633c0,1.71.9751,2.9023,1.85,2.9023h4.6631c.8755,0,1.8511-1.1924,1.8511-2.9023V28.3193a1.5,1.5,0,1,1,3,0v1.8633C123.2,33.4375,121.0234,36.085,118.3486,36.085Z"/><path class="cls-2" d="M24.4473,107.8789a2.5,2.5,0,0,1-2.5-2.5v-1.7344a2.5,2.5,0,1,1,5,0v1.7344A2.5,2.5,0,0,1,24.4473,107.8789Z"/><path class="cls-2" d="M109.2041,107.8789a2.5,2.5,0,0,1-2.5-2.5v-1.7344a2.5,2.5,0,1,1,5,0v1.7344A2.5,2.5,0,0,1,109.2041,107.8789Z"/><path class="cls-2" d="M18.063,38.7031a1,1,0,0,1-1-1v-6.251a1,1,0,0,1,2,0v6.251A1,1,0,0,1,18.063,38.7031Z"/><path class="cls-2" d="M18.0625,46.7a1,1,0,0,1-1-1v-.25a1,1,0,0,1,2,0v.25A1,1,0,0,1,18.0625,46.7Z"/><path class="cls-2" d="M18.0625,66.2568a1,1,0,0,1-1-1v-.4346a1,1,0,0,1,2,0v.4346A1,1,0,0,1,18.0625,66.2568Zm0-6.5186a1,1,0,0,1-1-1v-.4355a1,1,0,0,1,2,0v.4355A1,1,0,0,1,18.0625,59.7383Zm0-6.52a1,1,0,0,1-1-1v-.4346a1,1,0,0,1,2,0v.4346A1,1,0,0,1,18.0625,53.2188Z"/><path class="cls-2" d="M18.0625,72.5908a1,1,0,0,1-1-1v-.25a1,1,0,0,1,2,0v.25A1,1,0,0,1,18.0625,72.5908Z"/><path class="cls-2" d="M116.0176,38.7031a1,1,0,0,1-1-1v-6.251a1,1,0,1,1,2,0v6.251A1,1,0,0,1,116.0176,38.7031Z"/><path class="cls-2" d="M116.0176,46.7a1,1,0,0,1-1-1v-.25a1,1,0,0,1,2,0v.25A1,1,0,0,1,116.0176,46.7Z"/><path class="cls-2" d="M116.0176,66.2568a1,1,0,0,1-1-1v-.4346a1,1,0,1,1,2,0v.4346A1,1,0,0,1,116.0176,66.2568Zm0-6.5186a1,1,0,0,1-1-1v-.4355a1,1,0,1,1,2,0v.4355A1,1,0,0,1,116.0176,59.7383Zm0-6.52a1,1,0,0,1-1-1v-.4346a1,1,0,0,1,2,0v.4346A1,1,0,0,1,116.0176,53.2188Z"/><path class="cls-2" d="M116.0176,72.5908a1,1,0,0,1-1-1v-.25a1,1,0,0,1,2,0v.25A1,1,0,0,1,116.0176,72.5908Z"/><path class="cls-2" d="M143.772,43.1865a6.029,6.029,0,0,1-1.9429-.3389,11.2924,11.2924,0,0,1-6.2158-6.34c-.021-.05-.04-.1016-.0557-.1533l-5.6982-18.9258a1.5,1.5,0,0,1,2.5156-1.4736l13.8442,14.3389a1.5005,1.5005,0,0,1,.1382.166,11.2916,11.2916,0,0,1,2.1958,8.6006,5.1424,5.1424,0,0,1-2.4438,3.5234l0,.001A4.7172,4.7172,0,0,1,143.772,43.1865Zm1.6011-1.9092h0Zm-6.9668-5.8691a8.3362,8.3362,0,0,0,4.39,4.6,1.9474,1.9474,0,0,0,2.8271-1.5928,8.3278,8.3278,0,0,0-1.64-6.1182l-9.4668-9.8047Z"/><path class="cls-2" d="M66.0732,60.7666H55.2949V58.499l3.87-3.9131q1.72-1.7607,2.2471-2.4414a5.3421,5.3421,0,0,0,.7588-1.26,3.22,3.22,0,0,0,.2324-1.2031,1.7509,1.7509,0,0,0-.5117-1.3809,1.9812,1.9812,0,0,0-1.3662-.4541,3.9379,3.9379,0,0,0-1.74.4111,8.9945,8.9945,0,0,0-1.7607,1.1709L55.252,47.33a11.59,11.59,0,0,1,1.8887-1.3711,6.9666,6.9666,0,0,1,1.6348-.6172,8.3986,8.3986,0,0,1,1.9824-.2158,5.874,5.874,0,0,1,2.5527.5273A4.0731,4.0731,0,0,1,65.0293,47.13a3.9281,3.9281,0,0,1,.6113,2.1729,5.3262,5.3262,0,0,1-.374,1.998,7.6893,7.6893,0,0,1-1.16,1.9141A28.1871,28.1871,0,0,1,61.3379,56.01L59.3555,57.877v.1475h6.7178Z"/><path class="cls-2" d="M78.3184,53.0566q0,4.04-1.3242,5.98a4.5914,4.5914,0,0,1-4.0762,1.94,4.54,4.54,0,0,1-4.0234-2.0039,10.5959,10.5959,0,0,1-1.3555-5.917q0-4.0811,1.3184-6.0166a5.1264,5.1264,0,0,1,8.0947.09A10.6106,10.6106,0,0,1,78.3184,53.0566Zm-7.541,0a11.9967,11.9967,0,0,0,.49,4.0664,1.6979,1.6979,0,0,0,1.65,1.2285,1.7163,1.7163,0,0,0,1.6455-1.2441,11.6607,11.6607,0,0,0,.5059-4.0508,11.6405,11.6405,0,0,0-.5107-4.0762,1.7089,1.7089,0,0,0-3.2861,0A11.9906,11.9906,0,0,0,70.7773,53.0566Z"/><path class="cls-2" d="M66.3633,74.1641H64.0947l-2.4687-3.97-.8447.6055v3.3643h-1.998V64.7412h1.998v4.3115l.7871-1.1084L64.12,64.7412h2.2178l-3.2871,4.17Z"/><path class="cls-2" d="M71.126,68.873h3.7383v4.8848a10.4237,10.4237,0,0,1-1.7109.416,11.0726,11.0726,0,0,1-1.6406.1191A4.153,4.153,0,0,1,68.2549,73.04a5.2164,5.2164,0,0,1-1.125-3.6006,4.748,4.748,0,0,1,1.3057-3.5576,4.9565,4.9565,0,0,1,3.6191-1.2764,6.9984,6.9984,0,0,1,2.7969.58l-.6641,1.5986a4.7388,4.7388,0,0,0-2.1455-.5156,2.6523,2.6523,0,0,0-2.0762.87,3.3777,3.3777,0,0,0-.7793,2.34,3.7575,3.7575,0,0,0,.6279,2.3428,2.1748,2.1748,0,0,0,1.8271.8086,6.3961,6.3961,0,0,0,1.2705-.1289V70.5352H71.126Z"/></svg>