<svg id="Layer_1" data-name="Layer 1" xmlns="http://www.w3.org/2000/svg" viewBox="0 0 169.9163 122.9785"><defs><style>.cls-1{fill:#53b7e8;}.cls-2{fill:#21409a;}.cls-3{fill:#fff;}</style></defs><title>F1-Icon-128-30kg</title><path class="cls-1" d="M146.7533,117.2792H5.7333a4.2355,4.2355,0,0,1-4.235-4.235l149.49-56.201v56.201a4.2349,4.2349,0,0,1-4.235,4.235"/><path class="cls-2" d="M16.9814,117.3545a1.5,1.5,0,0,1-1.5-1.5V18.501a1.5,1.5,0,1,1,3,0v97.3535A1.5,1.5,0,0,1,16.9814,117.3545Z"/><path class="cls-2" d="M24.0122,117.3545a1.5,1.5,0,0,1-1.5-1.5V18.501a1.5,1.5,0,1,1,3,0v97.3535A1.5,1.5,0,0,1,24.0122,117.3545Z"/><path class="cls-2" d="M147.812,118.7793H4.6758A4.6814,4.6814,0,0,1,0,114.1025V21.6748A4.6786,4.6786,0,0,1,4.6729,17.001H147.8149a4.6791,4.6791,0,0,1,4.6738,4.6738v92.4277A4.6819,4.6819,0,0,1,147.812,118.7793ZM4.6729,20.001A1.6753,1.6753,0,0,0,3,21.6748v92.4277a1.6781,1.6781,0,0,0,1.6758,1.6768H147.812a1.6784,1.6784,0,0,0,1.6768-1.6768V21.6748a1.6759,1.6759,0,0,0-1.6738-1.6738Z"/><path class="cls-2" d="M103.0259,18.6279a1.5,1.5,0,0,1-1.5-1.5V10.5244c0-4.0625-1.7812-5.9541-5.605-5.9541H56.5679c-3.8237,0-5.605,1.8916-5.605,5.9541v6.6035a1.5,1.5,0,0,1-3,0V10.5244c0-5.69,3.1362-8.9541,8.605-8.9541h39.353c5.4687,0,8.605,3.2637,8.605,8.9541v6.6035A1.5,1.5,0,0,1,103.0259,18.6279Z"/><path class="cls-2" d="M97.9023,19.8213a1.5,1.5,0,0,1-1.5-1.5v-7.49c0-.0166-.0068-1.7031-.5771-1.7031H56.52a.3615.3615,0,0,0-.13.0156s-.3032.252-.3032,1.6875v7.49a1.5,1.5,0,0,1-3,0v-7.49c0-4.2451,2.4009-4.7031,3.4331-4.7031H95.8252c1.7295,0,3.5771,1.2354,3.5771,4.7031v7.49A1.5,1.5,0,0,1,97.9023,19.8213Z"/><rect class="cls-3" x="64.8707" y="1.4996" width="24.064" height="7.046"/><path class="cls-2" d="M88.9346,10.0459H64.8706a1.5,1.5,0,0,1-1.5-1.5V1.5a1.5,1.5,0,0,1,1.5-1.5h24.064a1.5,1.5,0,0,1,1.5,1.5V8.5459A1.5,1.5,0,0,1,88.9346,10.0459Zm-22.564-3h21.064V3H66.3706Z"/><path class="cls-2" d="M23.0869,40.8926H17.8511c-2.9507,0-5.2622-2.874-5.2622-6.542V32.2158a1.5,1.5,0,0,1,3,0v2.1348c0,1.8867,1.0571,3.542,2.2622,3.542h5.2358c1.2056,0,2.2632-1.6553,2.2632-3.542V32.2158a1.5,1.5,0,0,1,3,0v2.1348C28.35,37.958,25.9893,40.8926,23.0869,40.8926Z"/><path class="cls-2" d="M129.1753,117.3545a1.5,1.5,0,0,1-1.5-1.5V18.501a1.5,1.5,0,0,1,3,0v97.3535A1.5,1.5,0,0,1,129.1753,117.3545Z"/><path class="cls-2" d="M136.2065,117.3545a1.5,1.5,0,0,1-1.5-1.5V18.501a1.5,1.5,0,1,1,3,0v97.3535A1.5,1.5,0,0,1,136.2065,117.3545Z"/><path class="cls-2" d="M135.334,40.8926h-5.3413c-2.9434,0-5.3379-2.9346-5.3379-6.542V32.2158a1.5,1.5,0,1,1,3,0v2.1348c0,1.92,1.0708,3.542,2.3379,3.542h5.3413c1.2671,0,2.3379-1.6221,2.3379-3.542V32.2158a1.5,1.5,0,0,1,3,0v2.1348C140.6719,37.958,138.2773,40.8926,135.334,40.8926Z"/><path class="cls-2" d="M27.7822,122.9785a2.5,2.5,0,0,1-2.5-2.5v-1.9873a2.5,2.5,0,0,1,5,0v1.9873A2.5,2.5,0,0,1,27.7822,122.9785Z"/><path class="cls-2" d="M124.86,122.9785a2.5,2.5,0,0,1-2.5-2.5v-1.9873a2.5,2.5,0,0,1,5,0v1.9873A2.5,2.5,0,0,1,124.86,122.9785Z"/><path class="cls-2" d="M20.4692,43.9639a1,1,0,0,1-1-1v-7.16a1,1,0,0,1,2,0v7.16A1,1,0,0,1,20.4692,43.9639Z"/><path class="cls-2" d="M20.4692,53.0869a1,1,0,0,1-1-1v-.25a1,1,0,0,1,2,0v.25A1,1,0,0,1,20.4692,53.0869Z"/><path class="cls-2" d="M20.4692,75.542a1,1,0,0,1-1-1v-.499a1,1,0,0,1,2,0v.499A1,1,0,0,1,20.4692,75.542Zm0-7.4844a1,1,0,0,1-1-1v-.499a1,1,0,0,1,2,0v.499A1,1,0,0,1,20.4692,68.0576Zm0-7.4854a1,1,0,0,1-1-1v-.499a1,1,0,0,1,2,0v.499A1,1,0,0,1,20.4692,60.5723Z"/><path class="cls-2" d="M20.4692,82.7773a1,1,0,0,1-1-1v-.25a1,1,0,0,1,2,0v.25A1,1,0,0,1,20.4692,82.7773Z"/><path class="cls-2" d="M132.6636,43.9639a1,1,0,0,1-1-1v-7.16a1,1,0,0,1,2,0v7.16A1,1,0,0,1,132.6636,43.9639Z"/><path class="cls-2" d="M132.6636,53.0869a1,1,0,0,1-1-1v-.25a1,1,0,0,1,2,0v.25A1,1,0,0,1,132.6636,53.0869Z"/><path class="cls-2" d="M132.6636,75.542a1,1,0,0,1-1-1v-.499a1,1,0,0,1,2,0v.499A1,1,0,0,1,132.6636,75.542Zm0-7.4844a1,1,0,0,1-1-1v-.499a1,1,0,0,1,2,0v.499A1,1,0,0,1,132.6636,68.0576Zm0-7.4854a1,1,0,0,1-1-1v-.499a1,1,0,0,1,2,0v.499A1,1,0,0,1,132.6636,60.5723Z"/><path class="cls-2" d="M132.6636,82.7773a1,1,0,0,1-1-1v-.25a1,1,0,0,1,2,0v.25A1,1,0,0,1,132.6636,82.7773Z"/><path class="cls-2" d="M164.4512,49.0264a6.6906,6.6906,0,0,1-2.1528-.376c-2.854-.9717-5.5327-3.707-6.99-7.14-.021-.05-.04-.1016-.0557-.1533l-6.5264-21.6768a1.5,1.5,0,0,1,2.5151-1.4756L167.0981,34.63a1.5856,1.5856,0,0,1,.1382.165c2.1782,3.0244,3.1279,6.7324,2.4795,9.6768a5.6772,5.6772,0,0,1-2.6934,3.8926h0A5.172,5.172,0,0,1,164.4512,49.0264Zm1.835-1.9687h0Zm-8.1851-6.6465c1.123,2.5967,3.1436,4.7109,5.1641,5.3994a2.8472,2.8472,0,0,0,2.2847-.06h0a2.8439,2.8439,0,0,0,1.2363-1.9248,9.7626,9.7626,0,0,0-1.9233-7.1924l-11.4785-11.89Z"/><path class="cls-2" d="M74.8506,55.873a3.9346,3.9346,0,0,1-.9482,2.6631A4.9229,4.9229,0,0,1,71.24,60.0439v.0684a5.3225,5.3225,0,0,1,3.0615,1.2285,3.4407,3.4407,0,0,1,1.04,2.6338,4.4615,4.4615,0,0,1-1.748,3.7529A8.0549,8.0549,0,0,1,68.6006,69.07a12.1261,12.1261,0,0,1-4.8213-.9023V65.1631a10.9294,10.9294,0,0,0,2.1357.8,9.0235,9.0235,0,0,0,2.3086.3086,4.4841,4.4841,0,0,0,2.582-.5947,2.1809,2.1809,0,0,0,.834-1.9082,1.722,1.722,0,0,0-.96-1.668,7.1038,7.1038,0,0,0-3.0615-.4912H66.35v-2.708h1.291a5.997,5.997,0,0,0,2.84-.5088A1.8362,1.8362,0,0,0,71.377,56.65q0-1.897-2.376-1.8965a5.4485,5.4485,0,0,0-1.6748.2744,8.18,8.18,0,0,0-1.8906.9482L63.8018,53.543a9.0727,9.0727,0,0,1,5.45-1.6455,7.04,7.04,0,0,1,4.0957,1.0508A3.3713,3.3713,0,0,1,74.8506,55.873Z"/><path class="cls-2" d="M88.7666,60.4893q0,4.377-1.4336,6.4785A4.9759,4.9759,0,0,1,82.917,69.07a4.9182,4.9182,0,0,1-4.3594-2.1709q-1.4678-2.1709-1.4678-6.41,0-4.4209,1.4277-6.5186a5.5554,5.5554,0,0,1,8.77.0977A11.5017,11.5017,0,0,1,88.7666,60.4893Zm-8.1689,0a12.9915,12.9915,0,0,0,.5313,4.4053,1.8592,1.8592,0,0,0,3.57-.0176,12.6432,12.6432,0,0,0,.5488-4.3877,12.6058,12.6058,0,0,0-.5547-4.416,1.85,1.85,0,0,0-3.5586,0A12.9654,12.9654,0,0,0,80.5977,60.4893Z"/><path class="cls-2" d="M75.8145,84.166h-2.458l-2.6738-4.3008-.915.6563V84.166H67.6035V73.958h2.1641v4.6709l.8516-1.2012,2.7656-3.47h2.4014l-3.5605,4.5176Z"/><path class="cls-2" d="M80.9746,78.4336h4.05v5.293a11.43,11.43,0,0,1-1.8535.45,12.1161,12.1161,0,0,1-1.7773.1289,4.4948,4.4948,0,0,1-3.5293-1.3584,5.648,5.648,0,0,1-1.2187-3.8994A5.1419,5.1419,0,0,1,78.06,75.1934a5.366,5.366,0,0,1,3.92-1.3818,7.59,7.59,0,0,1,3.0313.6279l-.72,1.7314a5.1408,5.1408,0,0,0-2.3252-.5586,2.8728,2.8728,0,0,0-2.248.9424A3.6573,3.6573,0,0,0,78.873,79.09a4.07,4.07,0,0,0,.6807,2.5381,2.3555,2.3555,0,0,0,1.9795.876,6.9453,6.9453,0,0,0,1.375-.14V80.2354H80.9746Z"/></svg>