<?xml version="1.0" encoding="utf-8"?>
<!-- Generator: Adobe Illustrator 23.0.1, SVG Export Plug-In . SVG Version: 6.00 Build 0)  -->
<svg version="1.1" id="Layer_1" xmlns="http://www.w3.org/2000/svg" xmlns:xlink="http://www.w3.org/1999/xlink" x="0px" y="0px"
	 viewBox="0 0 641.5 820.14" style="enable-background:new 0 0 641.5 820.14;" xml:space="preserve">
<style type="text/css">
	.st0{fill:#0095DA;}
	.st1{fill:#21409A;}
	.st2{fill:#53B7E8;}
	.st3{fill:#FFFFFF;}
</style>
<g>
	<path class="st2" d="M566.76,203.42l35.97-125.05c4.22-14.67-5.19-22.53-5.19-22.53l-56,85.46"/>
	<path class="st2" d="M559.23,807.87H256.21L581.58,250.3c19.88,67.56,49.04,212.3,37.51,316.06
		C612.34,627.12,559.23,807.87,559.23,807.87z"/>
	<path class="st1" d="M564.83,820.14H78.69c-5.48,0-10.3-3.64-11.8-8.91C64.8,803.9,15.65,631.01,6.81,571.15
		c-23.92-161.62,19.61-269.1,61.7-373.05c4.61-11.39,9.21-22.73,13.67-34.07C106.61,102.05,164.35,62,229.28,62h185.26
		c65.61,0,124.71,40.96,147.07,101.93c5.53,15.07,11.37,30.06,17.28,45.2c37.43,96.04,76.14,195.35,58,358.58
		c-6.8,61.12-58.1,236.19-60.28,243.61C575.08,816.55,570.28,820.14,564.83,820.14z M87.97,795.59h467.65
		c10.66-36.89,51.16-179.17,56.87-230.59c17.47-157.23-20.12-253.68-56.48-346.96c-5.96-15.3-11.86-30.44-17.44-45.66
		c-18.83-51.34-68.66-85.84-124.02-85.84H229.28c-54.78,0-103.56,33.95-124.26,86.49c-4.5,11.41-9.12,22.82-13.76,34.29
		c-40.85,100.9-83.1,205.23-60.17,360.24C38.59,618.27,77.62,758.77,87.97,795.59z"/>
	<path class="st1" d="M478.19,609.58H163.31c-5.65,0-10.23-4.58-10.23-10.23v-273.4c0-16.01,13.02-29.03,29.03-29.03h277.28
		c16.01,0,29.03,13.02,29.03,29.03v273.4C488.42,605,483.84,609.58,478.19,609.58z M173.54,589.12h294.43V325.95
		c0-4.73-3.84-8.57-8.57-8.57H182.11c-4.73,0-8.57,3.85-8.57,8.57V589.12z"/>
	<path class="st1" d="M385.28,235.67H256.21c-5.65,0-10.23-4.58-10.23-10.23v-44.05c0-5.65,4.58-10.23,10.23-10.23h129.07
		c5.65,0,10.23,4.58,10.23,10.23v44.05C395.51,231.09,390.93,235.67,385.28,235.67z M266.44,215.21h108.62v-23.6H266.44V215.21z"/>
	<path class="st1" d="M548.68,655.02H96.95c-4.65,0-8.72-3.14-9.89-7.64c-1.25-4.78-30.57-117.6-30.57-167.96
		c0-100.94,26.74-178.34,48.22-240.53c4.47-12.95,8.71-25.22,12.41-36.87c18.81-59.28,67.97-97.58,125.25-97.58h160.9
		c56.93,0,106.09,38.28,125.23,97.53c4.21,13.02,9.09,26.22,14.26,40.2c20.67,55.95,46.39,125.57,46.39,237.25
		c0,50.36-29.32,163.18-30.57,167.96C557.4,651.88,553.33,655.02,548.68,655.02z M104.9,634.57h435.83
		c6.63-26.46,27.96-114.63,27.96-155.15c0-108.02-23.97-172.91-45.13-230.16c-5.23-14.18-10.19-27.57-14.53-41
		c-16.36-50.64-57.88-83.36-105.77-83.36h-160.9c-48.18,0-89.69,32.7-105.75,83.31c-3.75,11.81-8.04,24.24-12.58,37.37
		c-20.98,60.74-47.1,136.34-47.1,233.85C76.94,519.95,98.27,608.11,104.9,634.57z"/>
	<path class="st1" d="M541.54,691.54H106.49c-4.52,0-8.18-3.66-8.18-8.18c0-4.52,3.66-8.18,8.18-8.18h435.05
		c4.52,0,8.18,3.66,8.18,8.18C549.72,687.87,546.06,691.54,541.54,691.54z"/>
	<path class="st1" d="M433.31,351.21H196.98c-4.52,0-8.18-3.66-8.18-8.18c0-4.52,3.66-8.18,8.18-8.18h236.33
		c4.52,0,8.18,3.66,8.18,8.18C441.5,347.54,437.84,351.21,433.31,351.21z"/>
	<path class="st1" d="M423.25,410.63h-31.59c-2.25,0-4.36-1.02-5.76-2.77s-1.92-4.05-1.41-6.23l13.78-60.24
		c0.76-3.35,3.74-5.72,7.18-5.72h4.04c3.44,0,6.42,2.37,7.18,5.72l13.78,60.24c0.5,2.19-0.02,4.48-1.41,6.23
		S425.49,410.63,423.25,410.63z M400.9,395.9h13.11l-6.56-28.67L400.9,395.9z"/>
	<path class="st1" d="M402.77,82.45h-26.8c-4.52,0-8.18-3.66-8.18-8.18V45.06h-88.86v29.21c0,4.52-3.66,8.18-8.18,8.18h-25.5
		c-4.52,0-8.18-3.66-8.18-8.18V30.4c0-17.33,12.47-30.4,28.99-30.4h115.91c16.52,0,28.99,13.07,28.99,30.4v43.87
		C410.96,78.79,407.3,82.45,402.77,82.45z M384.15,66.09h10.44V30.4c0-6.99-3.91-14.04-12.63-14.04H266.06
		c-8.72,0-12.63,7.05-12.63,14.04v35.68h9.13V41.8c0-7.22,5.95-13.1,13.27-13.1h95.04c7.32,0,13.27,5.88,13.27,13.1V66.09z"/>
	<path class="st1" d="M79.6,211.6c-3.56,0-6.83-2.34-7.86-5.93L35.76,80.63c-2.65-9.21-1.26-19.17,3.81-27.3
		c5.08-8.14,13.41-13.77,22.85-15.45l64.44-11.42c17.3-3.03,34.19,7.79,38.68,24.67l9.39,35.3c1.16,4.37-1.44,8.85-5.81,10.01
		c-4.35,1.17-8.85-1.44-10.01-5.81l-9.39-35.3c-2.32-8.73-11.12-14.35-19.99-12.75L65.29,53.99c-4.96,0.88-9.16,3.72-11.83,7.99
		c-2.66,4.27-3.36,9.29-1.97,14.12l35.97,125.05c1.25,4.34-1.25,8.87-5.6,10.12C81.11,211.5,80.34,211.6,79.6,211.6z"/>
	<path class="st1" d="M566.76,211.6c-0.74,0-1.5-0.1-2.26-0.32c-4.35-1.25-6.85-5.78-5.6-10.12L594.86,76.1
		c1.39-4.84,0.69-9.86-1.97-14.13c-2.66-4.27-6.86-7.11-11.82-7.98l-64.44-11.42c-8.86-1.59-17.68,4.02-20,12.76l-9.38,35.3
		c-1.17,4.37-5.67,6.96-10.01,5.81c-4.37-1.16-6.97-5.64-5.81-10.01l9.38-35.3c4.5-16.89,21.53-27.7,38.68-24.67l64.44,11.42
		c9.45,1.68,17.77,7.3,22.85,15.44c5.07,8.13,6.46,18.09,3.81,27.31l-35.97,125.05C573.59,209.27,570.31,211.6,566.76,211.6z"/>
</g>
</svg>
