<?xml version="1.0" encoding="utf-8"?>
<!-- Generator: Adobe Illustrator 23.0.1, SVG Export Plug-In . SVG Version: 6.00 Build 0)  -->
<svg version="1.1" id="Layer_1" xmlns="http://www.w3.org/2000/svg" xmlns:xlink="http://www.w3.org/1999/xlink" x="0px" y="0px"
	 viewBox="0 0 880.71 880.71" style="enable-background:new 0 0 880.71 880.71;" xml:space="preserve">
<style type="text/css">
	.st0{fill:#0095DA;}
	.st1{fill:#21409A;}
	.st2{fill:#FFFFFF;}
	.st3{fill:#1F4396;}
</style>
<g>
	<g>
		<path class="st0" d="M100.65,704.2c-7.47,0-14.83-3.5-19.47-10.06C-43.03,518.71-22.87,281.08,129.1,129.1
			C281.08-22.88,518.71-43.03,694.13,81.18c10.75,7.61,13.29,22.48,5.68,33.22c-7.6,10.74-22.47,13.3-33.22,5.68
			C510.18,9.34,298.32,27.31,162.8,162.81C27.31,298.31,9.34,510.18,120.08,666.6c7.61,10.74,5.07,25.62-5.68,33.22
			C110.22,702.78,105.41,704.2,100.65,704.2z"/>
		<path class="st1" d="M440.79,880.71c-88.4,0-177.28-26.7-254.23-81.18c-10.75-7.6-13.29-22.48-5.68-33.22
			c7.6-10.75,22.48-13.3,33.22-5.68c156.42,110.75,368.29,92.78,503.79-42.73c135.5-135.5,153.46-347.37,42.73-503.79
			c-7.61-10.74-5.07-25.62,5.68-33.22c10.75-7.62,25.62-5.06,33.22,5.68c124.21,175.43,104.05,413.07-47.92,565.04
			C666.29,836.94,553.94,880.71,440.79,880.71z"/>
	</g>
</g>
<g>
	<path class="st0" d="M440.16,603.14l6.27,16.33h18.21c2.79,0,4.05,3.49,1.91,5.27l-14.27,11.89l5.11,17.9
		c0.72,2.52-1.93,4.68-4.25,3.46l-15.79-8.3l-16.08,8.45c-2.28,1.2-4.9-0.86-4.28-3.36l4.6-18.59l-13.55-11.47
		c-2.12-1.79-0.85-5.26,1.93-5.26h18.64l6.02-16.29C435.6,600.67,439.14,600.65,440.16,603.14z"/>
	<g>
		<g>
			<g>
				<path class="st1" d="M361.85,784.47c-8.77,0-15.89-7.11-15.89-15.89v-6.97c0-8.77,7.11-15.89,15.89-15.89
					c8.77,0,15.89,7.11,15.89,15.89v6.97C377.74,777.36,370.63,784.47,361.85,784.47z"/>
				<path class="st1" d="M511.12,784.47c-8.77,0-15.89-7.11-15.89-15.89v-6.97c0-8.77,7.11-15.89,15.89-15.89
					c8.77,0,15.89,7.11,15.89,15.89v6.97C527.01,777.36,519.89,784.47,511.12,784.47z"/>
			</g>
			<g>
				<path class="st1" d="M538.44,768.93H334.56c-20.49,0-37.16-16.67-37.16-37.16V425.92c0-20.47,16.66-37.13,37.13-37.13h203.93
					c20.47,0,37.12,16.66,37.12,37.13v305.86C575.59,752.26,558.93,768.93,538.44,768.93z M334.53,412.62
					c-7.33,0-13.3,5.96-13.3,13.29v305.86c0,7.35,5.98,13.32,13.33,13.32h203.87c7.35,0,13.32-5.97,13.32-13.32V425.92
					c0-7.33-5.96-13.29-13.29-13.29H334.53z"/>
			</g>
			<g>
				<path class="st1" d="M485.34,408.66C485.34,408.66,485.34,408.66,485.34,408.66c-4.39,0-7.94-3.56-7.94-7.95l0.03-44.91
					c0-4.39,3.56-7.94,7.94-7.94c0,0,0,0,0.01,0c4.38,0,7.94,3.56,7.94,7.95l-0.03,44.91C493.28,405.11,489.72,408.66,485.34,408.66
					z"/>
				<path class="st1" d="M485.34,275.31c-4.39,0-7.94-3.56-7.94-7.94V199.1c0-4.39,3.55-7.94,7.94-7.94s7.94,3.56,7.94,7.94v68.26
					C493.28,271.75,489.73,275.31,485.34,275.31z"/>
			</g>
			<g>
				<path class="st1" d="M380.19,408.66c-4.39,0-7.94-3.56-7.94-7.94V199.1c0-4.39,3.55-7.94,7.94-7.94s7.94,3.56,7.94,7.94v201.61
					C388.14,405.1,384.58,408.66,380.19,408.66z"/>
			</g>
			<path class="st1" d="M491.97,207.38h-11.19c-6.58,0-11.92-5.33-11.92-11.92v-15.5h-70.98v15.5c0,6.58-5.34,11.92-11.92,11.92
				h-12.15c-6.58,0-11.92-5.33-11.92-11.92v-23.29c0-11.91,2.78-22.94,22.93-22.94h96.74c4.58,0,13.1,0,18.38,6.55
				c3.94,4.89,3.94,10.42,3.94,16.27v23.41C503.89,202.05,498.55,207.38,491.97,207.38z"/>
			<path class="st1" d="M460.55,408.69c-4.39,0-7.94-3.56-7.94-7.94V379.6c0-1.33-0.26-2.25-0.47-2.77H412.8
				c-0.22,0.52-0.47,1.44-0.47,2.77v21.14c0,4.39-3.55,7.94-7.94,7.94s-7.94-3.56-7.94-7.94V379.6c0-10.81,6.46-18.66,15.36-18.66
				h41.33c8.9,0,15.36,7.84,15.36,18.66v21.14C468.49,405.13,464.94,408.69,460.55,408.69z"/>
			<path class="st1" d="M516.26,532.79H352.35c-5.49,0-9.93-4.45-9.93-9.93v-83.08c0-5.49,4.45-9.93,9.93-9.93h163.91
				c5.49,0,9.93,4.45,9.93,9.93v83.08C526.19,528.34,521.75,532.79,516.26,532.79z M362.28,512.93h144.05v-63.22H362.28V512.93z"/>
			<path class="st1" d="M487.7,481.99H383.14c-4.39,0-7.94-3.56-7.94-7.94c0-4.39,3.55-7.94,7.94-7.94H487.7
				c4.39,0,7.94,3.56,7.94,7.94C495.65,478.43,492.09,481.99,487.7,481.99z"/>
		</g>
	</g>
	<path class="st1" d="M494.89,364.09c-1.05,0-2.09-0.18-3.1-0.54l-48.41-17.48c-4.46-1.61-6.94-6.36-5.73-10.94l13.25-49.74
		c0.66-2.47,2.33-4.56,4.59-5.75l234.38-122.58c2.15-1.12,4.65-1.35,6.97-0.62c2.31,0.73,4.24,2.34,5.37,4.49l35.15,67.22
		c2.34,4.47,0.61,9.99-3.86,12.33L499.12,363.05C497.8,363.74,496.35,364.09,494.89,364.09z M457.47,331.72l36.74,13.27
		l222.73-116.48l-26.69-51.02L467.53,293.97L457.47,331.72z"/>
	<g>
		<path class="st0" d="M437.23,697.7c-35.65,0-64.66-29.01-64.66-64.66c0-35.65,29.01-64.66,64.66-64.66
			c35.66,0,64.67,29.01,64.67,64.66C501.9,668.69,472.89,697.7,437.23,697.7z M437.23,588.24c-24.7,0-44.8,20.1-44.8,44.8
			c0,24.7,20.09,44.8,44.8,44.8c24.7,0,44.81-20.09,44.81-44.8C482.04,608.33,461.94,588.24,437.23,588.24z"/>
	</g>
	<g>
		<g>
			<path class="st1" d="M509.57,297.5c1.8,3.43,2.17,6.57,1.15,9.48c-1.02,2.91-3.37,5.32-7.03,7.24l-2.3,1.2l5.29,10.13l-8.16,4.27
				l-16-30.56l10.47-5.48c3.83-2,7.14-2.65,9.95-1.97C505.73,292.5,507.94,294.4,509.57,297.5z M497.87,308.69l1.49-0.78
				c1.23-0.64,2.02-1.51,2.37-2.58c0.36-1.08,0.23-2.23-0.42-3.45c-1.07-2.06-2.75-2.51-5.01-1.32l-2.11,1.1L497.87,308.69z"/>
			<path class="st1" d="M527.66,300.42l5.8,11.13l-8.18,4.27l-15.98-30.56l9.92-5.19c8.22-4.3,13.9-3.44,17.05,2.58
				c1.86,3.55,1.58,7.18-0.82,10.91l15.78,8.7l-9.28,4.85l-12.23-7.77L527.66,300.42z M524.42,294.22l1.52-0.81
				c2.86-1.49,3.62-3.51,2.28-6.07c-1.1-2.1-3.04-2.42-5.85-0.95l-1.61,0.85L524.42,294.22z"/>
			<path class="st1" d="M553.98,300.82l-15.98-30.56l8.21-4.3l16,30.56L553.98,300.82z"/>
			<path class="st1" d="M589.03,262.98c2.7,5.14,3.49,9.7,2.39,13.69c-1.1,3.97-4.05,7.21-8.88,9.73
				c-4.75,2.48-9.08,3.06-13.02,1.68c-3.94-1.37-7.25-4.62-9.95-9.75c-2.65-5.09-3.43-9.64-2.31-13.64c1.12-4,4.07-7.26,8.88-9.78
				c4.81-2.51,9.16-3.09,13.03-1.72C583.04,254.56,586.33,257.82,589.03,262.98z M568.22,273.87c3.09,5.9,6.66,7.79,10.72,5.66
				c2.08-1.09,3.24-2.6,3.49-4.55c0.25-1.97-0.42-4.45-2.02-7.49c-1.58-3.06-3.27-5.04-5.06-5.97c-1.77-0.93-3.66-0.87-5.68,0.19
				C565.58,263.84,565.1,267.91,568.22,273.87z"/>
			<path class="st1" d="M604.87,260.04l5.8,11.13l-8.18,4.27l-15.98-30.56l9.92-5.18c8.22-4.31,13.9-3.44,17.05,2.58
				c1.86,3.55,1.58,7.18-0.82,10.91l15.78,8.7l-9.28,4.85l-12.23-7.77L604.87,260.04z M601.63,253.84l1.52-0.8
				c2.86-1.5,3.62-3.52,2.28-6.07c-1.1-2.1-3.04-2.42-5.85-0.95l-1.61,0.85L601.63,253.84z"/>
			<path class="st1" d="M631.19,260.44l-15.98-30.56l8.21-4.3l16,30.56L631.19,260.44z"/>
			<path class="st1" d="M659.29,245.74l-8.16,4.27l-12.46-23.81l-7.39,3.86l-3.54-6.75l22.93-11.99l3.54,6.75l-7.37,3.86
				L659.29,245.74z"/>
			<path class="st1" d="M671.74,214.74l-0.71-14.05l8.86-4.63l-0.22,23.83l6.25,11.93l-8.24,4.31l-6.11-11.68l-19.83-13.67
				l8.89-4.66L671.74,214.74z"/>
		</g>
	</g>
</g>
</svg>
