<?xml version="1.0" encoding="utf-8"?>
<!-- Generator: Adobe Illustrator 16.0.0, SVG Export Plug-In . SVG Version: 6.00 Build 0)  -->
<!DOCTYPE svg PUBLIC "-//W3C//DTD SVG 1.1//EN" "http://www.w3.org/Graphics/SVG/1.1/DTD/svg11.dtd">
<svg version="1.1" id="Layer_1" xmlns="http://www.w3.org/2000/svg" xmlns:xlink="http://www.w3.org/1999/xlink" x="0px" y="0px"
	 width="99.651px" height="99.65px" viewBox="0 0 99.651 99.65" style="enable-background:new 0 0 99.651 99.65;"
	 xml:space="preserve">
<image style="overflow:visible;" width="143" height="131" xlink:href="6447AF86.jpg"  transform="matrix(0.2977 0 0 0.2977 -162.6875 11.5957)">
</image>
<g>
	<path style="fill:#0093D8;" d="M32.384,44.038c-0.829,0-1.659-0.184-2.468-0.548c-3.923-1.764-5.049-3.867-5.303-5.321
		c-0.212-1.213-0.017-3.092,2.119-5.156c0.197-0.188,4.732-4.458,9.977-6.208l0,0c-0.01,0,1.818-0.77,3.545-0.77
		c1.617,0,2.471,0.669,2.903,1.23c0.747,0.97,0.873,2.337,0.386,4.179C43.065,32.814,38.934,44.038,32.384,44.038z M40.254,28.423
		c-1.227,0-2.686,0.607-2.699,0.613c-4.822,1.613-9.129,5.661-9.172,5.702c-1.102,1.065-1.582,2.083-1.418,3.021
		c0.219,1.25,1.614,2.513,3.931,3.554c0.505,0.228,0.992,0.338,1.488,0.338c4.132,0,7.811-7.874,8.879-10.908
		c0.364-1.395,0.095-1.901,0.003-2.021C41.064,28.462,40.546,28.423,40.254,28.423z"/>
	<g>
		<g>
			<path style="fill:#0093D8;" d="M73.193,72.536l-5.621-0.001l-3.734-19.368c-0.137-0.345-0.309-1.021,0.027-1.752
				c0.344-0.748,1.07-1.246,2.16-1.481l0.213-0.026l5.018-0.159c0,0,0,0,0.002,0c0.475,0,2.65,0.242,3.021,4.935l2.082,14.219
				c0.086,0.362,0.277,1.527-0.451,2.495C75.52,71.916,74.73,72.536,73.193,72.536z M69.541,70.147l3.652,0.001
				c0.527,0,0.758-0.118,0.811-0.188c0.088-0.118,0.057-0.433,0.037-0.495l-0.033-0.159l-2.1-14.356
				c-0.164-2.042-0.641-2.661-0.795-2.81l-4.682,0.149c-0.146,0.037-0.248,0.076-0.314,0.106l0.039,0.188L69.541,70.147z"/>
			<path style="fill:#0093D8;" d="M70.252,73.35c-0.318,1.313-1.635,2.163-2.947,1.898c-1.314-0.263-2.127-1.545-1.809-2.854
				c0.316-1.313,1.637-2.168,2.945-1.903C69.756,70.757,70.568,72.037,70.252,73.35z"/>
		</g>
	</g>
	<g>
		<g>
			<g>
				<circle style="fill:#1F419A;" cx="56.332" cy="23.356" r="5.379"/>
				<path style="fill:#1F419A;" d="M27.771,73.59c4.304-5.535,8.611-14.666,12.919-21.267c0.258,0.641,0.725,1.222,1.467,1.644
					c3.146,1.791,5.902,4.188,8.24,6.943c-0.934,3.69-1.865,7.379-2.797,11.067c-1.048,4.151,5.482,5.324,6.52,1.198
					c0.98-3.87,1.959-7.738,2.938-11.613c0.086-0.338,0.105-0.65,0.096-0.952c0.238-0.808,0.117-1.724-0.592-2.617
					c-2.545-3.196-5.447-5.968-8.77-8.259c1.512-2.937,3.088-5.835,4.703-8.714c2.666,3.693,6.184,6.5,11.078,7.932
					c3.895,1.139,5.547-4.919,1.67-6.053c-4.953-1.45-7.906-4.926-9.961-9.378c-0.645-3.1-4.209-5.245-7.249-4.431
					c-0.093,0-0.565,0.202-0.663,0.21c-2.723,1.552-1.289-0.155-4.859,6.47c-1.563,2.802-3.094,5.624-4.557,8.477
					c-0.204,0.39-0.352,0.776-0.463,1.159c-1.232,2.103-8.563,14.566-14.973,24.133C19.887,72.923,25.143,76.966,27.771,73.59z"/>
			</g>
		</g>
	</g>
</g>
<g>
	<g>
		<path style="fill:#0095DA;" d="M11.39,79.68c-0.846,0-1.677-0.396-2.204-1.139c-14.055-19.85-11.773-46.738,5.423-63.933
			C31.805-2.588,58.691-4.869,78.541,9.186c1.217,0.86,1.504,2.543,0.643,3.759c-0.861,1.215-2.545,1.505-3.76,0.642
			C57.729,1.058,33.756,3.09,18.422,18.421C3.09,33.753,1.058,57.726,13.588,75.424c0.861,1.216,0.572,2.899-0.643,3.76
			C12.473,79.519,11.928,79.68,11.39,79.68z"/>
		<path style="fill:#21409A;" d="M49.875,99.65c-10,0-20.059-3.021-28.764-9.184c-1.217-0.861-1.504-2.545-0.643-3.76
			c0.859-1.215,2.543-1.504,3.758-0.643C41.926,98.596,65.898,96.562,81.23,81.23s17.365-39.305,4.834-57.002
			c-0.859-1.215-0.572-2.899,0.643-3.759c1.219-0.862,2.898-0.572,3.76,0.642c14.055,19.85,11.773,46.738-5.424,63.933
			C75.391,94.697,62.68,99.65,49.875,99.65z"/>
	</g>
</g>
<g>
	<g>
		<path style="fill:#0095DA;" d="M-189.823,76.423c-0.846,0-1.677-0.396-2.204-1.139c-14.054-19.85-11.773-46.737,5.423-63.933
			c17.197-17.196,44.083-19.477,63.933-5.422c1.216,0.86,1.503,2.543,0.643,3.759c-0.861,1.215-2.545,1.505-3.76,0.642
			c-17.696-12.529-41.669-10.497-57.002,4.834c-15.333,15.332-17.365,39.305-4.834,57.002c0.861,1.217,0.573,2.9-0.642,3.76
			C-188.74,76.263-189.285,76.423-189.823,76.423z"/>
		<path style="fill:#21409A;" d="M-151.337,96.394c-10.001,0-20.059-3.02-28.765-9.184c-1.216-0.861-1.503-2.545-0.642-3.76
			c0.86-1.215,2.542-1.504,3.759-0.643c17.699,12.531,41.671,10.498,57.003-4.834c15.331-15.33,17.365-39.304,4.834-57.001
			c-0.86-1.215-0.572-2.899,0.643-3.759c1.218-0.862,2.898-0.572,3.759,0.642c14.055,19.85,11.773,46.737-5.423,63.933
			C-125.822,91.44-138.534,96.394-151.337,96.394z"/>
	</g>
</g>
<g>
	<g>
		<path style="fill:#21409A;" d="M-140.91,20.715c-2.514,0-4.559-2.046-4.559-4.56c0-2.514,2.046-4.56,4.559-4.56
			c2.514,0,4.56,2.045,4.56,4.56C-136.35,18.669-138.396,20.715-140.91,20.715z M-140.91,14.356c-0.992,0-1.799,0.807-1.799,1.8
			s0.807,1.8,1.799,1.8c0.994,0,1.801-0.807,1.801-1.8S-139.917,14.356-140.91,14.356z"/>
		<path style="fill:#21409A;" d="M-137.817,47.719h-4.304c-1.537,0-2.787-1.25-2.787-2.787V35.78
			c-0.822-1.067-1.271-2.374-1.271-3.734v-6.533c0-2.853,2.321-5.173,5.173-5.173s5.172,2.32,5.172,5.173v5.934
			c0,1.676-0.691,3.285-1.904,4.438v6.775l0.277,0.126c0.987,0.449,1.627,1.441,1.627,2.526v0.425
			C-135.833,46.83-136.722,47.719-137.817,47.719z M-141.005,23.099c-1.332,0-2.414,1.083-2.414,2.414v6.533
			c0,0.853,0.32,1.666,0.901,2.291c0.237,0.255,0.37,0.59,0.37,0.939v9.657l2.778,0.018l-0.317-0.147
			c-0.493-0.223-0.809-0.715-0.809-1.256v-8.271c0-0.388,0.164-0.759,0.451-1.02l0.348-0.318c0.703-0.637,1.105-1.545,1.105-2.492
			v-5.934C-138.592,24.182-139.675,23.099-141.005,23.099z"/>
		<path style="fill:#0095DA;" d="M-152.406,20.715c-2.514,0-4.558-2.046-4.558-4.56c0-2.514,2.045-4.56,4.558-4.56
			c2.514,0,4.559,2.045,4.559,4.56C-147.847,18.669-149.892,20.715-152.406,20.715z M-152.406,14.356
			c-0.992,0-1.799,0.807-1.799,1.8s0.807,1.8,1.799,1.8c0.992,0,1.799-0.807,1.799-1.8S-151.414,14.356-152.406,14.356z"/>
		<path style="fill:#0095DA;" d="M-162.216,20.715c-2.514,0-4.558-2.046-4.558-4.56c0-2.514,2.044-4.56,4.558-4.56
			c2.514,0,4.56,2.045,4.56,4.56C-157.657,18.669-159.701,20.715-162.216,20.715z M-162.216,14.356c-0.992,0-1.799,0.807-1.799,1.8
			s0.807,1.8,1.799,1.8c0.993,0,1.8-0.807,1.8-1.8S-161.223,14.356-162.216,14.356z"/>
		<path style="fill:#0095DA;" d="M-150.673,47.72h-3.733c-1.18,0-2.204-0.63-2.7-1.544c-0.21,0.883-1.042,1.544-2.031,1.544h-3.733
			c-1.664,0-3.017-1.25-3.017-2.788v-9.096c-0.685-0.773-1.149-1.684-1.354-2.662c-0.016-0.074-0.024-0.147-0.028-0.222
			c-0.011-0.25-0.268-6.177,0.099-8.694c0.012-0.081,0.032-0.162,0.057-0.241c0.74-2.199,2.966-3.676,5.54-3.676
			c1.655,0,3.167,0.611,4.231,1.633c1.064-1.022,2.577-1.633,4.232-1.633c3.191,0,5.789,2.32,5.789,5.173v5.934
			c0,1.762-0.852,3.438-2.338,4.599c-0.145,0.112-0.309,0.195-0.482,0.243l-0.138,0.037v6.824c0.872,0.454,1.688,1.125,1.688,2.16
			v0.427C-148.591,46.831-149.525,47.72-150.673,47.72z M-159.642,45.837L-159.642,45.837L-159.642,45.837z M-154.65,44.916
			c0.031,0,0.113,0.044,0.244,0.044h1.712c-0.226-0.253-0.356-0.585-0.352-0.939l0.007-0.494v-8.252c0-0.62,0.415-1.165,1.013-1.331
			l0.863-0.238c0.691-0.618,1.082-1.43,1.082-2.261v-5.934c0-1.331-1.36-2.414-3.029-2.414c-1.365,0-2.568,0.739-2.924,1.798
			c-0.189,0.561-0.716,0.939-1.308,0.939s-1.118-0.378-1.308-0.939c-0.356-1.059-1.559-1.798-2.925-1.798
			c-1.318,0-2.485,0.689-2.884,1.69c-0.244,1.907-0.132,6.222-0.061,7.917c0.143,0.577,0.47,1.113,0.948,1.556
			c0.283,0.262,0.443,0.628,0.443,1.013v9.652c0.002-0.037,0.09,0.033,0.257,0.033h1.712c-0.226-0.253-0.356-0.585-0.352-0.939
			l0.006-0.494v-8.252c0-0.762,0.618-1.38,1.38-1.38h4.08c0.762,0,1.38,0.618,1.38,1.38v9.652
			C-154.664,44.919-154.659,44.916-154.65,44.916z M-158.743,43.15c0.51,0.265,1,0.605,1.321,1.048v-7.543h-1.321V43.15z
			 M-150.509,34.958h0.01H-150.509z"/>
	</g>
	<g>
		<path style="fill:#21409A;" d="M-158.572,78.29h-12.805c-0.762,0-1.38-0.617-1.38-1.379V66.288c0-4.291,3.492-7.781,7.783-7.781
			s7.783,3.49,7.783,7.781v10.623C-157.191,77.675-157.81,78.29-158.572,78.29z M-169.998,75.532h10.046V66.29
			c0-2.77-2.253-5.023-5.024-5.023c-2.769,0-5.023,2.254-5.023,5.023v9.242H-169.998z"/>
		<path style="fill:#21409A;" d="M-162.547,60.655c-0.673,0-1.262-0.492-1.362-1.18c-0.339-2.297-0.723-2.297-1.03-2.297
			c-0.257,0-0.76,0-1.099,2.297c-0.111,0.754-0.816,1.279-1.566,1.164c-0.754-0.109-1.274-0.811-1.165-1.564
			c0.169-1.152,0.685-4.656,3.761-4.656c3.142,0,3.605,3.145,3.827,4.656c0.111,0.752-0.41,1.455-1.165,1.564
			C-162.412,60.649-162.48,60.655-162.547,60.655z"/>
		<path style="fill:#0095DA;" d="M-163.439,65.368h-3.072c-0.508,0-0.919-0.412-0.919-0.92s0.411-0.918,0.919-0.918h3.072
			c0.508,0,0.919,0.41,0.919,0.918S-162.931,65.368-163.439,65.368z"/>
		<path style="fill:#0095DA;" d="M-162.142,72.843c-0.508,0-0.919-0.412-0.919-0.92v-0.986h-3.854v0.986
			c0,0.508-0.412,0.92-0.919,0.92c-0.508,0-0.919-0.412-0.919-0.92v-1.904c0-0.51,0.411-0.92,0.919-0.92h5.693
			c0.508,0,0.919,0.41,0.919,0.92v1.904C-161.222,72.429-161.633,72.843-162.142,72.843z"/>
	</g>
	<g>
		<path style="fill:#21409A;" d="M-144.368,83.644c-1.017,0-1.84-0.822-1.84-1.84v-0.447c0-1.018,0.823-1.84,1.84-1.84
			s1.84,0.822,1.84,1.84v0.447C-142.528,82.821-143.351,83.644-144.368,83.644z"/>
		<path style="fill:#21409A;" d="M-134.773,83.644c-1.016,0-1.84-0.822-1.84-1.84v-0.447c0-1.018,0.824-1.84,1.84-1.84
			s1.84,0.822,1.84,1.84v0.447C-132.934,82.821-133.757,83.644-134.773,83.644z"/>
		<path style="fill:#21409A;" d="M-132.937,81.683h-13.266c-1.611,0-2.922-1.311-2.922-2.92v-19.82c0-1.609,1.311-2.92,2.92-2.92
			h13.27c1.609,0,2.918,1.311,2.918,2.92v19.822C-130.015,80.374-131.327,81.683-132.937,81.683z M-146.205,58.782
			c-0.088,0-0.16,0.07-0.16,0.16v19.822c0,0.088,0.072,0.16,0.162,0.16h13.266c0.088,0,0.161-0.072,0.161-0.16V58.942
			c0-0.088-0.071-0.16-0.159-0.16H-146.205z"/>
		<path style="fill:#21409A;" d="M-135.792,54.966h-7.554c-0.763,0-1.38-0.617-1.38-1.381c0-0.762,0.617-1.379,1.38-1.379h7.554
			c0.762,0,1.381,0.617,1.381,1.379C-134.414,54.349-135.031,54.966-135.792,54.966z"/>
		<path style="fill:#21409A;" d="M-139.569,63.288c-2.134,0-3.87-1.65-3.87-3.68v-5.756c0-0.762,0.618-1.381,1.381-1.381
			c0.762,0,1.38,0.619,1.38,1.381v5.756c0,0.508,0.498,0.922,1.109,0.922s1.11-0.414,1.11-0.922v-5.756
			c0-0.762,0.617-1.381,1.379-1.381c0.763,0,1.381,0.619,1.381,1.381v5.756C-135.701,61.638-137.437,63.288-139.569,63.288z"/>
		<path style="fill:#0095DA;" d="M-135.527,75.862h-8.086c-0.508,0-0.919-0.41-0.919-0.92c0-0.508,0.411-0.918,0.919-0.918h8.086
			c0.509,0,0.92,0.41,0.92,0.918C-134.607,75.452-135.018,75.862-135.527,75.862z"/>
	</g>
</g>
</svg>
