<?xml version="1.0" encoding="utf-8"?>
<!-- Generator: Adobe Illustrator 23.0.1, SVG Export Plug-In . SVG Version: 6.00 Build 0)  -->
<svg version="1.1" id="Layer_1" xmlns="http://www.w3.org/2000/svg" xmlns:xlink="http://www.w3.org/1999/xlink" x="0px" y="0px"
	 viewBox="0 0 289.6 289.6" style="enable-background:new 0 0 289.6 289.6;" xml:space="preserve">
<style type="text/css">
	.st0{fill:#A7A9AC;}
	.st1{fill:#0095DA;}
	.st2{fill:#21409A;}
</style>
<g>
	<g>
		<path class="st1" d="M34.4,232.2c-3,0-5.9-1.4-7.7-4C-14.2,170.6-7.5,92.4,42.4,42.5c50-50,128.1-56.6,185.8-15.8
			c4.3,3,5.3,8.9,2.3,13.2c-3,4.3-8.9,5.3-13.2,2.3C167.2,6.6,99.3,12.4,55.8,55.8C12.4,99.3,6.6,167.2,42.1,217.3
			c3,4.3,2,10.1-2.3,13.2C38.2,231.7,36.3,232.2,34.4,232.2"/>
		<path class="st2" d="M144.9,289.6c-29.1,0-58.3-8.8-83.6-26.7c-4.3-3-5.3-8.9-2.3-13.2c3-4.3,8.9-5.3,13.2-2.3
			c50.2,35.5,118.1,29.8,161.5-13.7c43.4-43.4,49.2-111.4,13.7-161.5c-3-4.3-2-10.1,2.2-13.2c4.3-3,10.1-2,13.2,2.2
			c40.8,57.7,34.2,135.8-15.8,185.8C219.1,275.2,182.1,289.6,144.9,289.6"/>
	</g>
	<g>
		<g>
			<g>
				<path class="st2" d="M184.4,102.6c-2.9-2.7-12.4,2.6-15.1,5.6l-11,11.8l-51.7,1.8c-1.2,0-2.3,1-2.4,2.2
					c-0.2,1.2,0.5,2.4,1.7,2.8l34.7,12.4l-17.7,22l-22.4,0.4c-0.4,0-0.8,0.3-0.8,0.8c-0.1,0.4,0.2,0.8,0.6,1l16.9,6
					c0.1,0.4,0.3,0.8,0.4,1.2l-0.7,0.8c-1,1.1-0.9,2.8,0.1,3.8c1.1,1,2.8,0.9,3.8-0.1l0.7-0.7c0.4,0.2,0.8,0.3,1.3,0.4l7,16.3
					c0.2,0.4,0.6,0.6,1,0.5c0.2,0,0.3-0.1,0.5-0.3c0.2-0.2,0.2-0.4,0.2-0.6l-1.1-22.1l21-19.4l14.6,33.9c0.5,1.1,1.7,1.8,2.9,1.5
					c0.5-0.1,1-0.4,1.3-0.7c0.5-0.5,0.7-1.1,0.7-1.8l-1.8-51.7l11-11.8C182.6,115.2,187.3,105.4,184.4,102.6z"/>
			</g>
			<path class="st1" d="M154.5,87.8c-1.2,0-2.4-0.5-3.3-1.4l-12.9-13.1c-0.9-1-1.4-2.3-1.3-3.6s0.8-2.6,1.9-3.4l14.8-11
				c2.1-1.5,5-1.1,6.5,1c1.5,2.1,1.1,5-1,6.5l-10.5,7.8l9.2,9.4c1.8,1.8,1.8,4.8-0.1,6.5C156.9,87.4,155.7,87.8,154.5,87.8z"/>
			<path class="st1" d="M215.6,193.2c-2.1,0-4-1.5-4.5-3.6l-2.9-12.8l-12.3,4.6c-2.4,0.9-5.1-0.3-6-2.7c-0.9-2.4,0.3-5.1,2.7-6
				l17.2-6.5c1.2-0.5,2.6-0.4,3.8,0.2c1.2,0.6,2,1.7,2.3,3.1l4.1,18c0.6,2.5-1,5-3.5,5.5C216.3,193.1,215.9,193.2,215.6,193.2z"/>
			<path class="st1" d="M90.2,195c-0.2,0-0.4,0-0.6,0l-18.3-2.3c-2.5-0.3-4.3-2.6-4-5.2c0.3-2.5,2.6-4.3,5.2-4l13,1.6L85.3,172
				c0-2.6,2-4.7,4.6-4.7c2.6,0.1,4.7,2,4.7,4.6l0.2,18.4c0,1.3-0.5,2.6-1.5,3.5C92.4,194.6,91.3,195,90.2,195z"/>
		</g>
		<path class="st1" d="M145.1,220.1c-16.4,0-32-5.1-45.3-14.6c-2.1-1.5-2.5-4.4-1-6.5c1.5-2.1,4.4-2.5,6.5-1
			c11.6,8.4,25.4,12.9,39.8,12.9c26.5,0,50.7-15.5,61.8-39.6c1.1-2.3,3.8-3.3,6.1-2.3c2.3,1.1,3.3,3.8,2.3,6.1
			C202.7,202.4,175.1,220.1,145.1,220.1z"/>
		<path class="st1" d="M216.7,159.8c-0.3,0-0.5,0-0.8-0.1c-2.5-0.4-4.2-2.8-3.8-5.3c0.7-3.8,1-7.7,1-11.6c0-37.5-30.5-68-68-68
			c-0.6,0-1.2,0-1.8,0c0,0-0.1,0-0.1,0c-2.5,0-4.6-2-4.6-4.5c-0.1-2.6,2-4.7,4.5-4.7c0.7,0,1.3,0,2,0c42.6,0,77.3,34.7,77.3,77.3
			c0,4.4-0.4,8.9-1.1,13.2C220.8,158.2,218.9,159.8,216.7,159.8z"/>
		<path class="st1" d="M90,194.9c-1.3,0-2.6-0.5-3.5-1.6c-12.1-14-18.7-31.9-18.7-50.4c0-34.4,23.1-65,56.2-74.4
			c2.5-0.7,5,0.7,5.7,3.2c0.7,2.5-0.7,5-3.2,5.7C97.4,85.6,77,112.5,77,142.8c0,16.3,5.9,32.1,16.5,44.4c1.7,1.9,1.5,4.9-0.5,6.5
			C92.1,194.5,91.1,194.9,90,194.9z"/>
	</g>
</g>
</svg>
