<?xml version="1.0" encoding="utf-8"?>
<!-- Generator: Adobe Illustrator 23.0.1, SVG Export Plug-In . SVG Version: 6.00 Build 0)  -->
<svg version="1.1" id="Layer_1" xmlns="http://www.w3.org/2000/svg" xmlns:xlink="http://www.w3.org/1999/xlink" x="0px" y="0px"
	 viewBox="0 0 251.91 164.09" style="enable-background:new 0 0 251.91 164.09;" xml:space="preserve">
<style type="text/css">
	.st0{fill:#F3F3F3;}
	.st1{fill:#0095DA;}
	.st2{fill:#21409A;}
</style>
<g>
	<g>
		<g>
			<g>
				<path class="st2" d="M65.37,83.19c-19.16,0-35.21-14.36-37.32-33.39l-0.9-8.06c-1.19-10.62,2.21-21.26,9.33-29.22
					S53.79,0,64.47,0h1.71c10.59,0,20.74,4.5,27.85,12.36c7.11,7.85,10.58,18.4,9.52,28.94l-0.81,8.07
					C100.82,68.64,84.76,83.19,65.37,83.19z M64.47,17.98c-5.65,0-10.83,2.32-14.59,6.53c-3.76,4.21-5.5,9.62-4.86,15.23l0.9,8.06
					c1.11,9.93,9.47,17.41,19.45,17.41c10.1,0,18.48-7.58,19.48-17.63l0.81-8.08c0.56-5.57-1.21-10.93-4.97-15.08
					c-3.76-4.15-8.91-6.44-14.52-6.44H64.47z"/>
			</g>
		</g>
		<path class="st2" d="M68.83,163.14c-24.92,0-53.1-5.48-66.2-18.58C0.95,142.87,0,140.58,0,138.2v-4.46
			c0-32.45,26.4-58.84,58.84-58.84h14.8c32.45,0,58.84,26.4,58.84,58.84v4.46c0,2.05-0.7,4.05-2,5.65
			c-11.94,14.78-38.34,18.29-53.02,19.07C74.66,163.06,71.77,163.14,68.83,163.14z M17.98,134.03c10.7,7.58,34.71,12.23,58.55,10.93
			c17.28-0.91,31.38-4.82,37.98-10.39v-0.83c0-22.53-18.33-40.86-40.86-40.86h-14.8c-22.53,0-40.86,18.33-40.86,40.86V134.03z"/>
	</g>
	<g>
		<g>
			<g>
				<path class="st2" d="M184.79,83.19c-19.16,0-35.2-14.35-37.33-33.38l-0.9-8.08c-1.18-10.61,2.22-21.25,9.34-29.21
					S173.22,0,183.89,0h1.71c10.59,0,20.74,4.5,27.85,12.36c7.11,7.85,10.58,18.4,9.52,28.94l-0.81,8.07
					C220.24,68.64,204.18,83.19,184.79,83.19z M183.89,17.98c-5.65,0-10.83,2.32-14.59,6.53c-3.76,4.21-5.5,9.62-4.86,15.23
					l0.9,8.07c1.11,9.92,9.47,17.4,19.45,17.4c10.1,0,18.48-7.58,19.48-17.63l0.81-8.08c0.56-5.57-1.21-10.93-4.97-15.08
					c-3.76-4.16-8.91-6.44-14.52-6.44H183.89z"/>
			</g>
		</g>
		<path class="st2" d="M188.57,164.09c-14.69,0-29.48-2.19-41.7-6.41c-4.69-1.63-7.18-6.74-5.56-11.44
			c1.62-4.69,6.73-7.18,11.44-5.56c27.06,9.37,67.57,6.02,81.18-6.05v-0.88c0-22.53-18.33-40.86-40.86-40.86h-14.8
			c-10.52,0-19.85,3.79-28.5,11.58c-3.69,3.33-9.37,3.04-12.69-0.66c-3.32-3.69-3.03-9.37,0.66-12.69
			c11.94-10.75,25.58-16.21,40.54-16.21h14.8c32.45,0,58.84,26.4,58.84,58.84v4.46c0,2.05-0.7,4.05-2,5.65
			C238.79,157.61,213.82,164.09,188.57,164.09z"/>
	</g>
</g>
</svg>
