<?xml version="1.0" encoding="utf-8"?>
<!-- Generator: Adobe Illustrator 23.0.1, SVG Export Plug-In . SVG Version: 6.00 Build 0)  -->
<svg version="1.1" id="Layer_1" xmlns="http://www.w3.org/2000/svg" xmlns:xlink="http://www.w3.org/1999/xlink" x="0px" y="0px"
	 viewBox="0 0 880.71 880.71" style="enable-background:new 0 0 880.71 880.71;" xml:space="preserve">
<style type="text/css">
	.st0{fill:#21409A;}
	.st1{fill:#0095DA;}
	.st2{fill:#FFFFFF;}
	.st3{fill:none;stroke:#FFFFFF;stroke-width:2;stroke-linecap:round;stroke-linejoin:round;stroke-miterlimit:10;}
	.st4{fill:#1F4396;}
	.st5{fill:#1F4497;}
	.st6{fill:#214099;}
</style>
<g>
	<g>
		<path class="st0" d="M407.13,518.03h-10.88v18.73H369.9v-18.73h-39.39v-19.21l41.08-58.88h24.66v58.54h10.88V518.03z
			 M369.9,498.49v-11.27c0-2.12,0.08-4.97,0.24-8.57c0.15-3.6,0.28-5.49,0.37-5.66h-0.74c-1.53,3.39-3.27,6.58-5.2,9.54
			l-10.95,15.96H369.9z"/>
		<path class="st0" d="M450.03,438.55c10.4,0,18.5,2.05,24.28,6.16c5.79,4.11,8.68,9.93,8.68,17.48c0,5.12-1.36,9.63-4.09,13.49
			c-2.73,3.86-7.04,7.22-12.94,10.09c7.3,4.06,12.44,8.12,15.44,12.16c2.99,4.05,4.49,8.4,4.49,13.09c0,8.6-3.17,15.27-9.53,19.99
			c-6.35,4.74-15.22,7.1-26.62,7.1c-11.62,0-20.51-2.31-26.68-6.93s-9.26-11.25-9.26-19.9c0-5.61,1.38-10.39,4.12-14.35
			c2.74-3.94,7.37-7.53,13.85-10.76c-5.23-3.43-9.04-7.14-11.45-11.08c-2.41-3.96-3.62-8.29-3.62-13.02c0-7.42,2.95-13.2,8.85-17.32
			C431.47,440.62,439.62,438.55,450.03,438.55z M438.27,510.22c0,2.73,0.99,4.94,2.97,6.59c1.98,1.66,4.73,2.48,8.24,2.48
			c7.93,0,11.89-2.85,11.89-8.55c0-2.16-0.87-4.29-2.6-6.39c-1.73-2.08-4.83-4.45-9.29-7.05c-4.01,2.08-6.88,4.17-8.62,6.25
			C439.14,505.65,438.27,507.87,438.27,510.22z M449.89,457.42c-2.3,0-4.23,0.66-5.81,1.96s-2.36,2.99-2.36,5.06
			c0,3.8,2.63,7.16,7.9,10.07c3.2-1.81,5.38-3.46,6.55-4.97c1.17-1.5,1.76-3.2,1.76-5.1c0-2.12-0.79-3.82-2.37-5.1
			C453.99,458.06,452.1,457.42,449.89,457.42z"/>
		<path class="st0" d="M536.95,536.77v-33.33c0-8.2-2.48-12.31-7.43-12.31c-3.52,0-6.12,1.46-7.79,4.35
			c-1.66,2.88-2.5,7.7-2.5,14.43v26.86h-21.52v-83.93h21.52v11.93c0,5.4-0.3,11.54-0.88,18.44h0.99c2.05-3.16,4.49-5.4,7.32-6.68
			c2.82-1.3,6.11-1.95,9.85-1.95c6.97,0,12.39,1.96,16.26,5.9c3.87,3.94,5.8,9.46,5.8,16.54v39.75H536.95z"/>
	</g>
</g>
<g>
	<path class="st1" d="M103.58,701.22c-7.38,0-14.65-3.46-19.24-9.94C-38.37,517.96-18.46,283.2,131.69,133.06
		C281.82-17.08,516.6-37.01,689.9,85.71c10.62,7.51,13.13,22.21,5.61,32.82c-7.5,10.62-22.2,13.14-32.82,5.61
		c-154.52-109.4-363.85-91.65-497.71,42.21C31.12,300.22,13.36,509.54,122.77,664.07c7.52,10.61,5.01,25.31-5.61,32.82
		C113.03,699.81,108.28,701.22,103.58,701.22z"/>
	<path class="st0" d="M439.62,875.59c-87.33,0-175.14-26.38-251.16-80.2c-10.62-7.51-13.13-22.21-5.61-32.82
		c7.5-10.62,22.2-13.14,32.82-5.61c154.54,109.41,363.85,91.64,497.71-42.21C847.25,580.89,865,371.58,755.6,217.05
		c-7.52-10.62-5.01-25.31,5.61-32.82c10.63-7.52,25.31-5,32.82,5.61c122.72,173.31,102.8,408.08-47.35,558.21
		C662.39,832.34,551.4,875.59,439.62,875.59z"/>
</g>
<path class="st1" d="M574.49,659.9H308.17c-38.28,0-69.42-31.14-69.42-69.42V438.86c0-38.28,31.14-69.42,69.42-69.42h266.32
	c38.28,0,69.42,31.14,69.42,69.42v151.62C643.91,628.76,612.77,659.9,574.49,659.9z M308.17,400.84
	c-20.97,0-38.03,17.05-38.03,38.03v151.62c0,20.96,17.05,38.03,38.03,38.03h266.32c20.97,0,38.03-17.06,38.03-38.03V438.86
	c0-20.97-17.05-38.03-38.03-38.03H308.17z"/>
<path class="st1" d="M552.43,600.13h-222.2c-8.67,0-15.7-7.03-15.7-15.7s7.03-15.7,15.7-15.7h222.2c8.67,0,15.7,7.03,15.7,15.7
	S561.1,600.13,552.43,600.13z"/>
<path class="st1" d="M556.16,395.43c-10.84,0-19.62-8.78-19.62-19.62v-74.43c0-51.57-41.95-93.52-93.52-93.52h-9.07
	c-51.57,0-93.53,41.95-93.53,93.52v74.43c0,10.84-8.78,19.62-19.62,19.62c-10.84,0-19.62-8.78-19.62-19.62v-74.43
	c0-73.21,59.56-132.76,132.77-132.76h9.07c73.21,0,132.76,59.56,132.76,132.76v74.43C575.78,386.64,567,395.43,556.16,395.43z"/>
</svg>
