<?xml version="1.0" encoding="utf-8"?>
<!-- Generator: Adobe Illustrator 23.0.1, SVG Export Plug-In . SVG Version: 6.00 Build 0)  -->
<svg version="1.1" id="Layer_1" xmlns="http://www.w3.org/2000/svg" xmlns:xlink="http://www.w3.org/1999/xlink" x="0px" y="0px"
	 viewBox="0 0 341.81 341.81" style="enable-background:new 0 0 341.81 341.81;" xml:space="preserve">
<style type="text/css">
	.st0{fill:#21409A;}
	.st1{fill:#0095DA;}
	.st2{fill:#FFFFFF;}
	.st3{fill:none;stroke:#FFFFFF;stroke-width:2;stroke-linecap:round;stroke-linejoin:round;stroke-miterlimit:10;}
	.st4{fill:#1F4396;}
	.st5{fill:#1F4497;}
	.st6{fill:#214099;}
</style>
<g>
	<g>
		<path class="st1" d="M43.01,275.35c-4.42,0-8.76-2.07-11.5-5.94c-48.2-68.09-40.38-160.32,18.6-219.3
			c58.97-58.99,151.21-66.8,219.3-18.6c6.35,4.49,7.85,13.28,3.35,19.62c-4.49,6.33-13.29,7.85-19.62,3.35
			C196.29,14.25,119.27,20.76,70.01,70.01c-49.24,49.26-55.77,126.27-15.53,183.13c4.5,6.35,2.99,15.13-3.35,19.62
			C48.66,274.51,45.82,275.35,43.01,275.35z"/>
		<path class="st0" d="M171.07,341.81c-34.31,0-68.8-10.36-98.67-31.5c-6.35-4.49-7.85-13.28-3.35-19.62
			c4.49-6.34,13.28-7.85,19.62-3.35c56.86,40.25,133.88,33.73,183.13-15.53s55.78-126.27,15.53-183.13
			c-4.5-6.35-2.99-15.13,3.35-19.62c6.35-4.48,15.14-2.99,19.62,3.35c48.21,68.09,40.39,160.32-18.6,219.3
			C258.6,324.82,214.99,341.81,171.07,341.81z"/>
	</g>
</g>
<g>
	<g>
		<polyline class="st2" points="106.34,238.75 106.34,189.26 237.99,189.26 237.99,238.7 		"/>
		<path class="st0" d="M106.34,246.57c-4.32,0-7.82-3.5-7.82-7.82v-49.49c0-4.32,3.5-7.82,7.82-7.82h131.65
			c4.32,0,7.82,3.5,7.82,7.82v49.45c0,4.32-3.5,7.82-7.82,7.82c-4.32,0-7.82-3.5-7.82-7.82v-41.62h-116v41.67
			C114.16,243.07,110.66,246.57,106.34,246.57z"/>
	</g>
	<g>
		<g>
			<path class="st2" d="M197.23,166.93h-51.79V135.8c0-1.83,1.48-3.31,3.31-3.31h45.17c1.83,0,3.31,1.48,3.31,3.31V166.93z"/>
			<path class="st0" d="M197.23,174.75h-51.78c-4.32,0-7.82-3.5-7.82-7.82v-8.54c0-18.59,15.12-33.72,33.71-33.72
				c18.59,0,33.72,15.12,33.72,33.72v8.54C205.05,171.25,201.55,174.75,197.23,174.75z M153.27,159.1h36.14v-0.72
				c0-9.97-8.1-18.07-18.07-18.07c-9.96,0-18.07,8.1-18.07,18.07V159.1z"/>
		</g>
		<g>
			<ellipse class="st2" cx="171.33" cy="104.99" rx="12.61" ry="12.91"/>
			<path class="st0" d="M171.33,125.71c-11.26,0-20.43-9.3-20.43-20.72c0-11.44,9.17-20.73,20.43-20.73
				c11.27,0,20.43,9.3,20.43,20.73C191.77,116.42,182.6,125.71,171.33,125.71z M171.33,99.9c-2.64,0-4.78,2.28-4.78,5.09
				s2.15,5.08,4.78,5.08c2.64,0,4.79-2.28,4.79-5.08S173.97,99.9,171.33,99.9z"/>
		</g>
	</g>
	<g>
		<g>
			<path class="st1" d="M200.15,262.56h-57.62c-0.3,0-0.55-0.25-0.55-0.55v-39.95c0-0.3,0.25-0.55,0.55-0.55h57.62
				c0.3,0,0.55,0.25,0.55,0.55v39.95C200.7,262.32,200.45,262.56,200.15,262.56z"/>
		</g>
		<g>
			<path class="st1" d="M180.12,229.19H163.8c-1.81,0-3.28-1.46-3.28-3.28v-10.46c0-3.97,3.23-7.2,7.2-7.2h8.46
				c3.97,0,7.2,3.23,7.2,7.2v10.46C183.39,227.73,181.93,229.19,180.12,229.19z M167.07,222.64h9.77v-7.19
				c0-0.36-0.29-0.65-0.65-0.65h-8.46c-0.36,0-0.65,0.29-0.65,0.65V222.64z"/>
		</g>
	</g>
</g>
</svg>
