<?xml version="1.0" encoding="utf-8"?>
<!-- Generator: Adobe Illustrator 23.0.1, SVG Export Plug-In . SVG Version: 6.00 Build 0)  -->
<svg version="1.1" id="Layer_1" xmlns="http://www.w3.org/2000/svg" xmlns:xlink="http://www.w3.org/1999/xlink" x="0px" y="0px"
	 viewBox="0 0 341.82 341.81" style="enable-background:new 0 0 341.82 341.81;" xml:space="preserve">
<style type="text/css">
	.st0{fill:#21409A;}
	.st1{fill:#0095DA;}
	.st2{fill:#FFFFFF;}
	.st3{fill:none;stroke:#FFFFFF;stroke-width:2;stroke-linecap:round;stroke-linejoin:round;stroke-miterlimit:10;}
	.st4{fill:#1F4396;}
	.st5{fill:#1F4497;}
	.st6{fill:#214099;}
</style>
<path class="st1" d="M253.85,220.35H95.13c-4.32,0-7.82-3.5-7.82-7.82V100.63c0-4.32,3.5-7.82,7.82-7.82h158.72
	c4.32,0,7.82,3.5,7.82,7.82v111.89C261.67,216.85,258.17,220.35,253.85,220.35z M102.95,204.71h143.07v-96.25H102.95V204.71z"/>
<path class="st1" d="M268.27,243.63H80.71c-4.32,0-7.82-3.5-7.82-7.82v-23.28c0-4.32,3.5-7.82,7.82-7.82h187.55
	c4.32,0,7.82,3.5,7.82,7.82v23.28C276.09,240.14,272.59,243.63,268.27,243.63z M88.53,227.99h171.91v-7.64H88.53V227.99z"/>
<g>
	<g>
		<path class="st1" d="M43.01,275.35c-4.41,0-8.76-2.06-11.5-5.94C-16.7,201.32-8.88,109.09,50.1,50.1
			c58.99-58.98,151.23-66.8,219.31-18.6c6.35,4.49,7.85,13.28,3.36,19.62c-4.5,6.35-13.28,7.85-19.63,3.35
			C196.28,14.23,119.27,20.75,70.02,70.01S14.23,196.28,54.49,253.14c4.49,6.35,2.99,15.13-3.36,19.62
			C48.66,274.51,45.83,275.35,43.01,275.35z"/>
		<path class="st0" d="M171.08,341.81c-34.31,0-68.81-10.36-98.67-31.5c-6.35-4.49-7.85-13.28-3.36-19.62
			c4.5-6.34,13.28-7.83,19.63-3.35c56.85,40.23,133.88,33.73,183.12-15.53c49.25-49.26,55.78-126.27,15.53-183.13
			c-4.49-6.35-2.99-15.13,3.36-19.62c6.34-4.48,15.13-2.99,19.63,3.35c48.21,68.09,40.38,160.32-18.6,219.3
			C258.6,324.82,214.99,341.81,171.08,341.81z"/>
	</g>
</g>
<g>
	<g>
		<path class="st0" d="M224.29,135.79c0.69,1.87,0.28,3.32-1.61,4.97c-3.67,3.21-5.4,4.27-16.86,9.36
			c-12.55,5.57-26.09,10.05-33.17,13.19l-8.27,3.67c-6.78,3.01-13.81,4.13-21.39,4.57c-5.82,0.34-14.74-0.61-14.74-0.61
			c-0.65-0.03-1.27-0.43-1.65-1.07l0,0c-0.73-1.24-0.31-2.88,0.85-3.4l5.17-2.3l-9.53-8.59c-0.55-0.5-0.45-1.48,0.18-1.76l4.03-0.75
			c0.18-0.08,0.38-0.09,0.57-0.02l17.52,5.45l56.93-25.28c4.56-2.03,9.03-1.75,13.95-0.79c1.49,0.29,3.81,0.41,5.73,1.13
			C222.98,133.94,223.8,134.47,224.29,135.79z"/>
	</g>
	<g>
		<path class="st0" d="M186.93,144.88l-18.08,5.69c-1.91,0.6-3.9,0.55-5.56-0.15l-38.06-16c-0.82-0.55-0.46-1.78,0.62-2.12
			l10.28-1.41c0.35-0.11,0.71-0.1,1.01,0.02l50.01,11.84C188.29,143.02,188.14,144.49,186.93,144.88z"/>
	</g>
	<g>
		<path class="st1" d="M208.69,197.99h-64.88c-3.76,0-6.82-3.05-6.82-6.82s3.05-6.82,6.82-6.82h64.88c3.76,0,6.82,3.05,6.82,6.82
			S212.46,197.99,208.69,197.99z"/>
	</g>
</g>
</svg>
