<?xml version="1.0" encoding="utf-8"?>
<!-- Generator: Adobe Illustrator 23.0.1, SVG Export Plug-In . SVG Version: 6.00 Build 0)  -->
<svg version="1.1" id="Layer_1" xmlns="http://www.w3.org/2000/svg" xmlns:xlink="http://www.w3.org/1999/xlink" x="0px" y="0px"
	 viewBox="0 0 341.81 341.81" style="enable-background:new 0 0 341.81 341.81;" xml:space="preserve">
<style type="text/css">
	.st0{fill:#21409A;}
	.st1{fill:#0095DA;}
	.st2{fill:#FFFFFF;}
	.st3{fill:none;stroke:#FFFFFF;stroke-width:2;stroke-linecap:round;stroke-linejoin:round;stroke-miterlimit:10;}
	.st4{fill:#1F4396;}
	.st5{fill:#1F4497;}
	.st6{fill:#214099;}
</style>
<g>
	<g>
		<path class="st1" d="M43.01,275.36c-4.42,0-8.76-2.06-11.5-5.94C-16.7,201.33-8.88,109.1,50.11,50.11
			c58.98-58.99,151.21-66.81,219.3-18.6c6.35,4.49,7.85,13.28,3.35,19.62c-4.49,6.33-13.28,7.85-19.62,3.35
			C196.29,14.25,119.27,20.77,70.02,70.02c-49.25,49.26-55.78,126.27-15.53,183.13c4.5,6.35,2.99,15.13-3.35,19.62
			C48.66,274.52,45.82,275.36,43.01,275.36z"/>
		<path class="st0" d="M171.08,341.81c-34.31,0-68.8-10.36-98.67-31.5c-6.35-4.49-7.85-13.28-3.35-19.62
			c4.48-6.34,13.28-7.85,19.62-3.35c56.86,40.24,133.87,33.73,183.13-15.53c49.24-49.26,55.77-126.27,15.53-183.13
			c-4.5-6.35-2.99-15.13,3.35-19.62c6.35-4.48,15.14-2.98,19.62,3.35c48.2,68.09,40.38,160.32-18.6,219.3
			C258.6,324.83,214.99,341.81,171.08,341.81z"/>
	</g>
</g>
<g>
	<path class="st0" d="M224.92,240.26H106.91c-9.78,0-17.74-7.96-17.74-17.75V122.4c0-4.32,3.5-7.82,7.82-7.82h137.84
		c4.32,0,7.82,3.5,7.82,7.82v100.12C242.66,232.3,234.7,240.26,224.92,240.26z M104.82,130.22v92.29c0,1.16,0.94,2.1,2.09,2.1
		h118.01c1.16,0,2.1-0.94,2.1-2.1v-92.29H104.82z"/>
	<g>
		<path class="st0" d="M234.03,130.4H97.79c-4.97,0-9,0-9,0v-10.96c0-11.81,9.5-21.42,21.17-21.42h111.9
			c11.67,0,21.17,9.61,21.17,21.42v10.96C243.03,130.4,239.01,130.4,234.03,130.4z"/>
	</g>
	<circle class="st2" cx="212.93" cy="115.67" r="6.73"/>
	<circle class="st2" cx="117.3" cy="115.67" r="6.73"/>
</g>
<path class="st1" d="M158.35,198.19c-1.99,0-3.98-0.76-5.49-2.25l-19.64-19.39c-3.08-3.04-3.11-7.99-0.08-11.06
	c3.05-3.08,8-3.11,11.06-0.08l14.74,14.56l33.08-25.89c3.4-2.66,8.32-2.05,10.98,1.34c2.66,3.4,2.05,8.32-1.34,10.98l-38.5,30.12
	C161.75,197.64,160.05,198.19,158.35,198.19z"/>
</svg>
