<?xml version="1.0" encoding="utf-8"?>
<!-- Generator: Adobe Illustrator 23.0.1, SVG Export Plug-In . SVG Version: 6.00 Build 0)  -->
<svg version="1.1" id="Layer_1" xmlns="http://www.w3.org/2000/svg" xmlns:xlink="http://www.w3.org/1999/xlink" x="0px" y="0px"
	 viewBox="0 0 341.81 341.81" style="enable-background:new 0 0 341.81 341.81;" xml:space="preserve">
<style type="text/css">
	.st0{fill:#21409A;}
	.st1{fill:#0095DA;}
	.st2{fill:#FFFFFF;}
	.st3{fill:none;stroke:#FFFFFF;stroke-width:2;stroke-linecap:round;stroke-linejoin:round;stroke-miterlimit:10;}
	.st4{fill:#1F4396;}
	.st5{fill:#1F4497;}
	.st6{fill:#214099;}
</style>
<g>
	<g>
		<path class="st1" d="M43.01,275.36c-4.42,0-8.76-2.07-11.5-5.94C-16.7,201.33-8.88,109.1,50.1,50.11
			c58.97-58.99,151.21-66.81,219.3-18.6c6.35,4.49,7.85,13.28,3.35,19.62c-4.48,6.33-13.29,7.85-19.62,3.35
			C196.29,14.25,119.27,20.77,70.01,70.02c-49.24,49.26-55.77,126.27-15.53,183.13c4.5,6.35,2.99,15.13-3.35,19.62
			C48.66,274.52,45.82,275.36,43.01,275.36z"/>
		<path class="st0" d="M171.07,341.81c-34.31,0-68.8-10.36-98.67-31.5c-6.35-4.49-7.85-13.28-3.35-19.62
			c4.49-6.34,13.28-7.85,19.62-3.35c56.86,40.24,133.87,33.73,183.13-15.53c49.25-49.26,55.78-126.27,15.53-183.13
			c-4.5-6.35-2.99-15.13,3.35-19.62c6.34-4.48,15.14-2.99,19.62,3.35c48.21,68.09,40.39,160.32-18.6,219.3
			C258.6,324.83,214.99,341.81,171.07,341.81z"/>
	</g>
</g>
<g>
	<g>
		<path class="st0" d="M230.25,257.15H111.57c-3.95,0-7.27-2.94-7.76-6.86c-0.55-4.38-5.33-43.03-5.41-49.81
			c-0.29-26.67,20.03-31.64,36.35-35.64c2.7-0.63,5.57,0.18,7.51,2.19l20.2,21.12c4.38,4.6,12.5,4.6,16.88,0l20.2-21.12
			c1.94-2.02,4.81-2.82,7.51-2.19c16.32,4,36.64,8.97,36.35,35.63c-0.07,6.78-4.85,45.44-5.4,49.82
			C237.52,254.21,234.2,257.15,230.25,257.15z M118.49,241.51h104.84c1.96-16.13,4.4-37.34,4.44-41.2
			c0.12-11.08-3.19-14.67-20.07-19.15l-17.05,17.82c-5.13,5.36-12.33,8.44-19.75,8.44c-7.42,0-14.61-3.08-19.75-8.44l-17.05-17.82
			c-16.87,4.48-20.19,8.07-20.07,19.15C114.09,204.16,116.52,225.37,118.49,241.51z"/>
		<path class="st0" d="M170.96,166.47c-18.78,0-34.5-14.07-36.58-32.72l-0.92-8.18c-1.16-10.4,2.18-20.84,9.15-28.63
			c6.97-7.8,16.97-12.27,27.43-12.27h1.73c10.37,0,20.32,4.42,27.28,12.11c6.97,7.69,10.37,18.03,9.34,28.36l-0.82,8.19
			C205.69,152.22,189.95,166.47,170.96,166.47z M170.04,100.31c-6.1,0-11.7,2.51-15.77,7.05c-4.06,4.55-5.94,10.4-5.26,16.46
			l0.92,8.19c1.19,10.72,10.24,18.81,21.03,18.81c10.92,0,19.97-8.2,21.05-19.06l0.82-8.19c0.6-6.03-1.31-11.82-5.37-16.31
			c-4.06-4.48-9.63-6.96-15.68-6.96H170.04z"/>
	</g>
</g>
</svg>
