<?xml version="1.0" encoding="utf-8"?>
<!-- Generator: Adobe Illustrator 23.0.1, SVG Export Plug-In . SVG Version: 6.00 Build 0)  -->
<svg version="1.1" id="Layer_1" xmlns="http://www.w3.org/2000/svg" xmlns:xlink="http://www.w3.org/1999/xlink" x="0px" y="0px"
	 viewBox="0 0 257.37 257.37" style="enable-background:new 0 0 257.37 257.37;" xml:space="preserve">
<style type="text/css">
	.st0{fill:#0094D9;}
	.st1{fill:#224099;}
	.st2{fill:#FFFFFF;}
	.st3{fill:none;stroke:#224099;stroke-width:2;stroke-linecap:round;stroke-linejoin:round;stroke-miterlimit:10;}
	.st4{fill:none;stroke:#FFFFFF;stroke-width:2;stroke-linecap:round;stroke-linejoin:round;stroke-miterlimit:10;}
	.st5{fill:#1E4497;}
</style>
<g>
	<path class="st0" d="M33.78,208.05c-3.86,0-7.65-1.81-10.05-5.19C-12.58,151.59-6.68,82.15,37.73,37.73
		C82.14-6.69,151.59-12.57,202.86,23.73c5.55,3.93,6.86,11.6,2.93,17.15c-3.93,5.55-11.6,6.87-17.15,2.93
		c-41.46-29.35-97.6-24.58-133.51,11.32c-35.91,35.91-40.67,92.06-11.32,133.51c3.93,5.55,2.62,13.23-2.93,17.15
		C38.72,207.32,36.23,208.05,33.78,208.05z"/>
	<path class="st1" d="M128.81,257.37c-25.83,0-51.81-7.8-74.29-23.72c-5.55-3.93-6.86-11.6-2.93-17.15
		c3.92-5.54,11.6-6.87,17.15-2.93c41.46,29.35,97.6,24.59,133.51-11.32c35.91-35.91,40.67-92.05,11.32-133.51
		c-3.93-5.55-2.62-13.23,2.93-17.15c5.55-3.93,13.23-2.61,17.15,2.93c36.3,51.27,30.41,120.72-14.01,165.13
		C194.71,244.58,161.88,257.37,128.81,257.37z"/>
</g>
<g>
	<path class="st1" d="M142.22,168.89H88.78c-4.53,0-8.2-3.67-8.2-8.2s3.67-8.2,8.2-8.2h53.43c4.53,0,8.2,3.67,8.2,8.2
		S146.75,168.89,142.22,168.89z"/>
	<path class="st1" d="M100.89,199.22c-1.92,0-3.85-0.67-5.4-2.03l-32.45-28.46c-1.71-1.5-2.72-3.64-2.79-5.92
		c-0.07-2.27,0.81-4.47,2.42-6.08l32.45-32.2c3.23-3.19,8.42-3.16,11.6,0.04c3.19,3.22,3.17,8.41-0.04,11.6l-26.21,26.01
		l25.83,22.66c3.41,2.99,3.75,8.17,0.76,11.58C105.44,198.27,103.16,199.22,100.89,199.22z"/>
</g>
<g>
	<path class="st1" d="M172.19,100.16h-53.43c-4.53,0-8.2-3.67-8.2-8.2c0-4.53,3.67-8.2,8.2-8.2h53.43c4.53,0,8.2,3.67,8.2,8.2
		C180.39,96.49,176.72,100.16,172.19,100.16z"/>
	<path class="st1" d="M160.08,130.49c-2.11,0-4.22-0.81-5.82-2.42c-3.19-3.22-3.17-8.41,0.04-11.6l26.21-26.01L154.68,67.8
		c-3.41-2.99-3.75-8.17-0.76-11.58c2.99-3.4,8.18-3.74,11.58-0.76l32.45,28.46c1.71,1.5,2.72,3.64,2.79,5.92
		c0.07,2.27-0.81,4.47-2.42,6.08l-32.45,32.2C164.26,129.7,162.17,130.49,160.08,130.49z"/>
</g>
</svg>
