<?xml version="1.0" encoding="utf-8"?>
<!-- Generator: Adobe Illustrator 23.0.1, SVG Export Plug-In . SVG Version: 6.00 Build 0)  -->
<svg version="1.1" id="Layer_1" xmlns="http://www.w3.org/2000/svg" xmlns:xlink="http://www.w3.org/1999/xlink" x="0px" y="0px"
	 viewBox="0 0 257.54 257.53" style="enable-background:new 0 0 257.54 257.53;" xml:space="preserve">
<style type="text/css">
	.st0{fill:#0094D9;}
	.st1{fill:#E6E7E8;}
	.st2{fill:#FFFFFF;}
	.st3{fill:#224099;}
	.st4{fill:#1C93D1;}
	.st5{fill:#FFFFFF;stroke:#224099;stroke-width:2;stroke-linecap:round;stroke-linejoin:round;stroke-miterlimit:10;}
	.st6{fill:#FFFFFF;stroke:#FFFFFF;stroke-width:2;stroke-linecap:round;stroke-linejoin:round;stroke-miterlimit:10;}
	.st7{fill:#FFFFFF;stroke:#1E4497;stroke-width:3;stroke-linecap:round;stroke-linejoin:round;stroke-miterlimit:10;}
	.st8{fill:#1E4497;}
	.st9{fill:#FFFFFF;stroke:#FFFFFF;stroke-width:1.8;stroke-linecap:round;stroke-linejoin:round;stroke-miterlimit:10;}
	.st10{fill:none;stroke:#224099;stroke-width:1.8;stroke-linecap:round;stroke-linejoin:round;stroke-miterlimit:10;}
</style>
<g>
	<g>
		<path class="st0" d="M33.8,208.18c-3.86,0-7.66-1.81-10.06-5.2C-12.58,151.69-6.69,82.2,37.75,37.76
			C82.19-6.7,151.69-12.58,202.98,23.74c5.55,3.93,6.87,11.61,2.93,17.16c-3.93,5.55-11.61,6.87-17.16,2.93
			c-41.48-29.36-97.66-24.6-133.59,11.33c-35.93,35.93-40.7,92.11-11.33,133.59c3.93,5.55,2.62,13.23-2.93,17.16
			C38.74,207.45,36.26,208.18,33.8,208.18z"/>
		<path class="st3" d="M128.9,257.53c-25.85,0-51.84-7.81-74.34-23.74c-5.55-3.93-6.87-11.61-2.93-17.16
			c3.93-5.55,11.61-6.87,17.16-2.93c41.49,29.37,97.65,24.61,133.59-11.33c35.93-35.93,40.7-92.12,11.33-133.59
			c-3.93-5.55-2.62-13.23,2.93-17.16c5.55-3.94,13.24-2.62,17.16,2.93c36.32,51.3,30.43,120.79-14.02,165.23
			C194.83,244.73,161.98,257.53,128.9,257.53z"/>
	</g>
</g>
<g>
	<g>
		<g>
			<path class="st3" d="M127.83,80.44c-2.51,0.01-5.9,6.5-5.89,9.01l0.04,7.53l-22.75,22.94c-0.54,0.55-0.62,1.4-0.18,2.03
				c0.43,0.63,1.26,0.87,1.96,0.56l21.04-9.22l1.38,17.56l-10.03,9.77c-0.19,0.19-0.21,0.49-0.06,0.7c0.15,0.22,0.44,0.3,0.68,0.19
				l10.61-4.72c0,0,1.23,3.34,2.9,3.34c1.55,0,2.58-3.38,2.58-3.38l10.5,4.66c0.24,0.11,0.53,0.02,0.68-0.2
				c0.07-0.09,0.1-0.2,0.09-0.31c0-0.14-0.06-0.28-0.16-0.39l-9.94-9.57l1.25-17.8l21.11,9.16c0.71,0.31,1.53,0.07,1.96-0.57
				c0.19-0.28,0.28-0.59,0.28-0.9c0-0.41-0.16-0.82-0.47-1.13l-22.94-22.75l-0.04-7.53C132.39,86.91,130.33,80.43,127.83,80.44z"/>
			<path class="st3" d="M113.79,142.6c-0.51,0-1-0.25-1.31-0.69c-0.43-0.63-0.35-1.47,0.18-2.01l9.69-9.45l-1.22-15.64l-19.72,8.64
				c-1.16,0.51-2.5,0.12-3.22-0.92c-0.71-1.03-0.59-2.44,0.3-3.33l22.45-22.64l-0.04-7.11c-0.01-2.58,3.49-10.02,6.91-10.04l0,0
				c0,0,0.01,0,0.01,0c3.52,0,5.59,7.58,5.6,10l0.04,7.11l22.64,22.45c0.5,0.5,0.77,1.15,0.78,1.86c0,0.53-0.16,1.04-0.45,1.48
				c-0.71,1.06-2.06,1.46-3.23,0.94l-19.77-8.58l-1.11,15.88l9.59,9.24c0.31,0.31,0.48,0.71,0.48,1.13c0,0.33-0.1,0.65-0.28,0.91
				c-0.41,0.61-1.23,0.84-1.92,0.55l-9.51-4.22c-0.54,1.25-1.58,3.03-3.17,3.03c-1.66,0-2.83-1.78-3.43-3.01l-9.66,4.3
				C114.22,142.55,114,142.6,113.79,142.6z M122.95,111.78l1.53,19.48l-8.48,8.26l9.19-4.09l0.38,1.03
				c0.46,1.23,1.41,2.67,1.94,2.67c0.35,0,1.17-1.25,1.6-2.65l0.34-1.11l9.1,4.04l-8.35-8.04l1.39-19.72l22.44,9.74
				c0.27,0.12,0.56,0.03,0.71-0.2c0.06-0.1,0.1-0.21,0.1-0.32c0-0.15-0.06-0.3-0.18-0.41l-23.24-23.05l-0.04-7.96
				c-0.01-2.74-2.14-7.95-3.55-7.95l0,0l0,0c-0.57,0-1.76,0.97-3.01,3.07c-1.21,2.02-1.86,4.04-1.86,4.91L123,97.4l-0.3,0.3
				l-22.75,22.94c-0.2,0.2-0.22,0.5-0.07,0.73c0.15,0.23,0.45,0.31,0.7,0.2L122.95,111.78z"/>
		</g>
	</g>
</g>
<g>
	<g>
		<path class="st0" d="M127.29,206.78c-3.79,0-7.31-1.82-9.38-4.84c-7.96-11.61-47.68-70.88-47.68-96.91
			c0-30.02,25.6-54.45,57.06-54.45s57.06,24.43,57.06,54.45c0,26.04-39.73,85.3-47.68,96.91
			C134.6,204.96,131.08,206.78,127.29,206.78z M127.29,64.86c-22.73,0-41.22,17.61-41.22,39.25c0,14.38,21.47,53.4,41.22,84.29
			c19.75-30.9,41.22-69.91,41.22-84.29C168.51,82.46,150.03,64.86,127.29,64.86z"/>
	</g>
</g>
</svg>
