<?xml version="1.0" encoding="utf-8"?>
<!-- Generator: Adobe Illustrator 23.0.1, SVG Export Plug-In . SVG Version: 6.00 Build 0)  -->
<svg version="1.1" id="Layer_1" xmlns="http://www.w3.org/2000/svg" xmlns:xlink="http://www.w3.org/1999/xlink" x="0px" y="0px"
	 viewBox="0 0 257.37 257.37" style="enable-background:new 0 0 257.37 257.37;" xml:space="preserve">
<style type="text/css">
	.st0{fill:#0095DA;}
	.st1{fill:#21409A;}
</style>
<g>
	<g>
		<path class="st0" d="M32.68,207.35c-3.26,0-6.47-1.53-8.5-4.39C-12.04,151.79-6.16,82.49,38.16,38.17
			c44.33-44.33,113.63-50.21,164.8-13.98c4.69,3.32,5.79,9.81,2.48,14.49c-3.32,4.7-9.81,5.79-14.5,2.48
			C148.07,10.81,90.02,15.74,52.87,52.87c-37.14,37.14-42.06,95.2-11.71,138.07c3.31,4.69,2.21,11.18-2.48,14.49
			C36.85,206.73,34.76,207.35,32.68,207.35z"/>
		<path class="st1" d="M129.06,257.37c-25.79,0-51.7-7.79-74.15-23.68c-4.69-3.32-5.79-9.81-2.48-14.49
			c3.33-4.69,9.81-5.79,14.5-2.48c42.88,30.36,100.93,25.42,138.07-11.71c37.14-37.14,42.07-95.2,11.71-138.07
			c-3.31-4.69-2.21-11.17,2.48-14.49c4.69-3.31,11.17-2.21,14.5,2.48c36.23,51.17,30.35,120.47-13.98,164.79
			C194.83,244.6,162.06,257.37,129.06,257.37z"/>
	</g>
</g>
<g>
	<g>
		<g>
			
				<ellipse transform="matrix(0.3827 -0.9239 0.9239 0.3827 45.0568 176.0123)" class="st1" cx="154.24" cy="54.29" rx="8.04" ry="8.04"/>
			<path class="st1" d="M162.06,130.58h-10.88c-1.97,0-3.56-1.59-3.56-3.56v-24.41c-2.06-2.22-3.21-5.13-3.21-8.16V77.94
				c0-5.29,4.29-9.59,9.59-9.59c5.29,0,9.59,4.29,9.59,9.59v15c0,3.38-1.43,6.6-3.93,8.88l-0.88,0.8v20.9l2.75,1.25
				c1.26,0.57,2.07,1.83,2.07,3.21v1.07C163.58,129.9,162.9,130.58,162.06,130.58z"/>
			<path class="st0" d="M133.22,54.29c0,4.44-3.6,8.04-8.04,8.04c-4.44,0-8.03-3.6-8.03-8.04c0-4.44,3.6-8.04,8.03-8.04
				C129.62,46.25,133.22,49.85,133.22,54.29z"/>
			<path class="st0" d="M108.42,54.29c0,4.44-3.6,8.04-8.04,8.04c-4.44,0-8.03-3.6-8.03-8.04c0-4.44,3.6-8.04,8.03-8.04
				C104.83,46.25,108.42,49.85,108.42,54.29z"/>
			<path class="st0" d="M129.98,101.81c2.91-2.27,4.57-5.5,4.57-8.88v-15c0-5.29-4.99-9.59-11.14-9.59c-5.08,0-9.35,2.92-10.69,6.92
				c-1.35-3.99-5.62-6.92-10.7-6.92c-5.08,0-9.35,2.92-10.69,6.92c-0.89,6.11-0.22,21.32-0.22,21.32c0.47,2.24,1.67,4.34,3.5,6.03
				v24.41c0,1.97,1.85,3.56,4.14,3.56h9.44c0.98,0,1.77-0.68,1.77-1.53v-1.08c0-1.38-2.82-2.64-4.28-3.21l0.02-1.25v-20.9h10.31
				v24.41c0,1.97,1.85,3.56,4.14,3.56h9.44c0.98,0,1.77-0.68,1.77-1.53v-1.08c0-1.38-2.82-2.64-4.28-3.21l0.02-1.25v-20.9
				L129.98,101.81z"/>
		</g>
		<g>
			<path class="st1" d="M111.87,210H79.5c-2.31,0-4.18-1.87-4.18-4.18v-26.85c0-11.23,9.14-20.37,20.37-20.37
				c11.23,0,20.36,9.14,20.36,20.37v26.85C116.05,208.13,114.18,210,111.87,210z M83.68,201.64h24v-22.66c0-6.62-5.38-12-12-12
				c-6.62,0-12,5.38-12,12V201.64z"/>
			<path class="st1" d="M101.82,165.42c-2.04,0-3.83-1.49-4.13-3.57c-0.65-4.43-1.35-5.08-1.48-5.16c-1.67-0.06-2.16,2.63-2.52,5.16
				c-0.34,2.28-2.47,3.87-4.75,3.53c-2.29-0.33-3.87-2.46-3.53-4.75c0.45-3.06,1.82-12.36,10.19-12.36c8.54,0,9.82,8.66,10.36,12.36
				c0.34,2.28-1.24,4.41-3.53,4.75C102.23,165.41,102.02,165.42,101.82,165.42z"/>
			<path class="st1" d="M99.57,178.5H91.8c-2.31,0-4.18-1.87-4.18-4.18c0-2.31,1.87-4.18,4.18-4.18h7.76c2.31,0,4.18,1.87,4.18,4.18
				C103.75,176.63,101.88,178.5,99.57,178.5z"/>
			<path class="st1" d="M101.11,197.39c-2.31,0-4.18-1.87-4.18-4.18v-0.63h-2.56v0.63c0,2.31-1.87,4.18-4.18,4.18
				c-2.31,0-4.18-1.87-4.18-4.18v-4.81c0-2.31,1.87-4.18,4.18-4.18h10.92c2.31,0,4.18,1.87,4.18,4.18v4.81
				C105.29,195.52,103.42,197.39,101.11,197.39z"/>
		</g>
		<g>
			<path class="st1" d="M143.08,219.63c-2.31,0-4.18-1.87-4.18-4.18v-1.13c0-2.31,1.87-4.18,4.18-4.18c2.31,0,4.18,1.87,4.18,4.18
				v1.13C147.26,217.76,145.39,219.63,143.08,219.63z"/>
			<path class="st1" d="M167.33,219.63c-2.31,0-4.18-1.87-4.18-4.18v-1.13c0-2.31,1.87-4.18,4.18-4.18s4.18,1.87,4.18,4.18v1.13
				C171.51,217.76,169.64,219.63,167.33,219.63z"/>
			<path class="st1" d="M171.97,215.84h-33.53c-4.46,0-8.08-3.62-8.08-8.08v-50.1c0-4.45,3.62-8.07,8.07-8.07h33.54
				c4.45,0,8.07,3.62,8.07,8.07v50.1C180.05,212.22,176.43,215.84,171.97,215.84z M171.69,157.67l-33.25,0.29l0.29,49.81l32.96-0.28
				V157.67z M171.97,207.47L171.97,207.47L171.97,207.47z"/>
			<path class="st1" d="M164.75,148.31h-19.09c-2.31,0-4.18-1.87-4.18-4.18c0-2.31,1.87-4.18,4.18-4.18h19.09
				c2.31,0,4.18,1.87,4.18,4.18C168.93,146.44,167.06,148.31,164.75,148.31z"/>
			<path class="st1" d="M155.21,169.35c-5.77,0-10.47-4.48-10.47-9.99V144.8c0-2.31,1.87-4.18,4.18-4.18c2.31,0,4.18,1.87,4.18,4.18
				v14.55c0,1.76,4.22,1.76,4.22,0V144.8c0-2.31,1.87-4.18,4.18-4.18c2.31,0,4.18,1.87,4.18,4.18v14.55
				C165.68,164.86,160.98,169.35,155.21,169.35z"/>
			<path class="st1" d="M165.42,202.29h-20.44c-2.31,0-4.18-1.87-4.18-4.18c0-2.31,1.87-4.18,4.18-4.18h20.44
				c2.31,0,4.18,1.87,4.18,4.18C169.61,200.42,167.74,202.29,165.42,202.29z"/>
		</g>
	</g>
</g>
</svg>
