<?xml version="1.0" encoding="utf-8"?>
<!-- Generator: Adobe Illustrator 23.0.1, SVG Export Plug-In . SVG Version: 6.00 Build 0)  -->
<svg version="1.1" id="Layer_1" xmlns="http://www.w3.org/2000/svg" xmlns:xlink="http://www.w3.org/1999/xlink" x="0px" y="0px"
	 viewBox="0 0 341.81 341.82" style="enable-background:new 0 0 341.81 341.82;" xml:space="preserve">
<style type="text/css">
	.st0{fill:#21409A;}
	.st1{fill:#0095DA;}
	.st2{fill:#FFFFFF;}
	.st3{fill:none;stroke:#FFFFFF;stroke-width:2;stroke-linecap:round;stroke-linejoin:round;stroke-miterlimit:10;}
	.st4{fill:#1F4396;}
	.st5{fill:#1F4497;}
	.st6{fill:#214099;}
</style>
<g>
	<g>
		<path class="st1" d="M43.01,275.35c-4.42,0-8.76-2.06-11.5-5.94c-48.21-68.09-40.39-160.32,18.6-219.3
			c58.97-58.99,151.2-66.8,219.3-18.6c6.35,4.49,7.85,13.28,3.35,19.62c-4.49,6.33-13.29,7.85-19.62,3.35
			C196.29,14.23,119.26,20.76,70.02,70.01c-49.25,49.26-55.78,126.27-15.53,183.13c4.5,6.35,2.99,15.13-3.35,19.62
			C48.66,274.51,45.82,275.35,43.01,275.35z"/>
		<path class="st0" d="M171.08,341.82c-34.31,0-68.8-10.37-98.67-31.51c-6.35-4.49-7.85-13.28-3.35-19.62
			c4.48-6.34,13.28-7.85,19.62-3.35c56.86,40.26,133.87,33.73,183.12-15.53s55.78-126.27,15.53-183.13
			c-4.5-6.35-2.99-15.13,3.35-19.62c6.35-4.48,15.14-2.99,19.62,3.35c48.21,68.09,40.39,160.32-18.6,219.3
			C258.6,324.82,214.99,341.82,171.08,341.82z"/>
	</g>
</g>
<g>
	<path class="st1" d="M161.21,165.05c-18.11,0-32.95-13.6-34.52-31.64l-1.41-16.17c-0.84-9.66,2.43-19.29,8.98-26.43
		c6.55-7.14,15.86-11.24,25.55-11.24h2.82c9.69,0,19,4.09,25.54,11.24c6.55,7.14,9.82,16.77,8.98,26.43l-1.41,16.17
		C194.15,151.44,179.32,165.05,161.21,165.05z M159.8,95.21c-5.39,0-10.37,2.19-14.02,6.16c-3.64,3.98-5.39,9.13-4.93,14.5
		l1.41,16.17c0.86,9.89,9.01,17.36,18.94,17.36s18.07-7.46,18.94-17.36l1.41-16.17c0.47-5.37-1.28-10.53-4.93-14.5
		c-3.64-3.97-8.62-6.16-14.01-6.16H159.8z"/>
	<path class="st1" d="M168.38,236.66h-15.31c-13.5,0-27.05-3.12-39.2-9.01c-12.55-6.08-19.62-19.45-17.58-33.25
		c2.13-14.48,13.79-25.59,28.36-27.02l12.17-1.19l0.61-9.37c0.24-4.31,3.74-7.65,8.27-7.35c4.31,0.25,7.6,3.95,7.35,8.27l-0.57,9.82
		c-0.98,7.86-6.77,13.48-14.12,14.2l-12.17,1.19c-7.4,0.73-13.32,6.37-14.41,13.73c-1.03,7.02,2.56,13.81,8.94,16.9
		c10.03,4.86,21.22,7.43,32.37,7.43h15.31c6.1,0,12.19-0.76,18.12-2.25c4.19-1.05,8.44,1.49,9.5,5.68c1.05,4.19-1.49,8.44-5.68,9.5
		C183.15,235.75,175.76,236.66,168.38,236.66z"/>
	<path class="st1" d="M217.38,203.3c-3.74,0-7.04-2.65-7.67-6.47c-1.12-7.58-7-13.22-14.33-13.99l-11.02-1.16
		c-7.29-0.77-13.02-6.38-13.96-13.63l-0.64-10.4c-0.26-4.32,3.03-8.02,7.34-8.27c4.22-0.31,8.02,3.02,8.27,7.34l0.59,9.86
		l11.05,0.71c14.45,1.52,26.01,12.61,28.13,26.99c0.63,4.24-2.28,8.27-6.52,8.94C218.21,203.26,217.79,203.3,217.38,203.3z"/>
</g>
<g>
	<g>
		<circle class="st2" cx="217.42" cy="216.04" r="37.27"/>
		<path class="st0" d="M217.42,261.13c-24.86,0-45.09-20.23-45.09-45.09c0-24.86,20.23-45.08,45.09-45.08s45.09,20.23,45.09,45.08
			C262.52,240.9,242.29,261.13,217.42,261.13z M217.42,186.6c-16.24,0-29.45,13.21-29.45,29.44c0,16.24,13.21,29.45,29.45,29.45
			s29.45-13.21,29.45-29.45C246.87,199.8,233.66,186.6,217.42,186.6z"/>
	</g>
</g>
<g>
	<path class="st0" d="M215.23,219.25c-1.48-0.5-2.83-1.02-4.04-1.54c-1.21-0.53-2.25-1.15-3.13-1.89c-0.87-0.74-1.56-1.62-2.04-2.65
		c-0.49-1.02-0.73-2.28-0.73-3.76c0-2.28,0.71-4.22,2.12-5.77c1.41-1.57,3.43-2.64,6.05-3.21v-4.09c0.31-0.07,0.78-0.15,1.41-0.25
		c0.64-0.1,1.29-0.15,1.97-0.15c1.31,0,2.34,0.23,3.07,0.69c0.74,0.45,1.11,1.42,1.11,2.9v0.66c2.09,0.27,3.76,0.81,5.02,1.62
		c1.26,0.8,1.89,1.92,1.89,3.33c0,0.87-0.2,1.62-0.61,2.25c-0.4,0.62-0.89,1.15-1.46,1.59c-0.74-0.47-1.73-0.89-2.98-1.24
		c-1.25-0.35-2.61-0.53-4.09-0.53c-1.52,0-2.62,0.21-3.33,0.63c-0.71,0.42-1.06,0.95-1.06,1.59c0,0.5,0.22,0.92,0.66,1.24
		c0.44,0.32,1.09,0.61,1.97,0.88l2.68,0.86c3.16,1.01,5.59,2.29,7.29,3.86c1.7,1.57,2.55,3.69,2.55,6.39c0,2.28-0.73,4.22-2.17,5.83
		c-1.45,1.6-3.57,2.68-6.36,3.25v4.03c-0.3,0.07-0.78,0.15-1.41,0.25c-0.64,0.1-1.29,0.15-1.97,0.15c-1.31,0-2.34-0.23-3.08-0.68
		c-0.74-0.46-1.11-1.42-1.11-2.9v-0.5c-1.21-0.14-2.31-0.35-3.3-0.66s-1.85-0.69-2.57-1.16c-0.72-0.47-1.29-1.02-1.69-1.67
		c-0.4-0.64-0.61-1.36-0.61-2.17c0-0.98,0.29-1.81,0.86-2.5c0.57-0.69,1.19-1.21,1.87-1.59c0.94,0.74,2.09,1.38,3.46,1.92
		c1.36,0.54,2.85,0.81,4.46,0.81c1.65,0,2.81-0.25,3.48-0.76s1.01-1.09,1.01-1.77c0-0.67-0.27-1.18-0.81-1.54
		c-0.54-0.35-1.29-0.7-2.27-1.03L215.23,219.25z"/>
</g>
</svg>
