<?xml version="1.0" encoding="utf-8"?>
<!-- Generator: Adobe Illustrator 23.0.1, SVG Export Plug-In . SVG Version: 6.00 Build 0)  -->
<svg version="1.1" id="Layer_1" xmlns="http://www.w3.org/2000/svg" xmlns:xlink="http://www.w3.org/1999/xlink" x="0px" y="0px"
	 viewBox="0 0 257.37 257.38" style="enable-background:new 0 0 257.37 257.38;" xml:space="preserve">
<style type="text/css">
	.st0{fill:#0094D9;}
	.st1{fill:#224099;}
	.st2{fill:#21409A;}
	.st3{fill:none;stroke:#21409A;stroke-width:1.8;stroke-linecap:round;stroke-linejoin:round;stroke-miterlimit:10;}
</style>
<g>
	<g>
		<path class="st0" d="M33.78,208.05c-3.86,0-7.65-1.81-10.05-5.19c-36.31-51.27-30.41-120.72,14-165.13
			c44.41-44.42,113.86-50.3,165.13-14c5.55,3.93,6.86,11.61,2.93,17.15c-3.93,5.54-11.6,6.87-17.15,2.93
			c-41.45-29.35-97.6-24.58-133.51,11.32c-35.91,35.91-40.67,92.06-11.32,133.51c3.93,5.55,2.62,13.23-2.93,17.15
			C38.72,207.32,36.23,208.05,33.78,208.05z"/>
		<path class="st1" d="M128.81,257.38c-25.83,0-51.81-7.81-74.29-23.73c-5.55-3.93-6.86-11.61-2.93-17.15s11.6-6.87,17.15-2.93
			c41.45,29.34,97.59,24.59,133.51-11.32c35.91-35.91,40.67-92.05,11.32-133.5c-3.93-5.55-2.62-13.23,2.93-17.15
			c5.55-3.93,13.23-2.61,17.15,2.93c36.3,51.26,30.41,120.71-14.01,165.12C194.71,244.58,161.88,257.38,128.81,257.38z"/>
	</g>
</g>
<g>
	<path class="st2" d="M153.46,174.19h-49.88c-8.69,0-16.07-5.94-17.53-14.12l-4.25-27.75c-0.82-4.6,0.51-9.5,3.67-13.27
		c3.39-4.05,8.45-6.38,13.89-6.38h54.1c9.8,0,17.78,7.61,17.78,16.96v27.58C171.24,166.58,163.26,174.19,153.46,174.19z
		 M99.36,127.47c-1.03,0-1.99,0.4-2.56,1.07c-0.54,0.65-0.45,1.18-0.41,1.36l4.25,27.75c0.14,0.77,1.3,1.75,2.94,1.75h49.88
		c1.76,0,3-1.15,3-2.17v-27.58c0-1.03-1.23-2.17-3-2.17H99.36z"/>
	<path class="st2" d="M128.54,127.47H99.17c-3.49,0-6.51-2.45-7.23-5.86l-10.2-47.93c-0.11-0.51-0.16-1.03-0.16-1.54
		c0-7.58,6.3-13.76,14.03-13.76h16.09c7.28,0,13.25,5.79,13.73,13.09l10.34,47.01c0.48,2.19-0.06,4.48-1.46,6.22
		C132.9,126.45,130.78,127.47,128.54,127.47z M105.15,112.68h14.19l-8.51-38.67c-0.06-0.27-0.11-0.55-0.14-0.83H96.74L105.15,112.68
		z"/>
	<path class="st2" d="M145.45,145.63h-38.09c-3.4,0-6.16-2.76-6.16-6.16c0-3.4,2.76-6.16,6.16-6.16h38.09c3.4,0,6.16,2.76,6.16,6.16
		C151.61,142.87,148.85,145.63,145.45,145.63z"/>
	<path class="st2" d="M119.26,90.81h-9.14c-3.4,0-6.16-2.76-6.16-6.16s2.76-6.16,6.16-6.16h9.14c3.4,0,6.16,2.76,6.16,6.16
		S122.66,90.81,119.26,90.81z"/>
	<path class="st2" d="M174.57,170.27h-6.84c-3.18,0-5.75-2.57-5.75-5.75v-25.04c0-3.18,2.57-5.75,5.75-5.75
		c0.95,0,1.54,0.02,2.11,0.06c10.26,0.78,18.34,9.07,18.84,19.28l0.18,3.91C188.87,164.43,182.45,170.27,174.57,170.27z
		 M173.48,158.76h1.09c1.74,0,2.8-0.98,2.8-1.51l-0.18-3.63c-0.14-2.78-1.56-5.22-3.71-6.75V158.76z"/>
	<path class="st3" d="M129.38,169"/>
	<path class="st2" d="M160.3,199.42H98.45c-4.08,0-7.39-3.31-7.39-7.4c0-4.08,3.31-7.4,7.39-7.4h61.85c4.08,0,7.39,3.31,7.39,7.4
		C167.7,196.11,164.39,199.42,160.3,199.42z"/>
</g>
</svg>
