<?xml version="1.0" encoding="utf-8"?>
<!-- Generator: Adobe Illustrator 23.0.1, SVG Export Plug-In . SVG Version: 6.00 Build 0)  -->
<svg version="1.1" id="Layer_1" xmlns="http://www.w3.org/2000/svg" xmlns:xlink="http://www.w3.org/1999/xlink" x="0px" y="0px"
	 viewBox="0 0 257.37 257.37" style="enable-background:new 0 0 257.37 257.37;" xml:space="preserve">
<style type="text/css">
	.st0{fill:#0094D9;}
	.st1{fill:#224099;}
	.st2{fill:#FFFFFF;}
	.st3{fill:none;stroke:#224099;stroke-width:2;stroke-linecap:round;stroke-linejoin:round;stroke-miterlimit:10;}
	.st4{fill:none;stroke:#FFFFFF;stroke-width:2;stroke-linecap:round;stroke-linejoin:round;stroke-miterlimit:10;}
	.st5{fill:#1E4497;}
</style>
<g>
	<g>
		<path class="st0" d="M33.78,208.05c-3.86,0-7.65-1.81-10.05-5.19c-36.3-51.26-30.41-120.71,14-165.13
			c44.42-44.42,113.87-50.3,165.13-14c5.55,3.93,6.86,11.61,2.93,17.15c-3.93,5.54-11.6,6.87-17.15,2.93
			c-41.45-29.35-97.6-24.58-133.51,11.32c-35.91,35.91-40.67,92.06-11.32,133.51c3.93,5.54,2.62,13.23-2.93,17.15
			C38.72,207.32,36.23,208.05,33.78,208.05z"/>
		<path class="st1" d="M128.81,257.37c-25.83,0-51.81-7.8-74.29-23.72c-5.55-3.93-6.86-11.61-2.93-17.15
			c3.93-5.54,11.6-6.87,17.15-2.93c41.46,29.35,97.6,24.59,133.5-11.32c35.91-35.91,40.67-92.05,11.32-133.5
			c-3.93-5.55-2.62-13.23,2.93-17.15c5.56-3.93,13.23-2.61,17.15,2.93c36.3,51.27,30.41,120.71-14.01,165.12
			C194.71,244.58,161.88,257.37,128.81,257.37z"/>
	</g>
</g>
<g>
	<path class="st1" d="M128.68,210.51c-2.58,0-5.01-1.22-6.56-3.28c-5.57-7.44-54.44-73.55-54.44-104.54c0-33.64,27.37-61,61-61
		s61,27.37,61,61c0,31-48.87,97.1-54.44,104.54C133.7,209.29,131.27,210.51,128.68,210.51z M128.68,58.09
		c-24.59,0-44.6,20.01-44.6,44.6c0,18.85,27.96,62.21,44.6,85.67c16.64-23.46,44.6-66.82,44.6-85.67
		C173.28,78.09,153.28,58.09,128.68,58.09z"/>
	<path class="st1" d="M111.18,140.1c-4.53,0-8.2-3.67-8.2-8.2V88.31c0-4.53,3.67-8.2,8.2-8.2c4.53,0,8.2,3.67,8.2,8.2v43.59
		C119.39,136.43,115.71,140.1,111.18,140.1z"/>
	<path class="st1" d="M144.3,140.1c-4.53,0-8.2-3.67-8.2-8.2V88.31c0-4.53,3.67-8.2,8.2-8.2s8.2,3.67,8.2,8.2v43.59
		C152.5,136.43,148.83,140.1,144.3,140.1z"/>
	<path class="st1" d="M142.63,116.91h-31.45c-4.53,0-8.2-3.67-8.2-8.2s3.67-8.2,8.2-8.2h31.45c4.53,0,8.2,3.67,8.2,8.2
		S147.16,116.91,142.63,116.91z"/>
</g>
</svg>
