<?xml version="1.0" encoding="utf-8"?>
<!-- Generator: Adobe Illustrator 23.0.1, SVG Export Plug-In . SVG Version: 6.00 Build 0)  -->
<svg version="1.1" id="Layer_1" xmlns="http://www.w3.org/2000/svg" xmlns:xlink="http://www.w3.org/1999/xlink" x="0px" y="0px"
	 viewBox="0 0 257.54 257.54" style="enable-background:new 0 0 257.54 257.54;" xml:space="preserve">
<style type="text/css">
	.st0{fill:#0094D9;}
	.st1{fill:#E6E7E8;}
	.st2{fill:#FFFFFF;}
	.st3{fill:#224099;}
	.st4{fill:#1C93D1;}
	.st5{fill:#FFFFFF;stroke:#224099;stroke-width:2;stroke-linecap:round;stroke-linejoin:round;stroke-miterlimit:10;}
	.st6{fill:#FFFFFF;stroke:#FFFFFF;stroke-width:2;stroke-linecap:round;stroke-linejoin:round;stroke-miterlimit:10;}
	.st7{fill:#FFFFFF;stroke:#1E4497;stroke-width:3;stroke-linecap:round;stroke-linejoin:round;stroke-miterlimit:10;}
	.st8{fill:#1E4497;}
	.st9{fill:#FFFFFF;stroke:#FFFFFF;stroke-width:1.8;stroke-linecap:round;stroke-linejoin:round;stroke-miterlimit:10;}
	.st10{fill:none;stroke:#224099;stroke-width:1.8;stroke-linecap:round;stroke-linejoin:round;stroke-miterlimit:10;}
</style>
<g>
	<g>
		<path class="st0" d="M33.79,208.18c-3.86,0-7.65-1.81-10.06-5.2C-12.58,151.68-6.69,82.19,37.75,37.76
			C82.18-6.69,151.67-12.58,202.99,23.74c5.55,3.93,6.86,11.61,2.93,17.16c-3.94,5.55-11.61,6.86-17.17,2.93
			C147.28,14.47,91.1,19.23,55.16,55.17c-35.93,35.93-40.7,92.11-11.33,133.59c3.93,5.55,2.61,13.23-2.93,17.16
			C38.74,207.45,36.25,208.18,33.79,208.18z"/>
		<path class="st3" d="M128.89,257.54c-25.85,0-51.85-7.81-74.35-23.74c-5.55-3.93-6.86-11.61-2.93-17.16
			c3.94-5.55,11.61-6.87,17.17-2.93c41.46,29.35,97.65,24.6,133.59-11.33c35.93-35.94,40.7-92.12,11.33-133.59
			c-3.93-5.55-2.61-13.23,2.93-17.16c5.55-3.93,13.23-2.62,17.17,2.93c36.32,51.29,30.43,120.78-14.02,165.23
			C194.83,244.73,161.98,257.54,128.89,257.54z"/>
	</g>
</g>
<g>
	<path class="st3" d="M179.62,192.41H76.18c-9.81,0-17.8-7.98-17.8-17.8V85.84c0-4.08,3.31-7.39,7.39-7.39h124.26
		c4.08,0,7.39,3.31,7.39,7.39v88.78C197.42,184.43,189.43,192.41,179.62,192.41z M73.16,93.22v81.39c0,1.67,1.35,3.03,3.02,3.03
		h103.43c1.67,0,3.02-1.36,3.02-3.03V93.22H73.16z"/>
	<g>
		<path class="st3" d="M189.3,93.05H66.49c-4.48,0-8.11,0-8.11,0v-9.88c0-10.64,8.56-19.31,19.08-19.31h100.86
			c10.52,0,19.08,8.66,19.08,19.31v9.88C197.41,93.05,193.78,93.05,189.3,93.05z"/>
	</g>
	<circle class="st2" cx="170.27" cy="79.77" r="6.07"/>
	<circle class="st2" cx="84.07" cy="79.77" r="6.07"/>
</g>
<path class="st3" d="M103.3,133.85c-1.72,0-3.43-0.6-4.81-1.78l-13.16-11.29c-3.09-2.66-3.45-7.32-0.8-10.42
	c2.67-3.1,7.33-3.44,10.42-0.8l8.71,7.47l17.61-12.94c3.31-2.42,7.92-1.7,10.33,1.58c2.41,3.29,1.71,7.91-1.58,10.32l-22.34,16.42
	C106.37,133.37,104.83,133.85,103.3,133.85z"/>
<path class="st3" d="M145.64,166.15c-1.72,0-3.43-0.6-4.81-1.78l-13.16-11.29c-3.09-2.65-3.45-7.32-0.8-10.42
	c2.67-3.11,7.33-3.44,10.42-0.8l8.71,7.47l17.62-12.94c3.31-2.42,7.92-1.71,10.33,1.58s1.71,7.91-1.58,10.32l-22.35,16.42
	C148.71,165.68,147.18,166.15,145.64,166.15z"/>
</svg>
