<?xml version="1.0" encoding="utf-8"?>
<!-- Generator: Adobe Illustrator 23.0.1, SVG Export Plug-In . SVG Version: 6.00 Build 0)  -->
<svg version="1.1" id="Layer_1" xmlns="http://www.w3.org/2000/svg" xmlns:xlink="http://www.w3.org/1999/xlink" x="0px" y="0px"
	 viewBox="0 0 257.37 257.37" style="enable-background:new 0 0 257.37 257.37;" xml:space="preserve">
<style type="text/css">
	.st0{fill:#0094D9;}
	.st1{fill:#224099;}
	.st2{fill:#FFFFFF;}
	.st3{fill:none;stroke:#224099;stroke-width:2;stroke-linecap:round;stroke-linejoin:round;stroke-miterlimit:10;}
	.st4{fill:none;stroke:#FFFFFF;stroke-width:2;stroke-linecap:round;stroke-linejoin:round;stroke-miterlimit:10;}
	.st5{fill:#1E4497;}
</style>
<g>
	<g>
		<path class="st0" d="M33.78,208.05c-3.86,0-7.65-1.81-10.05-5.19C-12.58,151.59-6.68,82.14,37.73,37.73
			c44.41-44.42,113.86-50.3,165.13-14c5.55,3.93,6.86,11.61,2.93,17.15c-3.93,5.54-11.6,6.87-17.15,2.93
			c-41.46-29.35-97.6-24.58-133.51,11.32c-35.91,35.91-40.67,92.06-11.32,133.51c3.93,5.55,2.62,13.23-2.93,17.15
			C38.72,207.32,36.23,208.05,33.78,208.05z"/>
		<path class="st1" d="M128.81,257.37c-25.83,0-51.81-7.8-74.29-23.72c-5.55-3.93-6.86-11.6-2.93-17.15
			c3.92-5.54,11.6-6.87,17.15-2.93c41.46,29.35,97.6,24.59,133.51-11.32c35.91-35.91,40.67-92.05,11.32-133.5
			c-3.93-5.55-2.62-13.23,2.93-17.15c5.56-3.93,13.23-2.61,17.15,2.93c36.3,51.26,30.41,120.71-14.01,165.12
			C194.71,244.58,161.88,257.37,128.81,257.37z"/>
	</g>
	<g>
		<path class="st1" d="M141.23,96.51c4.33,0,8.31,1.96,10.35,5.09l7,10.78c3.79,5.84,11.21,9.49,19.29,9.49h7.24
			c6.61,0,11.97,4.39,11.97,9.8v5.58c0,3.8-3.77,6.89-8.42,6.89h-39.37h-33.67H75.54c-4.66,0-8.43-3.09-8.43-6.9v-8.67
			c0-6.07-0.22-7.45,7.2-7.45c0,0,0,0,0,0c0.13,0,12.04-0.02,16.31-7.9l5.36-10.74c1.8-3.61,6.09-5.96,10.84-5.96H141.23
			 M141.23,81.74h-34.4c-10.33,0-19.77,5.55-24.06,14.13l-4.82,9.67c-0.87,0.39-2.59,0.77-3.81,0.8c-0.05,0-0.11,0-0.17,0
			c-3.5,0-10.83,0.09-16.3,5.56c-5.34,5.34-5.33,11.85-5.33,16.15l0,0.5v8.67c0,11.95,10.41,21.67,23.2,21.67h40.08h33.67h39.37
			c12.78,0,23.18-9.71,23.18-21.65v-5.58c0-13.54-12-24.56-26.74-24.56h-7.24c-3.36,0-6.02-1.39-6.91-2.76l-7-10.78
			C159.23,86.27,150.52,81.74,141.23,81.74L141.23,81.74z"/>
		<g>
			<circle class="st2" cx="86.33" cy="148.47" r="15.82"/>
			<path class="st1" d="M86.33,171.67c-12.79,0-23.2-10.41-23.2-23.2s10.41-23.2,23.2-23.2s23.2,10.41,23.2,23.2
				S99.12,171.67,86.33,171.67z M86.33,140.03c-4.65,0-8.44,3.79-8.44,8.44s3.79,8.44,8.44,8.44c4.65,0,8.44-3.79,8.44-8.44
				S90.98,140.03,86.33,140.03z"/>
		</g>
		<g>
			<circle class="st2" cx="171.87" cy="148.47" r="15.82"/>
			<path class="st1" d="M171.87,171.67c-12.79,0-23.2-10.41-23.2-23.2s10.41-23.2,23.2-23.2c12.79,0,23.2,10.41,23.2,23.2
				S184.66,171.67,171.87,171.67z M171.87,140.03c-4.65,0-8.44,3.79-8.44,8.44s3.79,8.44,8.44,8.44s8.44-3.79,8.44-8.44
				S176.52,140.03,171.87,140.03z"/>
		</g>
		<path class="st1" d="M179.91,121.31H70.51c-4.08,0-7.38-3.3-7.38-7.38s3.3-7.38,7.38-7.38h109.4c4.08,0,7.38,3.3,7.38,7.38
			S183.99,121.31,179.91,121.31z"/>
	</g>
</g>
</svg>
