<svg id="Layer_1" data-name="Layer 1" xmlns="http://www.w3.org/2000/svg" viewBox="0 0 574.45 574.46"><defs><style>.cls-1{fill:#224099;}</style></defs><title>F1-Icon-32-Plane-left-right-02</title><path class="cls-1" d="M138.51,168.23c0,11.73,30.25,21.34,42,21.39l47,.15L334,297a7.49,7.49,0,0,0,12.11-8.15L303.69,190.1l82.14-5.91,45.36,47.22a2.6,2.6,0,0,0,4.22-2.85L414.7,180.37a20.52,20.52,0,0,0,1.73-3.36h3a7.78,7.78,0,0,0,.68-15.55c-.23,0-.46,0-.68,0h-3a21,21,0,0,0-1.7-3.43l21-47.3a2.57,2.57,0,0,0-.9-3.18,2.66,2.66,0,0,0-3.33.3L386.39,154l-83-6.45,43.47-98.43A7.5,7.5,0,0,0,343,39.25a7.41,7.41,0,0,0-2.93-.62,7.52,7.52,0,0,0-5.32,2.17L227.54,147.22l-47-.15C168.83,147.07,138.51,156.5,138.51,168.23Z"/><path class="cls-1" d="M436,414.73c0,11.74-30.25,21.34-42,21.39l-47,.15L240.49,543.48a7.5,7.5,0,0,1-12.17-8.23l42.42-98.73-82.17-5.83-45.36,47.22a2.59,2.59,0,0,1-4.21-2.85l20.7-48.19a20.86,20.86,0,0,1-1.72-3.36h-3A7.78,7.78,0,1,1,154.3,408c.22,0,.45,0,.68,0h3a21,21,0,0,1,1.69-3.43l-21-47.31a2.58,2.58,0,0,1,2.4-3.63,2.51,2.51,0,0,1,1.83.75l45,46.17,83.19-6.43-43.55-98.44a7.51,7.51,0,0,1,3.87-9.87,7.5,7.5,0,0,1,8.26,1.55L346.89,393.76l47-.15C405.6,393.61,435.94,403,436,414.73Z"/></svg>